<svg width="147" height="36" viewBox="0 0 147 36" fill="none" xmlns="http://www.w3.org/2000/svg">
<path d="M2.11348 23.4062C2.07639 22.8545 2.0393 22.2292 1.66847 21.7511C1.48305 21.5304 1.22346 21.3833 0.926788 21.3833C-0.40823 21.3465 0.0367783 23.4798 0.222198 24.2154C0.296365 24.5096 0.444702 24.8406 0.704289 25.0613C0.963876 25.282 1.26054 25.3923 1.5943 25.4291C2.15056 25.5394 2.29889 25.0613 2.26181 24.8774C2.15056 24.436 2.15056 23.9947 2.11348 23.4062Z" fill="#CE0E2D"/>
<path d="M38.4927 14.5057C38.4927 14.5057 37.1948 3.94981 28.0721 1.08096C22.9546 -0.500582 20.4329 -0.0224368 17.3178 0.492485C13.6465 1.11775 9.23355 2.6625 6.08142 5.34745C3.93056 7.18646 1.74261 9.94497 0.889683 13.4391C0.444677 15.3149 0.370506 17.1539 0.741345 19.1032C0.852596 19.802 1.89095 20.5009 1.89095 19.3239C2.0022 6.34052 12.7936 3.91304 13.1644 3.83948C13.3128 3.8027 13.424 3.80269 13.5724 3.76591C13.7578 3.72913 13.9432 3.69235 14.0915 3.72913C14.2028 3.72913 14.277 3.91304 14.1286 3.9866C13.2757 4.39118 9.90106 5.53136 8.08395 7.1129C6.22976 8.73123 3.81931 11.3058 3.04055 15.793C2.9293 16.5654 2.78096 20.5376 3.15179 23.2962C3.3743 24.9145 4.48681 27.0845 5.19141 28.004C7.15685 30.5051 10.6057 32.6383 12.4598 33.3003C13.6465 33.7049 15.0928 33.852 15.7974 33.9992C16.057 34.0727 16.0199 34.367 15.7603 34.4037C14.5736 34.5876 11.7182 33.9256 9.3448 32.7854C7.56478 31.9395 6.34101 30.7257 5.15433 29.4384C3.85639 28.0408 3.1518 26.5696 2.63262 26.6431C1.81678 26.7903 2.52137 28.5189 2.85513 29.1442C4.0789 31.3878 6.48934 33.3371 7.71311 33.9992C11.4957 36.0589 15.3153 36.0956 17.0582 35.9485C24.475 35.3232 29.0734 31.7924 31.0759 29.0339C32.2626 27.4155 34.9327 23.995 34.8585 18.9929C34.8585 18.1837 34.9327 12.6667 33.0785 9.76107C32.6705 9.09902 31.4097 6.41408 26.7 4.09693C26.3292 3.91303 24.7346 3.10387 23.3996 3.06709C22.8433 3.06709 21.7308 2.99353 21.8421 2.36827C21.9162 1.89013 24.6604 2.51539 24.9571 2.58895C26.9225 3.14065 29.4813 4.64863 31.2243 5.97272C36.6756 10.0921 36.1193 18.8825 36.1193 18.8825C35.8968 28.1879 30.4084 32.1602 26.4405 34.4773C26.3663 34.5141 26.0696 34.8819 26.1809 35.029C26.2921 35.1761 26.4775 35.1393 26.663 35.1393C28.1834 34.9922 29.6667 33.8888 30.9276 32.8958C37.4544 27.8201 37.7881 23.8846 38.1219 22.3766C38.7152 20.2802 38.7152 15.9034 38.4927 14.5057ZM22.9917 13.0713C22.9917 13.0713 23.0287 13.0713 22.9917 13.0713C23.3254 13.0345 23.4367 13.2184 23.5108 13.5126C23.5479 13.5862 23.585 13.8069 23.6592 14.0643C23.7704 14.5425 23.9929 15.5723 24.1042 15.7194C24.2154 15.7562 24.7717 15.9033 25.3279 16.0505C26.3292 16.3079 27.5159 16.639 28.0351 16.8229C28.1834 16.8964 28.3317 16.9332 28.5171 17.0068C30.1488 17.632 30.9647 17.9998 30.9647 18.3676C30.9647 18.5515 30.8905 18.7354 30.7793 18.8825C30.6309 19.0664 30.4084 19.14 30.1859 19.1032C29.9634 19.0664 26.218 19.2871 22.4725 19.6917C20.952 19.8388 19.6541 20.0227 18.6529 20.1698C14.5736 20.8319 7.45352 22.2295 7.23102 22.3031C7.19393 22.3031 7.11977 22.3399 7.08268 22.3399C6.86018 22.3766 6.67476 22.3031 6.60059 22.1927C6.52643 22.0824 6.52643 21.9721 6.60059 21.8617C6.78601 21.5307 9.01104 20.1331 10.1977 19.471C11.2732 18.8825 12.4969 18.2941 13.1644 17.9998C13.3869 17.8895 13.6094 17.7791 13.6465 17.7791C13.7207 17.7056 14.0915 17.1171 14.4253 16.639C15.4636 15.0206 15.5378 14.9471 15.6861 14.9471C15.7974 14.9471 17.4662 14.5057 19.0608 14.1011C21.4341 13.4391 22.8804 13.0713 22.9917 13.0713Z" fill="#CE0E2D"/>
<path d="M136.542 24.694H136.802V25.3928H136.95V24.694H137.21V24.5469H136.542V24.694Z" fill="#040000"/>
<path d="M137.803 25.2089L137.581 24.5469H137.321V25.3928H137.507V24.694L137.766 25.3928H137.878L138.137 24.694V25.3928H138.285V24.5469H138.063L137.803 25.2089Z" fill="#040000"/>
<path d="M64.6366 15.7564C64.0804 15.4989 63.8208 15.6828 63.5612 15.9771C61.8553 18 57.9986 21.1998 58.3324 24.51C58.4436 25.687 59.1482 27.195 60.7057 26.7169C61.1507 26.3123 60.9653 25.7974 61.1878 25.2824C62.4487 22.2665 66.0087 20.17 64.6366 15.7564Z" fill="#040000"/>
<path d="M81.7326 26.1657C77.95 26.5702 74.4271 24.4738 70.1253 24.768C71.2378 23.6278 72.6841 22.4877 73.945 21.3107C75.0946 20.2073 76.8004 18.8464 76.0958 16.7499C74.6866 16.2718 72.3504 16.5661 70.2737 16.4557C68.4195 16.3454 66.009 15.6833 66.1203 17.2649C66.2686 19.1407 70.0512 18.9568 72.0537 18.7729C70.6445 20.0602 69.0128 21.3107 67.4182 22.598C66.0461 23.7382 63.5244 25.099 64.1919 27.6369C65.7494 28.5196 67.5666 27.6369 69.6432 27.5633C73.5 27.4162 76.8004 28.5564 80.4717 28.2621C81.918 28.1518 84.143 27.6736 84.0318 26.1289C83.1788 25.5772 82.5113 26.0553 81.7326 26.1657Z" fill="#040000"/>
<path d="M61.4104 14.7635C61.5216 10.497 57.3312 8.1799 53.1407 8.43736C51.3236 8.5477 48.7277 9.06262 49.284 11.5637C49.9144 11.9682 50.4706 11.8579 51.3607 11.8211C49.3952 13.9176 47.4669 16.6761 46.0948 19.6185C45.0935 21.715 43.981 24.3264 43.536 26.7171C43.3876 27.5262 43.091 28.7032 44.0181 29.5124C45.9093 29.3652 46.6139 27.3791 47.3556 26.0182C49.7661 21.5679 52.2878 17.0439 53.8082 11.9315C55.9591 12.2625 57.7762 13.3659 57.8132 15.2417C57.8874 17.3749 55.2545 18.6254 53.5486 19.0668C52.5844 19.3243 51.4719 19.2139 50.8415 19.876C51.5461 20.9426 53.0665 20.8323 54.0678 20.7587C57.5908 20.4645 61.3362 18.2209 61.4104 14.7635Z" fill="#040000"/>
<path d="M64.4142 14.5426C65.9346 14.9472 67.0842 13.2185 67.7517 12.5197C68.753 11.453 69.6059 10.7175 69.9026 9.28303C68.0484 8.69454 65.0075 10.129 64.0433 11.5266C63.45 12.4461 63.2275 14.2116 64.4142 14.5426Z" fill="#040000"/>
<path d="M122.747 16.3082C122.191 15.7565 121.301 16.3082 120.559 16.3082C120.744 15.2783 121.264 14.2117 121.634 13.1819C121.968 12.152 122.673 10.8647 121.82 9.79808C120.114 10.0923 119.409 11.6003 118.668 12.7773C117.889 14.1014 117.221 15.499 116.443 16.7495C114.922 16.7495 113.587 16.9334 111.993 16.8231C112.623 15.6093 113.031 14.4692 113.736 12.9612C114.032 12.2991 115.701 9.24638 114.106 8.8418C114.069 8.8418 113.995 8.8418 113.995 8.8418C111.288 9.61418 109.323 14.7634 107.654 16.8966C105.577 16.8599 103.055 16.676 103.167 18.184C103.241 19.3977 105.058 19.6551 106.133 20.2436C105.763 21.4574 103.426 26.2388 105.392 27.4893C107.468 28.7766 108.544 25.7606 109.026 24.5101C109.619 22.9286 110.064 21.4942 110.732 20.2804C112.363 20.1701 114.181 19.6184 115.516 19.5816C115.145 20.9792 114.366 22.9654 115.219 24.7676C116.739 25.7239 117.852 24.694 118.408 23.701C119.261 22.1562 119.372 19.3977 120.003 18.1472C120.967 17.6322 122.487 17.5587 122.747 16.3082Z" fill="#040000"/>
<path d="M97.8637 19.766C97.53 18.4787 99.7179 16.6765 98.3458 15.3156C97.8266 14.9478 97.2333 15.4995 96.8996 15.3156C92.7462 14.8007 88.4444 17.0443 87.369 20.097C87.0723 20.9062 87.2948 21.936 87.4432 22.6349C85.7002 23.3705 83.401 22.4878 81.4727 22.2303C82.5852 21.2372 83.4752 20.2809 84.736 19.104C85.589 18.2948 87.8511 16.934 87.1836 15.2421C86.8127 14.3226 85.2181 14.1387 84.0685 14.1387C82.4369 14.1387 80.3231 14.6536 78.6543 14.58C78.061 14.5432 77.5418 14.0651 77.0597 14.4329C75.5393 17.596 80.3602 17.3753 82.7335 17.1179C81.0277 18.9569 77.9868 20.0603 76.5034 22.1567C76.0955 22.7084 75.6134 23.5544 75.9843 24.4371C76.6147 24.952 77.3564 24.5842 78.061 24.5842C81.2502 24.4739 84.8844 25.5037 87.2207 24.4003C87.7028 24.1796 87.9994 23.7751 88.4815 23.444C91.3741 24.3635 93.4137 22.7452 95.1195 21.7889C96.1579 23.1498 100.311 23.2234 100.645 21.4579C100.015 20.3545 98.1975 20.9798 97.8637 19.766ZM94.8599 18.4052C94.7487 18.7362 94.5633 19.0304 94.6004 19.4718C93.4137 19.8396 92.5978 20.5384 91.0774 20.5384C91.5224 18.7362 93.1912 18.0374 95.0454 17.5592C95.5275 17.5592 94.8229 18.1109 94.8599 18.4052Z" fill="#040000"/>
<path d="M144.886 15.2785C143.032 15.2417 141.067 15.3888 139.806 15.3521C140.251 14.4326 141.512 13.2924 140.584 11.858C139.101 11.4534 138.471 12.5936 137.581 13.6602C136.876 14.5061 136.431 15.3521 136.023 15.4624C135.022 15.7566 133.464 14.8371 132.611 15.0578C132.315 15.1314 131.87 15.536 131.833 16.0141C131.796 17.3014 133.39 17.4853 134.651 17.9635C134.095 19.1772 133.353 20.6484 132.945 22.3035C132.574 23.8115 132.166 26.0183 133.019 27.6366C134.058 27.4527 134.317 26.239 134.651 25.4666C135.838 22.8184 136.987 20.0599 138.471 17.7796C140.844 17.6324 143.254 16.9704 145.146 16.4923C145.813 16.3451 146.777 16.3819 147 15.6463C146.629 15.0578 145.665 15.2785 144.886 15.2785Z" fill="#040000"/>
<path d="M129.756 19.5079C128.272 21.2734 126.678 22.5975 124.267 23.4434C124.749 22.009 125.38 18.7356 123.34 18.2574C122.636 18.0735 121.709 18.2942 121.189 18.7356C121.189 19.4712 122.042 19.324 122.042 20.0596C121.523 21.5676 119.372 24.3997 121.226 26.0916C122.895 27.5996 125.639 25.7974 126.455 25.1721C127.086 24.6939 127.642 24.0687 128.161 23.9583C128.347 25.9077 129.125 27.2318 130.868 27.4892C131.387 26.9375 130.942 26.2755 130.942 25.5399C130.942 24.3997 131.35 23.0388 131.61 21.9354C131.87 20.7585 132.574 19.4344 131.684 18.2942C130.683 18.0735 130.238 18.9562 129.756 19.5079Z" fill="#040000"/>
</svg>
