<svg width="220" height="29" viewBox="0 0 220 29" fill="none" xmlns="http://www.w3.org/2000/svg">
<path d="M94.2331 5.43742L73.6748 4.68861V0.297852L93.9267 1.38704L94.2331 5.43742Z" fill="#00A73C"/>
<path d="M106.827 1.25098C106.521 6.28843 106.487 11.1217 106.725 16.4655L101.517 16.5676C101.143 11.9045 101.109 6.49266 101.551 1.28502L106.827 1.25098Z" fill="#00A73C"/>
<path d="M127.522 1.1485C128.85 8.73872 128.101 16.6012 122.008 21.911C117.549 26.1316 111.184 26.8463 104.99 26.8123L105.058 22.4556C111.525 22.5577 118.673 20.4134 121.77 13.9464C123.506 10.0662 123.199 5.301 122.451 1.1485C124.289 1.11446 125.888 1.18253 127.522 1.1485Z" fill="#00A73C"/>
<path d="M158.938 5.64215H133.342V1.11523H158.938V5.64215Z" fill="#00A73C"/>
<path d="M200.122 8.53461H220L219.932 13.538H200.122V26.2338H194.71V0.0253906H200.122V8.53461Z" fill="#00A73C"/>
<path d="M179.394 5.64215H162.545V1.11523H179.394V5.64215Z" fill="#00A73C"/>
<path d="M212.106 5.56094H207V1.03404L212.106 1V5.56094Z" fill="#00A73C"/>
<path d="M219.081 5.16431H214.111V0.569336H219.081V5.16431Z" fill="#00A73C"/>
<path d="M192.123 4.04199C192.327 10.3729 190.251 16.6697 184.975 20.8222C179.257 25.8937 171.225 26.4042 163.771 26.4042V22.1836C172.041 21.4348 181.129 20.7541 185.146 12.5512C186.303 9.96441 186.95 7.17339 186.813 4.07603L192.123 4.04199Z" fill="#00A73C"/>
<path d="M98.2158 12.6875C98.9305 15.7508 98.1817 19.1545 96.1055 21.469C90.1831 26.7788 81.1633 27.0851 73.505 26.9149V22.8645C80.1081 22.1498 87.5622 23.2049 92.3614 18.0313C93.0081 16.7379 93.6548 14.8318 92.7358 13.5044C90.0469 10.9857 86.6092 11.258 82.8311 11.4281C78.4744 11.8706 74.5601 12.4833 70.2715 13.2321V8.8073C77.5554 6.42472 86.5071 5.94821 93.9952 8.26271C95.5949 9.28382 97.8073 10.6793 98.2158 12.6875Z" fill="#00A73C"/>
<path d="M158.155 8.56836C159.04 8.63643 160.129 9.14699 160.367 10.1C161.048 15.4438 157.372 20.3792 152.913 23C147.399 26.5058 140.013 26.5398 133.478 26.676V22.3193C140.796 22.3533 149.884 22.047 154.138 15.1034L154.717 13.0612L154.172 12.857L131.333 12.9591V8.67048L158.155 8.56836Z" fill="#00A73C"/>
<path d="M17.6505 0.876953V4.07642H30.1421V8.50121H17.6505V13.3344C22.8582 14.5257 27.6233 16.7722 32.2183 19.6993L30.1761 23.7157C26.364 21.6054 22.2795 19.1207 17.7867 18.0656C17.3782 20.4141 18.1951 23.3413 16.255 25.1793C13.9745 28.1745 10.1964 28.5149 6.58854 28.0724C3.86559 27.5959 0.972452 25.6218 0.257678 22.8307C-0.52517 20.346 0.56401 17.7933 2.33393 15.9212C4.92073 13.0962 8.90305 12.7218 12.7492 12.96V0.876953H17.6505ZM5.02284 20.4141C4.95477 21.5373 5.22706 22.8307 6.41835 23.2392C7.71175 23.8178 9.51571 24.022 10.7751 23.2392C13.3278 22.15 12.2727 19.427 12.6471 17.555C9.68589 17.1125 6.14606 17.555 5.02284 20.4141Z" fill="#00A73C"/>
<path d="M50.9383 2.00023C53.5251 4.14455 52.6401 8.29705 52.6061 10.5435L60.1623 11.8369C60.7069 9.4543 60.4346 6.62924 60.5707 4.17858H65.5401C65.8805 7.17383 65.6422 10.3733 65.2338 13.4026C66.8335 14.2875 68.5694 14.6279 70.1011 15.5809L68.9778 19.9717C67.6164 19.6994 66.0847 18.8825 64.6552 18.4741C64.0765 21.6735 63.2256 24.7709 61.9322 27.0514H57.2011C58.4264 23.954 59.0391 20.3801 59.7539 16.9764C57.4734 16.1255 54.8185 15.615 52.2657 15.2406C51.1425 20.278 51.0744 23.7498 46.4795 25.8941C43.5523 27.2556 38.3787 26.6429 36.1323 24.1923C34.6687 23.001 34.1241 21.129 34.022 19.2569C34.2602 16.2276 36.0982 13.5047 38.9573 12.1772C41.476 10.7137 44.8117 10.6456 47.6027 10.3052C47.5686 8.87567 48.0111 7.44612 47.8069 5.84639L37.3576 5.6762V1.28545C41.8504 1.45563 46.8539 0.638751 50.9383 2.00023ZM40.8634 15.9553C39.8082 16.6361 38.7191 17.5551 38.8892 18.9166C38.9233 20.0398 39.4679 21.0268 40.3528 21.6735C41.3399 22.1841 42.7694 22.2181 43.8927 21.9118C46.6497 20.5844 46.6156 17.2828 46.9219 14.7641C44.7776 14.8321 42.7354 15.1725 40.8634 15.9553Z" fill="#00A73C"/>
</svg>
