<svg width="100" height="64" viewBox="0 0 100 64" fill="none" xmlns="http://www.w3.org/2000/svg">
<path d="M99.6444 0H0V63.5861H99.6444V0Z" fill="#FFCB04"/>
<path d="M14.9199 9.8418V54.1576H36.1277V46.7365H22.3799V9.8418H14.9199Z" fill="#231F20"/>
<path d="M49.8223 54.1576H57.2823V31.9997H64.7423V24.6313H57.2823V17.2102H64.7423V9.8418H49.8223V54.1576Z" fill="#231F20"/>
<path d="M69.751 9.8418V24.6313H67.2466V31.9997H69.751V54.1576H84.671V46.7365H77.211V31.9997H84.671V24.6313H77.211V9.8418H69.751Z" fill="#231F20"/>
<path d="M36.1281 22.1572C29.9469 22.1572 24.8848 27.1046 24.8848 33.2099C24.8848 39.3151 29.8936 44.2625 36.1281 44.2625C42.3092 44.2625 47.3181 39.3151 47.3181 33.2099C47.3181 27.1046 42.3092 22.1572 36.1281 22.1572ZM36.1281 36.8941C34.0499 36.8941 32.3981 35.2625 32.3981 33.2099C32.3981 31.1572 34.0499 29.5256 36.1281 29.5256C38.2062 29.5256 39.8581 31.1572 39.8581 33.2099C39.8581 35.2625 38.1529 36.8941 36.1281 36.8941Z" fill="#231F20"/>
</svg>
