<svg width="120" height="120" viewBox="0 0 120 120" fill="none" xmlns="http://www.w3.org/2000/svg">
<path d="M79.7803 20.538C100.884 27.1997 103.851 51.7648 103.851 51.7648C104.423 54.9395 104.371 65.1403 103.148 70.1886C102.316 73.6496 101.535 82.8615 86.4941 94.6496C83.5796 96.9396 80.1707 99.5418 76.6577 99.8801C76.2153 99.9321 75.7729 99.9582 75.5647 99.6459C75.3566 99.3336 76.0071 98.4749 76.1893 98.3708C85.2971 92.9581 97.996 83.7723 98.5164 62.0696C98.5164 62.0696 99.7915 41.6681 87.1707 32.0659C83.1112 28.9692 77.2562 25.4562 72.6763 24.2071C71.9997 24.025 65.6502 22.6198 65.4941 23.6867C65.2599 25.222 67.8361 25.3261 69.1372 25.3521C72.1818 25.4302 75.903 27.3038 76.7357 27.7202C87.6391 33.0808 90.5276 39.3521 91.4644 40.8875C95.706 47.6012 95.5239 60.5083 95.5499 62.3559C95.68 73.9879 89.5647 81.9767 86.8324 85.75C82.1484 92.2035 71.6093 100.427 54.4606 101.884C50.4532 102.222 41.6316 102.118 32.8881 97.3559C30.1037 95.8466 24.4829 91.2927 21.6985 86.0622C20.8918 84.5269 19.3044 80.5975 21.152 80.2072C22.271 79.973 23.9104 83.4079 26.929 86.6868C29.6874 89.6793 32.4978 92.4377 36.5833 94.4414C42.0219 97.1217 48.6316 98.631 51.364 98.1886C51.9625 98.0845 52.0405 97.3559 51.442 97.2258C49.7506 96.8355 46.4457 96.5232 43.6874 95.5604C39.3937 94.0251 31.5089 89.0808 26.929 83.2258C25.2375 81.0399 22.6874 75.9916 22.1929 72.2704C21.3342 65.7908 21.6204 56.5789 21.9327 54.7834C23.6762 44.3745 29.297 38.3373 33.5647 34.564C37.7803 30.8689 45.535 28.2406 47.5127 27.3038C47.8509 27.1477 47.6688 26.7313 47.4346 26.6793C47.0703 26.6272 46.6279 26.6793 46.2376 26.7834C45.9513 26.8614 45.6391 26.9135 45.3268 26.9915C44.442 27.1737 19.5647 32.7945 19.2784 63.0325C19.2524 65.7388 16.9104 64.2035 16.5981 62.538C15.7914 57.9321 15.9215 53.7165 16.9624 49.3187C18.8881 41.2258 23.9104 34.7722 28.9067 30.5306C36.219 24.2852 46.3677 20.6941 54.851 19.2109C62.1372 17.9358 68.0183 16.8168 79.7803 20.538ZM18.6799 77.1886C20.0071 77.4228 20.3193 76.3559 20.2152 75.8615C20.0071 74.8726 19.929 73.8578 19.8769 72.4786C19.7989 71.2035 19.6688 69.6942 18.836 68.6533C18.4197 68.1328 17.8212 67.8206 17.1446 67.8206C14.074 67.7425 15.0628 72.7128 15.5312 74.3782C15.7394 75.1068 16.0517 75.8094 16.6502 76.3039C17.1966 76.7723 17.9253 77.0585 18.6799 77.1886Z" fill="#DB0025"/>
<path d="M92.6876 92.958H93.182L93.6504 94.2591L94.1188 92.958H94.6133V94.6755H94.301V93.2443L93.8066 94.6755H93.5463L93.0519 93.2443V94.6755H92.6876V92.958ZM91.0742 92.958H92.4274V93.2443H91.9069V94.6755H91.5947V93.2443H91.0742V92.958Z" fill="#DB0025"/>
<path d="M80.3536 44.1674C79.9372 43.9852 79.5729 43.8291 79.2606 43.699C78.1677 43.2046 75.4874 42.3458 73.3275 41.6693C72.1305 41.2789 70.8814 40.9146 70.6733 40.7845C70.439 40.4202 69.9186 38.1302 69.6584 37.0373C69.5283 36.4648 69.4242 36.0224 69.3721 35.8142C69.164 35.1116 68.9298 34.7213 68.2532 34.7473H68.2011C67.9669 34.7733 64.7662 35.4239 59.5357 36.4648C56.0227 37.1674 52.3796 37.922 52.1454 37.9481C51.8591 37.9741 51.677 38.1302 49.387 41.5912C48.7104 42.6321 47.8517 43.9332 47.7216 44.0633C47.6435 44.1154 47.1491 44.2975 46.6546 44.5317C45.1974 45.1302 42.4911 46.2492 40.1751 47.4462C37.6249 48.7734 32.6806 51.6618 32.3163 52.3384C32.1862 52.5986 32.1862 52.8589 32.3163 53.067C32.4985 53.3533 32.8888 53.5094 33.3572 53.4834C33.4613 53.4834 33.5654 53.4574 33.6695 53.4314C34.1639 53.3273 49.7513 51.0373 58.703 50.0224C60.9409 49.7622 63.7513 49.554 67.0822 49.3719C75.2792 48.9295 83.5283 48.9035 84.0227 48.9815C84.5171 49.0596 84.9855 48.9035 85.3238 48.5392C85.5841 48.2529 85.7402 47.8626 85.7402 47.4462C85.7142 46.6395 83.9707 45.7548 80.3536 44.1674Z" fill="white"/>
<path d="M51.9367 60.04C51.8846 59.2593 51.7545 58.869 51.4943 58.7128C51.3642 58.6348 51.2081 58.6087 51.0519 58.6348H51.0259C50.6356 58.7128 50.5055 59.1032 50.4014 59.3374C50.3753 59.4154 50.3493 59.4675 50.1411 59.7537C47.2787 63.605 46.9144 64.9322 46.7582 66.1292C46.6281 67.092 46.9664 68.211 47.5389 68.7314C47.7991 68.9656 48.1374 69.0697 48.4757 69.0177C48.7359 68.9656 48.9441 68.8355 49.0482 68.6534C49.1523 68.4972 49.1523 68.289 49.0742 68.1069C49.1783 67.5084 49.6467 66.6236 50.1672 65.5827C50.9999 63.8392 52.0668 61.7314 51.9367 60.04Z" fill="white"/>
<path d="M51.5985 57.5413C51.6245 57.5413 51.6245 57.5413 51.6505 57.5413C52.4052 57.4111 53.0297 56.5524 53.368 56.084C54.0446 55.1472 54.8773 53.8981 55.2416 53.2996C55.3197 53.1695 55.5018 52.8312 55.5539 52.7271C55.6319 52.4929 55.6319 52.3368 55.5279 52.2067C55.3977 52.0766 55.1896 52.0245 54.8253 52.1286C53.9405 52.3368 52.1189 53.1955 51.052 54.7048C50.5576 55.3814 50.3234 56.1621 50.4015 56.7346C50.4795 57.3071 50.974 57.6193 51.5985 57.5413Z" fill="white"/>
<path d="M67.9134 65.3233C67.7312 65.3493 67.5751 65.4274 67.5751 65.4274C66.8985 65.7136 65.7275 65.9218 65.129 65.9738C64.1662 66.0779 63.2294 65.9478 62.1364 65.8177C60.7572 65.6355 59.2219 65.4274 57.2702 65.6355C56.932 65.6616 56.5937 65.7136 56.2554 65.7657C56.8539 65.1411 58.5193 63.4236 59.4821 62.4088C60.1327 61.7062 61.2777 60.4311 61.59 59.5723C61.7201 59.2341 61.8762 58.6355 61.5639 58.2452C61.3558 57.985 61.0175 57.8809 60.523 57.9329C60.445 57.9329 54.7201 58.5314 54.7201 58.5314C54.5639 58.5575 54.3037 58.5314 54.1736 58.5054C54.1476 58.5054 54.1215 58.5054 54.0955 58.5054C53.497 58.4794 53.0546 58.7136 52.9505 59.156C52.8465 59.5463 53.0546 59.9887 53.445 60.2229C53.8353 60.4571 54.4598 60.5872 55.3966 60.5612C55.7089 60.5612 56.0472 60.5352 56.3855 60.5091C57.1662 60.4311 57.7647 60.2749 58.155 60.1969C57.3483 60.9775 55.0584 63.1374 53.6531 64.4645C53.5491 64.5686 53.445 64.6467 53.3409 64.7508C52.5862 65.4534 51.7275 66.2601 51.3372 67.0928C50.9989 67.8214 51.0249 68.4199 51.4152 68.7582C51.6494 68.9664 51.9097 69.0445 52.2479 69.0184C52.4821 68.9924 52.7684 68.9144 53.1587 68.8103C53.9134 68.6021 55.0323 68.2638 56.8799 68.0816C58.3892 67.9255 60.1327 67.8735 62.0584 67.9255C62.761 67.9515 63.4375 67.9255 64.0881 67.8474C65.6755 67.6653 67.0286 67.2229 67.8874 66.5724L67.9134 66.5463C68.1736 66.3642 68.642 65.9999 68.4338 65.5835C68.3297 65.4013 68.1476 65.2973 67.9134 65.3233Z" fill="white"/>
<path d="M46.9912 61.8103C47.0172 61.7843 48.4224 58.7397 45.7682 56.6058C44.441 55.5389 42.6195 55.1486 40.5897 55.5129C39.5228 55.7211 38.4299 56.1114 37.7273 56.5798C36.9466 57.1003 36.7384 57.6467 36.6864 58.011C36.6343 58.4534 36.8165 58.7917 36.9206 58.8698C37.0247 58.9739 37.2328 59.104 37.7793 58.9999C38.0395 58.9479 38.3518 58.8698 38.7421 58.7137C38.0395 59.6244 35.8797 62.7211 34.2142 68.0296C32.9912 71.907 32.6529 74.1709 33.1733 74.9776C33.3035 75.1598 33.4596 75.2639 33.6678 75.2899C33.7198 75.2899 33.7979 75.2899 33.8499 75.2899C34.9168 75.1077 35.9838 72.3233 37.4931 68.472C37.7012 67.9256 37.9354 67.3531 38.1696 66.7546C40.6418 60.4572 40.7979 58.9218 40.6418 58.4795C41.3964 58.4795 44.0767 58.5835 44.389 60.6393C44.6492 62.3308 42.8537 63.8921 41.0581 64.7769C40.5897 65.0111 40.1213 65.1672 39.757 65.2973C39.3927 65.4274 39.1325 65.5055 38.9243 65.6356C38.6901 65.7917 38.7161 65.9479 38.7421 65.9999C38.8462 66.3122 39.5488 66.5204 40.6418 66.3382L40.7198 66.3122C41.4745 66.156 45.3518 65.2973 46.9912 61.8103Z" fill="white"/>
<path d="M67.2377 72.4783C67.2637 72.0099 67.2117 71.6456 67.0295 71.4634C66.9254 71.3593 66.7953 71.2812 66.6392 71.2812C66.5871 71.2812 66.5091 71.2812 66.457 71.2812C65.9886 71.3593 65.6764 71.8537 65.26 72.5303C64.8436 73.1809 64.2972 74.0656 63.3343 75.0024C62.2674 76.0433 61.0704 76.85 60.6801 77.0322C60.9923 76.0694 61.0964 74.8984 61.0184 74.2738C60.9663 73.6493 60.7321 73.1809 60.3938 72.9207C59.9775 72.6084 59.431 72.6084 59.0667 72.6865C58.5983 72.7645 58.1559 72.9987 57.9998 73.1549C57.8957 73.2589 57.8696 73.363 57.8696 73.4671C57.8957 73.5972 58.0258 73.7274 58.286 73.8314C58.7284 74.0136 58.6763 74.2478 58.5462 74.5601C58.5202 74.6121 58.4942 74.6902 58.4942 74.7422C58.4161 75.0285 58.312 75.3147 58.2079 75.601C57.8176 76.7199 57.4273 77.8909 57.7916 78.8798C58.1038 79.6865 58.8585 80.0508 59.8734 79.8686C60.0555 79.8426 60.2637 79.7906 60.4719 79.7125C61.5908 79.3222 62.8139 78.2552 64.115 76.5378C64.1931 78.0471 65.1299 78.8017 65.5462 79.14C65.8585 79.3742 66.1968 79.4783 66.457 79.4523C66.6392 79.4262 66.7693 79.3222 66.8213 79.192C66.8734 79.0619 66.9254 78.8277 66.7433 78.4634C66.457 77.8909 66.7953 75.4969 67.0295 73.9355C67.1596 73.2589 67.2117 72.7645 67.2377 72.4783Z" fill="white"/>
<path d="M80.3782 68.4195C80.144 68.1853 79.6496 68.2894 77.8541 68.6797C77.3596 68.7838 76.7611 68.9139 76.0325 69.07C75.8243 69.1221 75.46 69.2001 75.0176 69.3042C74.7834 69.3563 74.4972 69.4343 74.1849 69.5124L74.263 69.3303C74.5752 68.6797 74.8875 68.0031 75.0176 67.5607C75.1477 67.0923 75.0697 66.676 74.8355 66.4418C74.6793 66.2596 74.4191 66.1816 74.1589 66.2336C73.9247 66.2856 73.6905 66.4158 73.5083 66.65C73.2221 66.9622 72.2593 68.1853 71.1923 70.163C70.802 70.215 69.7611 70.3711 69.0325 70.2931C68.8764 70.2671 68.6422 70.2671 68.434 70.2931H68.408C68.0697 70.3451 67.8094 70.5533 67.6793 70.8916C67.5752 71.0998 67.5752 71.308 67.6533 71.5422C67.7574 71.8024 67.9916 72.0366 68.3039 72.1667C68.7723 72.3749 69.4228 72.479 70.1514 72.4529C69.0325 75.2373 68.6161 77.8396 68.9024 80.2076C68.9544 80.65 69.0845 80.9362 69.2407 81.0663C69.3187 81.1184 69.4228 81.1444 69.5009 81.1184C69.7611 81.0663 69.9953 80.728 70.1514 80.2336C70.2816 79.8173 71.947 74.873 73.17 71.8284C75.6682 70.9697 77.6459 70.189 79.2332 69.4604L79.3113 69.4083C79.7537 69.2001 80.1961 68.992 80.3002 68.8879C80.3782 68.8098 80.4303 68.7057 80.4303 68.6016C80.4563 68.5496 80.4303 68.4715 80.3782 68.4195Z" fill="white"/>
<path d="M57.7125 74.8474C57.6865 74.7954 57.6344 74.6653 57.4783 74.6653C57.3742 74.6132 57.2441 74.6393 56.9578 74.7434C56.8798 74.7694 56.7757 74.7954 56.6716 74.8474C56.4634 74.9255 56.1772 75.0296 55.8129 75.1597C56.0731 73.9887 56.3073 73.0519 56.4894 72.2712C56.8798 70.6839 57.088 69.8772 56.8277 69.5129C56.7497 69.3828 56.5935 69.3307 56.4114 69.3047C56.3593 69.3047 56.3073 69.3047 56.2813 69.3047C55.2404 69.4868 53.627 72.8437 52.5601 76.0965C52.482 76.1225 52.4039 76.1486 52.3259 76.1486C51.1809 76.4348 49.9318 76.7211 48.6047 76.9813C48.8909 76.0705 49.2032 75.1597 49.5675 74.1188V74.0928C49.9318 73.0779 50.5824 71.2043 50.4783 70.3456C50.4002 69.7731 50.114 69.695 49.9318 69.695C49.9058 69.695 49.8798 69.695 49.8538 69.695C48.6827 69.9032 46.4709 73.9367 44.9616 77.6318L44.7794 77.6579L44.3891 77.7359C43.5563 77.8921 42.7757 78.0222 42.3073 78.2043C41.5786 78.4906 41.1363 78.9069 41.1363 79.3233C41.1102 79.7136 41.4225 80.104 41.995 80.3642C42.4634 80.5984 43.0879 80.7025 43.8166 80.7285C43.2441 82.524 42.4634 85.5686 43.166 86.7657C43.3482 87.0519 43.5824 87.2081 43.8946 87.2601C44.1028 87.2861 44.285 87.2861 44.4671 87.2601C45.7422 87.0259 46.3147 85.2043 46.627 83.8512C46.9132 82.6541 47.2255 81.4311 47.5898 80.156C48.8909 79.7917 50.3482 79.2712 51.8054 78.6467C51.3891 80.4162 50.9727 83.1746 52.1958 83.4608C52.43 83.5389 52.6642 83.5389 52.8723 83.5129C53.3928 83.4088 53.8352 83.0445 54.1735 82.4199C54.6158 81.5872 54.824 80.3902 55.0062 79.2973C55.1363 78.4385 55.2924 77.6058 55.4225 76.8512C56.3333 76.3307 57.0359 75.8363 57.4002 75.498C57.6605 75.2378 57.7645 75.0296 57.7125 74.8474Z" fill="white"/>
<path d="M81.1592 59.8581C80.899 59.8321 80.6908 59.728 80.5346 59.5719C80.2224 59.1815 80.3525 58.7652 80.6647 57.8804C80.7949 57.5421 80.925 57.1258 81.0551 56.6574C81.2112 56.0849 81.1071 55.7466 80.977 55.5644C80.8209 55.3302 80.5867 55.2522 80.4305 55.2262C80.1703 55.2001 79.8581 55.3823 79.754 55.4604C79.3116 55.3823 78.8432 55.3563 78.3227 55.3823C75.8506 55.5905 72.9621 57.386 71.687 59.4938C71.0625 60.5347 70.9324 61.4975 71.2967 62.3042C71.3227 62.3563 71.3488 62.4343 71.4008 62.4864C71.3488 62.4864 71.3227 62.5124 71.2967 62.5124C70.9064 62.7206 70.464 62.8247 69.9175 62.8767C69.0588 62.9548 68.096 62.8247 67.2632 62.7206C66.8469 62.6685 66.4305 62.6165 66.0662 62.5905C66.7688 61.9399 68.9287 59.7801 69.7874 58.8953C70.1778 58.505 70.8023 57.8024 70.9064 57.5942C71.2967 56.9697 71.3488 56.3972 71.0105 55.9548C70.7763 55.6425 70.1778 55.2782 68.8246 55.3823C68.6164 55.4083 68.3822 55.4343 68.148 55.4604C65.9882 55.8247 64.5309 56.0589 63.9324 56.1109C63.6461 56.1369 63.5421 56.1369 63.3599 56.0849C63.2558 56.0589 63.1517 56.0328 63.0216 56.0328H62.9696C62.6833 56.0589 62.4491 56.189 62.293 56.4232C62.1108 56.7094 62.0848 57.0998 62.2149 57.4901C62.4491 58.0886 63.2038 58.3488 63.7763 58.3749C64.0625 58.4009 64.4789 58.3749 64.9733 58.3228C65.8841 58.2447 66.925 58.0886 67.4454 58.0105C66.925 58.4789 66.2484 59.0254 65.5718 59.5719C64.4268 60.4827 63.2558 61.4455 62.4231 62.3303C61.4863 63.3191 61.0439 64.334 61.3041 64.8544C61.4342 65.1146 61.7725 65.2187 62.1108 65.1146C62.5792 64.9845 63.0737 64.9065 63.6461 64.8544C64.4008 64.8024 65.1815 64.8024 65.9101 64.8024C66.6647 64.8024 67.4194 64.8024 68.174 64.7503C69.1108 64.6723 69.8395 64.4901 70.5421 64.2299C71.4008 63.8656 71.9212 63.4232 72.0514 63.0068C72.1815 63.0849 72.3376 63.1369 72.4937 63.163C72.832 63.241 73.1963 63.241 73.5607 63.215C75.174 63.0849 76.6313 62.018 77.49 61.3934C77.6722 61.2633 77.8283 61.1332 77.9584 61.0552C78.2447 61.5756 79.1815 61.8618 80.3004 61.7838H80.3265C80.899 61.7317 82.148 61.4195 82.5644 60.9511C82.6685 60.821 82.7205 60.7169 82.6945 60.5868C82.6945 60.3265 82.4082 59.9622 81.1592 59.8581ZM78.1406 57.4381C77.6201 58.531 77.5421 58.7912 77.49 59.1815C76.9956 59.4938 75.3041 60.3786 74.6015 60.4306C74.4454 60.4566 74.3934 60.4046 74.3673 60.4046C74.3413 60.3786 74.3673 60.3265 74.3673 60.3005C75.148 58.2708 77.464 57.5942 78.1406 57.4381Z" fill="white"/>
</svg>
