<svg width="120" height="120" viewBox="0 0 120 120" fill="none" xmlns="http://www.w3.org/2000/svg">
<rect width="120" height="120" fill="white"/>
<path d="M31.8438 82.8062H32.7709V86.3266H31.8438V82.8062ZM31.8438 81.4248H32.7709V82.2715H31.8438V81.4248Z" fill="black"/>
<path d="M34.5373 82.8069V83.2971C34.9346 82.7623 35.3761 82.7178 35.5969 82.7178C36.2591 82.7178 36.524 83.1188 36.6123 83.2971C36.7889 83.1188 37.0979 82.7178 37.6719 82.7178C38.8198 82.7178 38.8198 83.6981 38.8198 84.0546V86.3273H37.8926V84.322C37.8926 83.9209 37.8926 83.4308 37.407 83.4308C37.1862 83.4308 36.9213 83.609 36.833 83.8318C36.7447 84.0101 36.7006 84.1883 36.7006 84.6339V86.3273H35.7735V84.4111C35.7735 83.8318 35.7735 83.4308 35.2878 83.4308C35.0671 83.4308 34.8022 83.5644 34.7139 83.7873C34.6256 83.9655 34.5814 84.0992 34.5814 84.6339V86.3718H33.6543V82.8515H34.5373V82.8069Z" fill="black"/>
<path d="M41.6887 84.8111C41.6887 85.123 41.6887 85.3458 41.5121 85.5241C41.3797 85.6578 41.2031 85.7469 40.9823 85.7469C40.6291 85.7469 40.4525 85.4795 40.4525 85.2567C40.4525 84.9448 40.8057 84.8557 40.9823 84.8111C41.0265 84.8111 41.2472 84.7665 41.2914 84.722C41.5121 84.6774 41.6004 84.6329 41.6887 84.6329V84.8111ZM40.4525 83.8753C40.4967 83.6971 40.6291 83.4297 41.0706 83.4297C41.6887 83.4297 41.6887 83.6971 41.6887 83.9199V84.009C41.5121 84.0981 41.2914 84.1427 40.8057 84.2318C40.3201 84.3209 39.5254 84.4992 39.5254 85.3458C39.5254 85.9697 39.9669 86.3708 40.6733 86.3708C41.2472 86.3708 41.6004 86.1034 41.777 85.8806L41.8212 86.0588C41.8653 86.1479 41.8653 86.1925 41.9095 86.2371H42.8366C42.7041 85.9251 42.66 85.7915 42.6158 85.3013C42.6158 85.123 42.6158 84.1427 42.6158 83.9199C42.6158 83.296 42.6158 82.583 41.1148 82.583C40.0552 82.583 39.7461 83.0286 39.6137 83.5634L40.4525 83.8753Z" fill="black"/>
<path d="M44.1615 84.5002C44.1615 84.2329 44.2057 83.4308 44.9121 83.4308C45.5301 83.4308 45.7067 84.0546 45.7067 84.5002C45.7067 85.436 45.1328 85.5697 44.9121 85.5697C44.3381 85.5697 44.1615 84.9904 44.1615 84.5002ZM43.3668 86.5501C43.3227 87.575 44.2057 87.7533 45.0003 87.7533C46.5456 87.7533 46.678 86.9512 46.678 85.9708V82.8069H45.795V83.2971C45.7067 83.1188 45.3977 82.7178 44.7354 82.7178C44.1615 82.7178 43.2344 83.0743 43.2344 84.5448C43.2344 85.5697 43.8083 86.3273 44.6913 86.3273C45.1328 86.3273 45.486 86.1045 45.7067 85.748V86.2827C45.7067 86.6838 45.7067 87.0403 44.9562 87.0403C44.7354 87.0403 44.603 86.9957 44.5589 86.9511C44.4264 86.862 44.4264 86.6838 44.4264 86.6838L43.3668 86.5501Z" fill="black"/>
<path d="M47.5605 82.8062H48.4877V86.3266H47.5605V82.8062ZM47.5605 81.4248H48.4877V82.2715H47.5605V81.4248Z" fill="black"/>
<path d="M51.7106 84.5442C51.7106 83.9649 51.7106 83.4301 51.1367 83.4301C50.8276 83.4301 50.5627 83.6084 50.4744 83.8312C50.3861 84.054 50.3861 84.4105 50.3861 84.7224V86.3267H49.459V82.8063H50.342V83.341C50.6952 82.8508 51.1367 82.7617 51.4899 82.7617C51.6223 82.7617 52.0196 82.8063 52.2845 83.0291C52.6377 83.2965 52.6377 83.8312 52.6377 84.1877V86.3712H51.7106V84.5442Z" fill="black"/>
<path d="M54.3158 84.2768C54.3158 83.8312 54.5807 83.4301 55.0222 83.4301C55.1546 83.4301 55.6844 83.4747 55.7286 84.2768H54.3158ZM55.6403 85.2126C55.5961 85.3909 55.4637 85.7028 55.0664 85.7028C54.5366 85.7028 54.3158 85.2572 54.3158 84.8561H56.6557C56.6557 83.8312 56.3025 82.7617 54.978 82.7617C53.8743 82.7617 53.3887 83.653 53.3887 84.6333C53.3887 84.9453 53.4328 85.2572 53.6094 85.6137C53.9626 86.4158 54.8014 86.4603 55.1105 86.4603C56.2584 86.4603 56.5674 85.6137 56.6557 85.3909L55.6403 85.2126Z" fill="black"/>
<path d="M61.1594 84.8111C61.1594 85.123 61.1594 85.3458 60.9828 85.5241C60.8504 85.6578 60.6738 85.7469 60.453 85.7469C60.0998 85.7469 59.9232 85.4795 59.9232 85.2567C59.9232 84.9448 60.2764 84.8557 60.453 84.8111C60.4972 84.8111 60.7179 84.7665 60.7621 84.722C60.9828 84.6774 61.0711 84.6329 61.1594 84.6329V84.8111ZM59.9232 83.8753C59.9674 83.6971 60.0557 83.4297 60.5413 83.4297C61.1594 83.4297 61.1594 83.6971 61.1594 83.9199V84.009C60.9828 84.0981 60.7621 84.1427 60.2764 84.2318C59.7908 84.3209 58.9961 84.4992 58.9961 85.3458C58.9961 85.9697 59.4376 86.3708 60.144 86.3708C60.7179 86.3708 61.0711 86.1034 61.2477 85.8806L61.2919 86.0588C61.336 86.1479 61.336 86.1925 61.3802 86.2371H62.3073C62.1748 85.9251 62.1307 85.7915 62.0865 85.3013C62.0865 85.123 62.0865 84.1427 62.0865 83.9199C62.0865 83.296 62.0866 82.583 60.5855 82.583C59.5259 82.583 59.2168 83.0286 59.0844 83.5634L59.9232 83.8753Z" fill="black"/>
<path d="M62.9688 81.4248H63.8959V86.3266H62.9688V81.4248Z" fill="black"/>
<path d="M64.8672 81.4248H65.7943V86.3266H64.8672V81.4248Z" fill="black"/>
<path d="M70.2094 83.5193H69.5913V84.9453C69.5913 85.4355 69.5913 85.6137 69.8562 85.6137C69.9886 85.6137 70.0769 85.5692 70.2094 85.5246H70.2535L70.3418 86.2376C70.0328 86.3713 69.7237 86.3713 69.5913 86.3713C69.3264 86.3713 68.929 86.2821 68.7966 86.0148C68.6641 85.792 68.6641 85.5692 68.6641 85.0344V83.4748H68.2227V82.7172H68.6641V82.0933L69.5913 81.5586V82.8063H70.2094V83.5193Z" fill="black"/>
<path d="M71.7982 83.2522C72.2397 82.762 72.6812 82.7175 72.8578 82.7175C73.0786 82.7175 73.3876 82.762 73.6967 82.9848C74.094 83.2968 74.0499 83.8761 74.0499 84.2771V86.3715H73.1227V84.4999C73.1227 83.9206 73.1227 83.475 72.5488 83.475C71.7982 83.475 71.7982 84.2326 71.7982 84.5891V86.3715H70.8711V81.4697H71.7982V83.2522Z" fill="black"/>
<path d="M75.5951 84.2768C75.5951 83.8312 75.86 83.4301 76.3015 83.4301C76.4339 83.4301 76.9637 83.4747 77.0079 84.2768H75.5951ZM76.9196 85.2126C76.8754 85.3909 76.743 85.7028 76.3456 85.7028C75.8158 85.7028 75.5951 85.2572 75.5951 84.8561H77.935C77.935 83.8312 77.5818 82.7617 76.2573 82.7617C75.1536 82.7617 74.668 83.653 74.668 84.6333C74.668 84.9453 74.7121 85.2572 74.8887 85.6137C75.2419 86.4158 76.0807 86.4603 76.3898 86.4603C77.5377 86.4603 77.8467 85.6137 77.935 85.3909L76.9196 85.2126Z" fill="black"/>
<path d="M81.556 84.6339C81.556 84.1438 81.6443 83.8764 81.8651 83.6536C82.0417 83.4753 82.2183 83.4753 82.3507 83.4753C82.6598 83.4753 83.1013 83.6981 83.1013 84.5894C83.1013 84.9904 83.013 85.748 82.3507 85.748C81.8651 85.7034 81.556 85.3469 81.556 84.6339ZM80.6289 82.8069V87.6641H81.556V85.9262C81.6885 86.0599 81.9975 86.4164 82.5715 86.4164C83.3662 86.4164 84.0284 85.8371 84.0284 84.5894C84.0284 83.3416 83.322 82.7178 82.5715 82.7178C82.3507 82.7178 81.8651 82.8069 81.5119 83.2971V82.7623H80.6289V82.8069Z" fill="black"/>
<path d="M85.4857 84.2768C85.4857 83.8312 85.7506 83.4301 86.1921 83.4301C86.3246 83.4301 86.8544 83.4747 86.8985 84.2768H85.4857ZM86.8102 85.2126C86.7661 85.3909 86.6336 85.7028 86.2363 85.7028C85.7065 85.7028 85.4857 85.2572 85.4857 84.8561H87.8257C87.8257 83.8312 87.4725 82.7617 86.148 82.7617C85.0442 82.7617 84.5586 83.653 84.5586 84.6333C84.5586 84.9453 84.6027 85.2572 84.7793 85.6137C85.1325 86.4158 85.9714 86.4603 86.2804 86.4603C87.4283 86.4603 87.7374 85.6137 87.8257 85.3909L86.8102 85.2126Z" fill="black"/>
<path d="M89.2377 84.5448C89.2377 83.7873 89.635 83.4753 90.0765 83.4753C90.5622 83.4753 90.9154 83.8318 90.9154 84.5448C90.9154 85.3469 90.4739 85.6589 90.0765 85.6589C89.6792 85.6589 89.2377 85.3024 89.2377 84.5448ZM88.3105 84.5002C88.3105 86.149 89.5467 86.4164 90.1207 86.4164C91.2686 86.4164 91.9308 85.5252 91.9308 84.5448C91.9308 83.6536 91.3569 82.7178 90.1207 82.7178C88.8845 82.7178 88.3105 83.6981 88.3105 84.5002Z" fill="black"/>
<path d="M93.4767 84.6339C93.4767 84.1438 93.565 83.8764 93.7858 83.6536C93.9624 83.4753 94.139 83.4753 94.2714 83.4753C94.5805 83.4753 95.022 83.6981 95.022 84.5894C95.022 84.9904 94.9337 85.748 94.2714 85.748C93.8299 85.7034 93.4767 85.3469 93.4767 84.6339ZM92.5938 82.8069V87.6641H93.5209V85.9262C93.6533 86.0599 93.9624 86.4164 94.5363 86.4164C95.331 86.4164 95.9932 85.8371 95.9932 84.5894C95.9932 83.3416 95.2869 82.7178 94.5363 82.7178C94.3156 82.7178 93.8299 82.8069 93.4767 83.2971V82.7623H92.5938V82.8069Z" fill="black"/>
<path d="M96.6094 81.4248H97.5365V86.3266H96.6094V81.4248Z" fill="black"/>
<path d="M99.0814 84.2768C99.0814 83.8312 99.3463 83.4301 99.7878 83.4301C99.9203 83.4301 100.45 83.4747 100.494 84.2768H99.0814ZM100.406 85.2126C100.362 85.3909 100.229 85.7028 99.832 85.7028C99.3022 85.7028 99.0814 85.2572 99.0814 84.8561H101.421C101.421 83.8312 101.068 82.7617 99.7437 82.7617C98.6399 82.7617 98.1543 83.653 98.1543 84.6333C98.1543 84.9453 98.1984 85.2572 98.375 85.6137C98.7282 86.4158 99.5671 86.4603 99.8761 86.4603C101.024 86.4603 101.333 85.6137 101.421 85.3909L100.406 85.2126Z" fill="black"/>
<path d="M22.541 89.4561H24.9289L25.7691 94.0086L27.0072 89.4561H29.3509L30.5891 93.964L31.4292 89.4561H33.7729L32.0041 97.6239H29.572L28.157 92.4911L26.7419 97.6239H24.354L22.541 89.4561Z" fill="black"/>
<path d="M34.4805 89.4561H36.9568V97.6239H34.4805V89.4561Z" fill="black"/>
<path d="M41.5107 91.2853C42.1298 91.2853 42.6162 91.4639 42.8815 91.7763C43.1468 92.0887 43.2795 92.669 43.2795 93.5616C43.2795 94.2311 43.2353 94.6774 43.1026 94.9899C42.97 95.3023 42.7931 95.4808 42.572 95.6147C42.3509 95.7486 41.9971 95.7933 41.4665 95.7933H40.8474V91.33H41.5107V91.2853ZM38.3711 97.6232H42.0856C42.5278 97.6232 43.0142 97.534 43.589 97.4001C43.987 97.3108 44.385 97.0876 44.6945 96.7306C45.0483 96.4181 45.3136 96.0164 45.4905 95.5255C45.6674 95.0345 45.8 94.365 45.8 93.517C45.8 92.9814 45.7116 92.4458 45.6232 91.9548C45.4905 91.4639 45.2694 91.0175 45.0041 90.6605C44.6945 90.3034 44.3408 89.991 43.8986 89.8124C43.4564 89.5893 42.8373 89.5 42.1298 89.5H38.4153V97.6232H38.3711Z" fill="black"/>
<path d="M46.7727 89.4561H53.4499V91.1967H49.249V92.4911H53.1404V94.1425H49.249V95.7493H53.5384V97.5793H46.7285V89.4561H46.7727Z" fill="black"/>
<path d="M58.4023 89.4561H60.8787V95.6154H64.77V97.6239H58.4023V89.4561Z" fill="black"/>
<path d="M65.7434 89.4561H72.4207V91.1967H68.2198V92.4911H72.1111V94.1425H68.2198V95.7493H72.5091V97.5793H65.6992V89.4561H65.7434Z" fill="black"/>
<path d="M73.8359 89.4561H76.3123V97.6239H73.8359V89.4561Z" fill="black"/>
<path d="M77.2852 94.9011L79.673 94.7672C79.7173 95.1689 79.8057 95.4367 79.9826 95.6599C80.2479 95.9723 80.6016 96.1508 81.0881 96.1508C81.4418 96.1508 81.7072 96.0616 81.9283 95.883C82.1051 95.7045 82.1936 95.526 82.1936 95.3028C82.1936 95.0796 82.1051 94.9011 81.9283 94.7226C81.7514 94.5441 81.3092 94.4102 80.6459 94.2316C79.5404 93.9638 78.7886 93.6514 78.3022 93.2497C77.8158 92.848 77.5947 92.3124 77.5947 91.6875C77.5947 91.2858 77.7274 90.8841 77.9485 90.4824C78.1696 90.1254 78.5675 89.8129 79.054 89.5898C79.5404 89.3666 80.2037 89.2773 81.0439 89.2773C82.0609 89.2773 82.8569 89.4559 83.3875 89.8576C83.9181 90.2593 84.2719 90.8841 84.3604 91.7322L82.0167 91.8661C81.9725 91.509 81.8398 91.2412 81.6187 91.0627C81.3976 90.8841 81.1323 90.7949 80.7785 90.7949C80.469 90.7949 80.2479 90.8395 80.1152 90.9734C79.9826 91.1073 79.8941 91.2412 79.8941 91.4197C79.8941 91.5536 79.9383 91.6875 80.071 91.7768C80.2037 91.8661 80.469 92 80.9112 92.0892C82.0167 92.3124 82.7684 92.5802 83.2549 92.8034C83.7413 93.0265 84.0508 93.339 84.2719 93.696C84.493 94.0531 84.5815 94.4548 84.5815 94.9011C84.5815 95.4367 84.4488 95.9277 84.1393 96.3294C83.8739 96.7757 83.4317 97.0881 82.9453 97.3559C82.4147 97.5791 81.7956 97.713 80.9996 97.713C79.6288 97.713 78.656 97.4452 78.1696 96.9096C77.6389 96.4186 77.3294 95.7491 77.2852 94.9011Z" fill="black"/>
<path d="M90.7277 89.4561H93.2041V94.3211C93.2041 94.812 93.1156 95.2584 92.983 95.7047C92.8503 96.151 92.585 96.5081 92.2754 96.8205C91.9659 97.1329 91.6121 97.3561 91.2584 97.49C90.7719 97.6685 90.1971 97.7578 89.5338 97.7578C89.1358 97.7578 88.6936 97.7132 88.2514 97.6685C87.765 97.6239 87.4112 97.49 87.1017 97.3561C86.7921 97.1776 86.4826 96.9544 86.2615 96.642C85.9962 96.3296 85.8193 96.0171 85.7309 95.7047C85.554 95.1691 85.5098 94.7228 85.5098 94.3211V89.4561H87.9861V94.455C87.9861 94.9013 88.1188 95.2584 88.3399 95.4815C88.6052 95.7493 88.9147 95.8386 89.3569 95.8386C89.7991 95.8386 90.1086 95.7047 90.374 95.4815C90.5951 95.2137 90.7277 94.9013 90.7277 94.455V89.4561Z" fill="black"/>
<path d="M97.0076 91.1072H98.1131C98.5553 91.1072 98.8648 91.1965 99.0417 91.3304C99.2186 91.4643 99.307 91.6874 99.307 91.9552C99.307 92.1338 99.2628 92.3123 99.1301 92.4462C99.0417 92.5801 98.909 92.6694 98.7321 92.714C98.4226 92.8033 98.2015 92.8033 98.0688 92.8033H97.0076V91.1072ZM97.0076 97.6236V94.3208H97.2287C97.4498 94.3208 97.6709 94.3654 97.8477 94.4993C97.9804 94.5886 98.1131 94.8118 98.2899 95.1242L99.6165 97.6236H102.447L101.253 95.2581C101.208 95.1242 101.076 94.9903 100.899 94.7671C100.722 94.5439 100.589 94.41 100.501 94.3208C100.368 94.2315 100.147 94.1423 99.8376 94.0084C100.191 93.9191 100.501 93.8298 100.722 93.6959C101.076 93.4728 101.297 93.205 101.518 92.8925C101.695 92.5801 101.783 92.1784 101.783 91.7321C101.783 91.1965 101.651 90.7501 101.43 90.3931C101.164 90.036 100.855 89.7682 100.457 89.6343C100.059 89.5004 99.4397 89.4111 98.6879 89.4111H94.5312V97.579H97.0076V97.6236Z" fill="black"/>
<path d="M103.154 89.4561H109.831V91.1967H105.63V92.4911H109.521V94.1425H105.63V95.7493H109.919V97.5793H103.109V89.4561H103.154Z" fill="black"/>
<path d="M91.5084 46.9206C89.0291 44.5224 86.2398 42.3327 83.3473 40.3516L76.4258 73.9268H101.219L102.975 66.5236H87.5828L91.5084 46.9206Z" fill="#00695F"/>
<path d="M71.4678 34.1982L61.1372 64.3326H61.0339L61.3438 39.4118H51.0133L40.2695 64.3326L40.9926 39.4118H31.5918V73.9255H42.8521L54.4224 48.3791H54.5257L54.2158 73.9255H66.4058L80.0422 38.2648C77.3562 36.7007 74.4637 35.3452 71.4678 34.1982Z" fill="#00695F"/>
<path d="M82.3144 32.2186L86.24 22H75.7028L73.6367 27.8392C76.6326 29.0904 79.5251 30.5502 82.3144 32.2186Z" fill="#D80A30"/>
<path d="M92.8506 40.5595L96.5696 22.1035H87.1688L84.6895 33.8861C87.6853 35.763 90.3713 38.057 92.8506 40.5595Z" fill="#D80A30"/>
<path d="M60.7231 24.3978C41.095 21.4783 22.3967 28.9858 10 42.6453C22.8099 31.2797 40.3719 25.4405 58.657 28.1516C86.343 32.2181 106.901 54.7407 110 81.5383C109.897 53.2809 89.3388 28.673 60.7231 24.3978Z" fill="#F39800"/>
</svg>
