<svg width="120" height="120" viewBox="0 0 120 120" fill="none" xmlns="http://www.w3.org/2000/svg">
<rect width="120" height="120" fill="white"/>
<path d="M57.7768 36.5113L54.5373 37.7572L57.7768 39.0388L59.0227 43.7378L60.2687 39.0388L63.5081 37.7572L60.2687 36.5113L59.0227 31.8123L57.7768 36.5113Z" fill="#A37B51"/>
<path fill-rule="evenodd" clip-rule="evenodd" d="M62.4758 21.3463C62.4758 22.1691 62.1788 22.9225 61.6863 23.5052C64.7746 26.3463 69.9462 32.0983 71.4467 39.822C74.4497 38.5321 77.407 37.9611 79.4208 37.7084C79.4279 36.3186 80.5568 35.1942 81.9483 35.1942C83.3442 35.1942 84.4757 36.3258 84.4757 37.7217C84.4757 38.7567 83.8536 39.6464 82.9629 40.0373C86.2139 51.7902 80.3152 58.7274 77.1424 61.466C79.8123 62.4271 81.9839 63.5663 83.6926 64.8834C83.835 64.9902 83.8706 65.1326 83.835 65.3106C83.7638 65.453 83.6214 65.5598 83.479 65.5598H83.301L83.1942 65.5242C77.6764 63.1035 68.67 61.6795 59.0939 61.6795C49.5179 61.6795 40.5114 63.1035 34.9936 65.5242L34.958 65.5598H34.8512C34.6732 65.5598 34.5308 65.453 34.4952 65.3106C34.4596 65.1682 34.4953 64.9902 34.6376 64.8834C36.3108 63.5663 38.5179 62.4271 41.1878 61.466C38.0186 58.7305 32.1297 51.8059 35.3564 40.077C34.4148 39.7094 33.7477 38.7934 33.7477 37.7217C33.7477 36.3258 34.8793 35.1942 36.2752 35.1942C37.6628 35.1942 38.7893 36.3125 38.8026 37.697C40.8209 37.9438 43.8346 38.5123 46.8836 39.822C48.3776 32.1314 53.5115 26.3955 56.6042 23.5419C56.0929 22.9543 55.7832 22.1864 55.7832 21.3463C55.7832 19.4982 57.2814 18 59.1295 18C60.9776 18 62.4758 19.4982 62.4758 21.3463ZM66.9612 59.1164C69.8803 59.4724 72.6214 60.042 75.1489 60.8252C84.1554 53.0647 80.3463 42.2783 79.8123 40.8899C76.7865 41.0679 74.0809 41.6731 71.767 42.6343C72.123 48.0809 70.5211 53.6342 66.9612 59.1164ZM38.3755 40.8899C37.8415 42.2783 34.0325 53.0647 43.0389 60.8252C45.5664 60.0776 48.3075 59.4724 51.2266 59.1164C47.6667 53.6342 46.0648 48.0809 46.4564 42.6343C44.1069 41.6375 41.4014 41.0679 38.3755 40.8899ZM48.7703 43.7734C48.5923 48.6148 50.1587 53.8478 53.2557 58.9029C54.3949 58.7961 55.5697 58.7248 56.7088 58.6892C56.6732 55.4142 55.7833 47.9385 48.7703 43.7734ZM61.5146 58.6892C62.6894 58.7248 63.8285 58.7961 64.9677 58.9029C68.0648 53.8478 69.5955 48.6148 69.4531 43.7734C62.4046 47.9385 61.5146 55.4142 61.5146 58.6892ZM59.7703 58.6181C59.5567 50.466 62.725 44.521 69.1328 40.8899C68.136 35.3009 64.7541 30.2459 59.0939 25.9029C53.4337 30.2459 50.0519 35.3009 49.0551 40.8899C55.4985 44.521 58.6311 50.5016 58.4175 58.6181H59.7703Z" fill="#A37B51"/>
<path d="M40.5826 31.0647L43.0389 30.068L44.0357 26.4725L44.9968 30.068L47.4532 31.0647L44.9968 32.0259L44.0357 35.6213L43.0389 32.0259L40.5826 31.0647Z" fill="#A37B51"/>
<path fill-rule="evenodd" clip-rule="evenodd" d="M56.2815 82.7541V83.1101H59.8413V82.7185C59.7167 82.6829 59.6099 82.6562 59.5209 82.6339C59.432 82.6117 59.3608 82.5939 59.3074 82.5761C59.165 82.5405 59.0938 82.5049 59.0938 82.5049C59.0226 82.4693 58.9158 82.3625 58.809 82.1845L55.7475 74.5308L55.3559 74.3884L52.2588 81.7573C52.152 82.0421 52.0096 82.2913 51.8317 82.4337C51.6537 82.5761 51.4401 82.6829 51.1909 82.6829V83.1457H54.11V82.6829C53.3624 82.6829 52.9708 82.4693 52.9708 82.0777C52.9708 81.9354 52.9708 81.8285 53.0064 81.7573L53.4336 80.4402C53.5048 80.2266 53.7184 80.1198 54.0388 80.1198H55.9611C56.3883 80.1198 56.6375 80.2266 56.7443 80.4402L57.3139 82.0065C57.3192 82.0226 57.3246 82.0379 57.3298 82.0525L57.3365 82.0708L57.3418 82.0854C57.366 82.1514 57.3851 82.2036 57.3851 82.2557C57.4207 82.3269 57.4206 82.3625 57.4206 82.3981C57.4206 82.4693 57.385 82.5049 57.3139 82.5405C57.2427 82.5761 57.1359 82.6117 57.0291 82.6473C56.9223 82.6829 56.8155 82.7185 56.6731 82.7185C56.5968 82.7185 56.5205 82.7287 56.4496 82.7382C56.3883 82.7464 56.331 82.7541 56.2815 82.7541ZM54.0388 78.945L55.1779 76.2395L56.2459 78.9806C56.3527 79.2298 56.3883 79.3722 56.3883 79.4078C56.3883 79.5146 56.2459 79.5502 55.9967 79.5502H54.3592C54.0388 79.5502 53.8964 79.5146 53.8964 79.3722C53.8964 79.301 53.932 79.1586 54.0388 78.945Z" fill="#A37B51"/>
<path d="M35.2071 83.2881L34.2815 82.6117C33.9967 82.8253 33.6407 83.0033 33.2492 83.1457C32.8576 83.288 32.4304 83.3593 32.0032 83.3593C31.398 83.3593 30.8641 83.2525 30.3657 83.0389C29.8673 82.8253 29.4401 82.5049 29.0841 82.1133C28.7281 81.7217 28.4433 81.2589 28.2653 80.725C28.0518 80.191 27.9806 79.657 27.9806 79.0518C27.9806 78.4466 28.0874 77.8771 28.301 77.3431C28.5145 76.7735 28.7993 76.3107 29.1553 75.8835C29.5113 75.4564 29.9741 75.1004 30.4725 74.8512C30.9708 74.602 31.5404 74.4596 32.1456 74.4596C32.5016 74.4596 32.8576 74.5308 33.2136 74.6376C33.5696 74.78 33.8899 74.9224 34.2103 75.1004C34.5307 74.78 34.8155 74.602 35.1359 74.5664C35.4207 75.2784 35.5631 76.2751 35.5631 77.4855H35.1359C34.9579 76.7379 34.6019 76.1327 34.1391 75.6343C33.6407 75.1716 33.0356 74.9224 32.3236 74.9224C31.7896 74.9224 31.3624 75.0292 31.0064 75.2428C30.6505 75.4563 30.3657 75.7411 30.1165 76.1327C29.9029 76.4887 29.7249 76.9159 29.6181 77.3787C29.5113 77.8415 29.4757 78.3398 29.4757 78.8382C29.4757 79.3722 29.5469 79.9062 29.6537 80.369C29.7605 80.8317 29.9385 81.2589 30.1877 81.6149C30.4369 81.9709 30.7217 82.2557 31.0776 82.4693C31.4336 82.6829 31.8608 82.7897 32.3236 82.7897C32.6084 82.7897 32.8576 82.7541 33.1068 82.6829C33.356 82.6117 33.5696 82.5049 33.7475 82.3625C33.9255 82.2201 34.0679 82.0421 34.1747 81.7929C34.2815 81.5793 34.3527 81.2945 34.3527 80.9741C34.3527 80.0842 33.9255 79.6214 33.0356 79.6214V79.2298H36.7022V79.6214C35.9547 79.6214 35.5631 79.9418 35.5631 80.5825V83.2524H35.2071V83.2881Z" fill="#A37B51"/>
<path fill-rule="evenodd" clip-rule="evenodd" d="M19.1384 82.2778C19.1654 82.1756 19.1877 82.091 19.1877 82.0065L18.8673 81.8997C18.7605 82.2913 18.6181 82.4693 18.4045 82.4693C18.2265 82.4693 18.0841 82.3981 17.9773 82.2557C17.8594 82.1377 17.7903 81.9953 17.7093 81.8285L17.7091 81.8281C17.6924 81.7937 17.6752 81.7582 17.657 81.7217C17.5502 81.5081 17.479 81.2945 17.4078 81.0453C17.3366 80.8318 17.2654 80.6182 17.2298 80.4402C17.1586 80.1554 16.9806 79.8706 16.6958 79.5858C16.411 79.2654 16.0906 79.0518 15.6634 78.8382V78.8026C16.0194 78.7314 16.3042 78.6246 16.589 78.5178C16.8738 78.411 17.0874 78.2686 17.301 78.0906C17.4789 77.9127 17.657 77.7347 17.7637 77.4855C17.8705 77.2719 17.9417 76.9871 17.9417 76.7023C17.9417 76.3819 17.8705 76.0971 17.7282 75.8479C17.5858 75.5987 17.4078 75.3496 17.1586 75.1716C16.9094 74.9936 16.6246 74.8512 16.3042 74.7444C15.9838 74.6376 15.6278 74.5664 15.2718 74.5664H14.4887C14.2752 74.602 14.0616 74.602 13.8837 74.602C13.7057 74.6376 13.5275 74.6376 13.3139 74.6376H11V75.0292C11.8188 75.0292 12.2104 75.314 12.2104 75.8479V81.9353C12.2104 82.5049 11.8188 82.7897 11.0712 82.7897V83.1813H14.7023V82.7897C13.9191 82.7897 13.5275 82.5049 13.5275 81.9353V79.123C13.5631 79.0162 13.6699 78.9806 13.9191 78.9806H14.3107C14.6311 78.9806 14.8803 79.0874 15.0938 79.301C15.3074 79.5146 15.4854 79.7638 15.6278 80.0842C15.7702 80.4046 15.877 80.7605 15.9838 81.1165C16.0906 81.4725 16.1974 81.8285 16.3042 82.1489C16.4466 82.5405 16.6246 82.8253 16.8738 83.0033C17.123 83.1813 17.5146 83.2524 18.0485 83.2524C18.2621 83.2524 18.4045 83.2169 18.5469 83.1101C18.6893 83.0389 18.7961 82.9321 18.9029 82.7897C19.0097 82.6473 19.0809 82.5049 19.1165 82.3625C19.1239 82.3328 19.1313 82.3047 19.1384 82.2778ZM15.3074 78.4466C15.0583 78.4822 14.8091 78.4822 14.5599 78.4822H13.9191C13.7411 78.4822 13.6343 78.4466 13.5987 78.3042V75.8479C13.5987 75.3851 13.7767 75.136 14.0971 75.136H14.7023C14.9159 75.136 15.1294 75.1716 15.343 75.2072C15.5566 75.2428 15.7702 75.3496 15.9482 75.4564C16.1618 75.5632 16.3042 75.7411 16.411 75.9547C16.5178 76.1683 16.589 76.4531 16.589 76.7735C16.589 77.1651 16.5178 77.4855 16.411 77.6991C16.3042 77.9127 16.1262 78.0907 15.9482 78.1975C15.7702 78.3398 15.5566 78.411 15.3074 78.4466Z" fill="#A37B51"/>
<path d="M19.7217 82.7541V83.2169H26.6634L27.0194 80.6538L26.6634 80.547C26.6266 80.6389 26.5922 80.7285 26.559 80.815C26.4635 81.0636 26.3774 81.2877 26.2718 81.4725C26.1294 81.7573 25.987 81.9709 25.7734 82.1489C25.5598 82.3269 25.2751 82.4693 24.9547 82.5405C24.5987 82.6117 24.1715 82.6473 23.6375 82.6473H23.2459C22.5696 82.6473 22.2136 82.3981 22.2136 81.8997V79.4434C22.2136 79.1586 22.4272 79.0162 22.8188 79.0162H22.9612C23.2458 79.0162 23.4952 79.0162 23.6731 79.0518C23.8511 79.0518 23.9935 79.123 24.1359 79.2298C24.2427 79.3366 24.3495 79.479 24.4207 79.657C24.4919 79.835 24.5275 80.0842 24.5631 80.4046H25.0259V77.0583H24.5631C24.5275 77.3787 24.4919 77.6279 24.3851 77.8059C24.2783 78.0195 24.1715 78.1262 24.0291 78.233C23.8867 78.3398 23.7088 78.3754 23.5308 78.411C23.3528 78.4466 23.1393 78.4466 22.9257 78.4466H22.4984C22.2848 78.4466 22.178 78.3042 22.178 78.0551V75.7411C22.178 75.3496 22.4984 75.1716 23.1392 75.1716H23.4951C23.8154 75.1716 24.136 75.1716 24.4207 75.2072C24.7055 75.2072 24.9547 75.3139 25.1683 75.4207C25.3819 75.5275 25.5955 75.7411 25.7378 75.9903C25.9158 76.2395 26.0226 76.5955 26.0938 77.0583L26.4854 77.0227L26.3786 74.602H19.6149V74.9936C20.4692 74.9936 20.8964 75.3496 20.8964 76.0615V81.8997C20.8964 82.4693 20.5048 82.7541 19.7217 82.7541Z" fill="#A37B51"/>
<path d="M37.343 82.7541V83.1457H41.0809V82.7541C40.2621 82.7541 39.8349 82.4693 39.8349 81.8641V76.1327C39.8349 75.3851 40.2265 74.9936 41.0097 74.9936V74.602H37.2718V74.9936C38.1262 74.9936 38.5534 75.3851 38.5534 76.1327V81.8641C38.5534 82.4693 38.1618 82.7541 37.343 82.7541Z" fill="#A37B51"/>
<path d="M43.8932 76.0259V81.2233C43.8932 82.2557 44.3203 82.7541 45.2103 82.7541V83.1457H42.1132V82.7541C42.8252 82.7541 43.1812 82.2557 43.1812 81.2233V75.5276C43.1812 75.1716 42.754 74.9936 41.8996 74.9936V74.602H44.2491L49.2685 81.0453V76.4175C49.2685 75.4564 48.8414 74.9936 47.9514 74.9936V74.602H51.0485V74.9936C50.2653 74.9936 49.8737 75.4564 49.8737 76.4175V83.2169L49.5889 83.2881L43.8932 76.0259Z" fill="#A37B51"/>
<path d="M71.6245 80.6894C71.5533 81.1521 71.4109 81.5081 71.1973 81.8641C70.9837 82.1845 70.7345 82.4693 70.4142 82.6829C70.0938 82.8965 69.7734 83.0745 69.3818 83.1813C68.9902 83.2881 68.5986 83.3593 68.207 83.3593C67.6019 83.3593 67.0323 83.2525 66.5695 83.0389C66.0711 82.8253 65.6439 82.5049 65.2879 82.1133C64.932 81.7217 64.6828 81.2589 64.4692 80.725C64.2912 80.191 64.1844 79.6214 64.1844 79.0162C64.1844 78.3398 64.2912 77.7347 64.5048 77.1651C64.7184 76.5955 65.0032 76.1327 65.3591 75.7056C65.7151 75.314 66.1423 74.9936 66.6407 74.78C67.1391 74.5664 67.6375 74.4596 68.207 74.4596C68.8834 74.4596 69.4886 74.6732 70.0582 75.0648C70.343 74.7444 70.6633 74.5664 70.9837 74.5308C71.0193 74.5664 71.0549 74.6376 71.0905 74.8156C71.1038 74.8818 71.122 74.953 71.1414 75.0291C71.1742 75.1575 71.2106 75.2999 71.2329 75.4564C71.2685 75.7055 71.3041 76.0259 71.3397 76.3819C71.3753 76.7379 71.3753 77.0939 71.3753 77.4499H70.9481C70.7345 76.6311 70.4141 75.9903 69.9158 75.5987C69.4174 75.1716 68.8478 74.958 68.207 74.958C67.7442 74.958 67.3171 75.0648 66.9967 75.2428C66.6763 75.4563 66.3915 75.7055 66.1779 76.0259C65.9643 76.3463 65.8219 76.7379 65.7151 77.1651C65.6083 77.5923 65.5727 78.0194 65.5727 78.4466C65.5727 79.0518 65.6439 79.6214 65.7507 80.1554C65.8575 80.6894 66.0355 81.1165 66.2491 81.5081C66.4983 81.8997 66.7831 82.1845 67.1391 82.3981C67.4951 82.6117 67.9578 82.7185 68.4562 82.7185C68.7766 82.7185 69.0614 82.6829 69.3462 82.6117C69.5954 82.5405 69.8446 82.4337 70.0582 82.2557C70.2718 82.0777 70.4854 81.8641 70.6633 81.5793C70.8413 81.2945 71.0193 80.9386 71.1973 80.5114L71.6245 80.6894Z" fill="#A37B51"/>
<path d="M72.7281 82.7541V83.1101H79.385L79.7766 80.4402L79.4206 80.4046C79.1002 81.4369 78.7798 82.0421 78.3883 82.2557C78.1747 82.3625 77.9255 82.4337 77.6407 82.5049C77.3559 82.5405 76.9999 82.5761 76.6083 82.5761H76.0031C75.4336 82.5761 75.1488 82.3981 75.1488 82.0421V75.9547C75.1488 75.2784 75.5403 74.958 76.3235 74.958V74.5664H72.5857V74.958C73.44 74.958 73.8672 75.3139 73.8672 75.9547V82.0421C73.8672 82.5049 73.4756 82.7541 72.7281 82.7541Z" fill="#A37B51"/>
<path d="M80.2394 83.1457V82.7541C81.0581 82.7541 81.4497 82.4693 81.4497 81.8641V76.1327C81.4497 75.3851 81.0226 74.9936 80.1682 74.9936V74.602H83.906V74.9936C83.1229 74.9936 82.7313 75.3851 82.7313 76.1327V81.8641C82.7313 82.4693 83.1585 82.7541 83.9772 82.7541V83.1457H80.2394Z" fill="#A37B51"/>
<path d="M86.7539 81.2233V76.0259L92.4497 83.2881L92.7345 83.2169V76.4175C92.7345 75.4564 93.1261 74.9936 93.9093 74.9936V74.602H90.8122V74.9936C91.7022 74.9936 92.1293 75.4564 92.1293 76.4175V81.0453L87.1099 74.602H84.7604V74.9936C85.6148 74.9936 86.042 75.1716 86.042 75.5276V81.2233C86.042 82.2557 85.686 82.7541 84.974 82.7541V83.1457H88.0711V82.7541C87.1811 82.7541 86.7539 82.2557 86.7539 81.2233Z" fill="#A37B51"/>
<path d="M94.7992 83.1457V82.7541C95.618 82.7541 96.0096 82.4693 96.0096 81.8641V76.1327C96.0096 75.3851 95.5824 74.9936 94.728 74.9936V74.602H98.4659V74.9936C97.6827 74.9936 97.2911 75.3851 97.2911 76.1327V81.8641C97.2911 82.4693 97.7183 82.7541 98.5371 82.7541V83.1457H94.7992Z" fill="#A37B51"/>
<path d="M106.76 81.8641C106.974 81.5081 107.116 81.1521 107.188 80.6894L106.76 80.5114C106.582 80.9386 106.404 81.2945 106.226 81.5793C106.048 81.8641 105.835 82.0777 105.621 82.2557C105.408 82.4337 105.158 82.5405 104.909 82.6117C104.624 82.6829 104.34 82.7185 104.019 82.7185C103.521 82.7185 103.058 82.6117 102.702 82.3981C102.346 82.1845 102.061 81.8997 101.812 81.5081C101.599 81.1165 101.421 80.6894 101.314 80.1554C101.207 79.6214 101.136 79.0518 101.136 78.4466C101.136 78.0194 101.171 77.5923 101.278 77.1651C101.385 76.7379 101.527 76.3463 101.741 76.0259C101.955 75.7055 102.239 75.4563 102.56 75.2428C102.88 75.0648 103.307 74.958 103.77 74.958C104.411 74.958 104.98 75.1716 105.479 75.5987C105.977 75.9903 106.298 76.6311 106.511 77.4499H106.938C106.938 77.094 106.938 76.7378 106.903 76.3819C106.867 76.0259 106.832 75.7055 106.796 75.4564C106.774 75.3 106.737 75.1577 106.705 75.0294C106.685 74.9533 106.667 74.8818 106.654 74.8156C106.618 74.6376 106.582 74.5664 106.547 74.5308C106.226 74.5664 105.906 74.7444 105.621 75.0648C105.052 74.6732 104.446 74.4596 103.77 74.4596C103.2 74.4596 102.702 74.5664 102.204 74.78C101.705 74.9936 101.278 75.314 100.922 75.7056C100.566 76.1327 100.281 76.5955 100.068 77.1651C99.8542 77.7347 99.7474 78.3398 99.7474 79.0162C99.7474 79.6214 99.8542 80.191 100.032 80.725C100.246 81.2589 100.495 81.7217 100.851 82.1133C101.207 82.5049 101.67 82.8253 102.133 83.0389C102.595 83.2525 103.165 83.3593 103.77 83.3593C104.162 83.3593 104.553 83.2881 104.945 83.1813C105.336 83.0745 105.657 82.8965 105.977 82.6829C106.298 82.4693 106.547 82.1845 106.76 81.8641Z" fill="#A37B51"/>
<path d="M75.1489 30.068L77.6052 31.0647L75.1489 32.0259L74.1521 35.6213L73.191 32.0259L70.7347 31.0647L73.191 30.068L74.1521 26.4725L75.1489 30.068Z" fill="#A37B51"/>
<path d="M27.1259 94.5016C28.5855 93.9677 29.9382 93.0421 30.7926 91.9029C30.7214 91.7249 30.579 91.4758 30.4722 91.369C29.689 92.5081 28.4075 93.3981 26.9835 93.932V90.5858C26.9835 90.4234 26.9986 90.2912 27.0092 90.1992C27.0148 90.15 27.0191 90.1122 27.0191 90.0874L26.3783 90.0162C26.4139 90.2298 26.4139 90.3722 26.4139 90.5858V94.2168C26.4139 94.2524 26.4139 94.288 26.3783 94.3236L26.9123 94.644C26.9479 94.6084 27.0547 94.5372 27.1259 94.5016Z" fill="#A37B51"/>
<path d="M33.7473 91.6181L33.9965 91.1554C34.3168 91.2621 35.1 91.6181 35.4204 91.8317L35.1356 92.3301C34.7796 92.0453 34.0677 91.7249 33.7473 91.6181Z" fill="#A37B51"/>
<path d="M38.9803 91.1554C38.1259 92.6861 36.5596 93.8609 34.8864 94.5728C34.8627 94.5847 34.835 94.5966 34.8073 94.6084C34.752 94.6322 34.6965 94.6559 34.6728 94.6796L34.2812 94.11C36.168 93.5405 37.8767 92.1521 38.6243 90.5858L38.9803 91.1554Z" fill="#A37B51"/>
<path d="M34.4236 90.2298L34.6372 89.767C34.9932 89.9094 35.7052 90.2298 36.0612 90.4434L35.812 90.9062C35.5272 90.6926 34.7796 90.3722 34.4236 90.2298Z" fill="#A37B51"/>
<path d="M38.8379 90.0518L38.5175 90.2654C38.3395 90.0162 38.0903 89.6958 37.8411 89.4822L38.1259 89.2686C38.3751 89.4822 38.6955 89.8382 38.8379 90.0518Z" fill="#A37B51"/>
<path d="M39.4786 89.6958L39.1939 89.9094C39.0515 89.6602 38.7667 89.3754 38.5175 89.1618L38.8023 88.9838C39.0159 89.1262 39.3006 89.4466 39.4786 89.6958Z" fill="#A37B51"/>
<path d="M46.6696 92.5081V91.9385H41.8282V92.5081H46.6696Z" fill="#A37B51"/>
<path d="M54.7861 90.9774V91.5825C54.7327 91.5825 54.6526 91.5736 54.5725 91.5647C54.4924 91.5558 54.4123 91.5469 54.3589 91.5469H52.7213C52.6501 93.0777 52.2586 93.8965 50.9058 94.7508C50.797 94.642 50.6467 94.5333 50.5183 94.4403C50.4786 94.4116 50.441 94.3844 50.4074 94.3592C51.689 93.6117 52.045 92.8641 52.1518 91.5469H50.265C50.1226 91.5469 49.909 91.5469 49.8022 91.5825V90.9774H52.1874V90.7282C52.1874 90.2654 52.1874 89.6602 52.1518 89.5178L52.7925 89.5534C52.7569 89.6246 52.7569 89.8381 52.7569 90.6564V90.9418H54.3945C54.4765 90.9964 54.6005 90.9881 54.702 90.9813C54.7326 90.9793 54.7613 90.9774 54.7861 90.9774Z" fill="#A37B51"/>
<path d="M62.1906 90.9062L62.2618 90.7994L61.8346 90.4434L61.7634 90.479H60.0547L60.375 89.945C60.4462 89.8382 60.5174 89.7314 60.553 89.6602L59.9479 89.4822C59.6987 90.301 58.6307 91.6181 57.7763 92.2589C57.9543 92.3657 58.1324 92.4725 58.2747 92.6149C58.8087 92.1877 59.3071 91.6181 59.7343 90.9774H61.5498C61.0514 92.4013 59.7699 93.7896 58.2035 94.5372C58.3459 94.644 58.5595 94.822 58.6663 94.9288C60.4462 94.0389 61.5498 92.4725 62.1906 90.9062Z" fill="#A37B51"/>
<path d="M66.0352 92.2945V89.6958L66.6404 89.767C66.6048 89.9094 66.6048 90.0518 66.6048 90.301V92.7573H65.9996C65.9996 92.7107 66.0064 92.6505 66.0141 92.5827C66.0239 92.4951 66.0352 92.3948 66.0352 92.2945Z" fill="#A37B51"/>
<path d="M66.4624 94.5372C67.8152 94.0388 68.5271 93.1489 68.5271 91.5825V90.1942C68.5271 90.0162 68.5271 89.8738 68.4915 89.6602L69.1323 89.6958C69.0967 89.8026 69.0967 89.9806 69.0967 90.2298V91.6537C69.0967 93.2201 68.4915 94.3236 66.9964 95C66.854 94.8576 66.6048 94.644 66.4624 94.5372Z" fill="#A37B51"/>
<path d="M77.6048 94.1456V93.5405H72.3718V94.1456H77.6048Z" fill="#A37B51"/>
<path d="M76.7444 91.0683C76.814 91.0765 76.8789 91.0841 76.9284 91.0841V90.479C76.8217 90.5146 76.6437 90.5146 76.5014 90.5146H73.5465C73.4753 90.5146 73.3864 90.5057 73.2974 90.4968C73.2084 90.4879 73.1194 90.479 73.0482 90.479V91.0841C73.1905 91.0486 73.404 91.0486 73.5464 91.0486H76.5012C76.5775 91.0486 76.6641 91.0588 76.7444 91.0683Z" fill="#A37B51"/>
<path d="M80.4527 91.4045L80.9511 91.191C81.1291 91.4402 81.4138 92.0097 81.5562 92.5081L81.0223 92.7217C80.9511 92.2945 80.6307 91.6181 80.4527 91.4045Z" fill="#A37B51"/>
<path d="M81.3782 94.5728C83.0158 93.7897 83.7278 92.3657 83.9769 91.1198C84.0125 91.0486 84.0125 90.9418 84.0125 90.8706L84.6177 91.0841C84.5999 91.1198 84.5821 91.1642 84.5643 91.2087C84.5466 91.2532 84.5287 91.2978 84.5109 91.3333C84.1549 92.7217 83.3718 94.1812 81.8766 94.9644C81.7698 94.8576 81.5562 94.6796 81.3782 94.5728Z" fill="#A37B51"/>
<path d="M81.663 91.013L82.1614 90.7994C82.3394 91.0486 82.6242 91.6181 82.7666 92.1165L82.2682 92.3301C82.1614 91.9029 81.841 91.2266 81.663 91.013Z" fill="#A37B51"/>
<path d="M92.307 90.9062L92.3782 90.7994L91.9511 90.4434L91.8799 90.479H90.1711L90.4915 89.945C90.5627 89.8382 90.6339 89.7314 90.6695 89.6602L90.0643 89.4822C89.8151 90.301 88.7472 91.6181 87.8928 92.2589C88.0708 92.3657 88.2488 92.4725 88.3912 92.6149C88.9252 92.1877 89.4235 91.6181 89.8507 90.9774H91.6662C91.1679 92.4013 89.8863 93.7896 88.32 94.5372C88.4624 94.644 88.676 94.822 88.7828 94.9288C90.5627 94.0389 91.6663 92.4725 92.307 90.9062Z" fill="#A37B51"/>
</svg>
