<svg width="20" height="15" viewBox="0 0 20 15" fill="none" xmlns="http://www.w3.org/2000/svg">
<path d="M1.15578 15C5.82915 13.25 8.74372 9.45 8.74372 5.15C8.74372 2.1 6.93467 0 4.22111 0C1.80905 0 0 1.7 0 3.95C0 5.7 1.05528 7.05 2.71357 7.5C3.96985 7.85 3.96985 7.85 4.17085 8.05C4.37186 8.25 4.52261 8.65 4.52261 9C4.52261 10.7 2.96482 12.4 0.251256 13.65L1.15578 15ZM12.4121 15C17.0854 13.25 20 9.45 20 5.15C20 2.05 18.191 0 15.4774 0C13.0653 0 11.2563 1.7 11.2563 3.95C11.2563 5.7 12.3116 7.05 13.9698 7.5C15.2261 7.85 15.2261 7.85 15.4271 8.05C15.6281 8.25 15.7789 8.65 15.7789 9C15.7789 10.7 14.2211 12.4 11.5075 13.65L12.4121 15Z" fill="#1A1A1A"/>
</svg>
