<svg width="80" height="80" viewBox="0 0 80 80" fill="none" xmlns="http://www.w3.org/2000/svg">
<rect width="80" height="80" rx="40" fill="white"/>
<rect width="80" height="80" rx="40" fill="#775C6A"/>
<mask id="mask0" mask-type="alpha" maskUnits="userSpaceOnUse" x="0" y="0" width="80" height="80">
<rect width="80" height="80" rx="40" fill="white"/>
</mask>
<g mask="url(#mask0)">
<path fill-rule="evenodd" clip-rule="evenodd" d="M33.0711 -5.26758L56.6052 37.6318L46.3879 44.4905L51.9492 74.7194L-10.5557 92.6382V-8.33398L33.0711 -5.26758Z" fill="#FDCFB7"/>
<path fill-rule="evenodd" clip-rule="evenodd" d="M-6.29688 33.4944L13.1074 22.5547L15.2901 26.4262L-4.11419 37.3659L-6.29688 33.4944Z" fill="#F4828C"/>
<path fill-rule="evenodd" clip-rule="evenodd" d="M48.9461 58.8594C48.9458 58.8596 48.9454 58.8598 49.9912 60.8205C51.0369 62.7813 51.0365 62.7815 51.0361 62.7818L51.0351 62.7823L51.0327 62.7836L51.0264 62.7869L51.0074 62.7969C50.992 62.805 50.9712 62.8159 50.945 62.8294C50.8926 62.8564 50.8189 62.894 50.7253 62.9406C50.5383 63.0337 50.2711 63.1632 49.9351 63.3167C49.2644 63.6233 48.313 64.0292 47.1721 64.4348C44.9193 65.2358 41.7972 66.0837 38.5879 66.0837V61.6392C41.0802 61.6392 43.6598 60.9666 45.6832 60.2472C46.6804 59.8926 47.5108 59.5382 48.0873 59.2746C48.375 59.1431 48.5978 59.035 48.7448 58.9618C48.8182 58.9253 48.8726 58.8975 48.9065 58.88C48.9235 58.8712 48.9353 58.865 48.9419 58.8616L48.9461 58.8594Z" fill="#775C6A"/>
<circle cx="35.0003" cy="24.9993" r="3.33333" fill="#775C6A"/>
<path fill-rule="evenodd" clip-rule="evenodd" d="M26.3323 22.1894C26.3326 22.1892 26.3329 22.1889 24.9029 20.4879C23.473 18.7869 23.4733 18.7866 23.4736 18.7863L23.4764 18.784L23.4818 18.7795L23.4985 18.7656C23.5123 18.7542 23.5311 18.7385 23.555 18.7189C23.6028 18.6798 23.6706 18.6246 23.7573 18.5554C23.9305 18.417 24.1795 18.2219 24.4945 17.9852C25.1234 17.5125 26.0209 16.8695 27.1083 16.1781C29.2559 14.8126 32.2635 13.1809 35.4721 12.3613L36.572 16.6675C34.0158 17.3204 31.4638 18.6755 29.493 19.9286C28.5213 20.5464 27.7199 21.1208 27.1648 21.538C26.8877 21.7463 26.6733 21.9144 26.5312 22.0279C26.4602 22.0846 26.4074 22.1276 26.3739 22.1551C26.3572 22.1688 26.3453 22.1786 26.3384 22.1844L26.3323 22.1894Z" fill="#775C6A"/>
<path fill-rule="evenodd" clip-rule="evenodd" d="M47.6451 49.6505L48.7301 55.9532L25.7305 63.847C25.7305 63.847 30.4885 43.5432 47.6451 49.6505" fill="#F4828C"/>
<path fill-rule="evenodd" clip-rule="evenodd" d="M44.2018 6.9496L51.27 28.8845L19.6923 42.8632L9.66866 17.7939L44.2018 6.9496ZM15.5761 20.5973L22.1079 36.9334L45.8128 26.4399L41.3245 12.5116L15.5761 20.5973Z" fill="#F4828C"/>
</g>
</svg>
