<svg width="80" height="80" viewBox="0 0 80 80" fill="none" xmlns="http://www.w3.org/2000/svg">
<g clip-path="url(#clip0)">
<rect width="80" height="80" rx="40" fill="white"/>
<rect y="0.299805" width="80" height="80" rx="40" fill="#775C6A"/>
<mask id="mask0" mask-type="alpha" maskUnits="userSpaceOnUse" x="0" y="0" width="80" height="81">
<rect y="0.299805" width="80" height="80" rx="40" fill="white"/>
</mask>
<g mask="url(#mask0)">
<path fill-rule="evenodd" clip-rule="evenodd" d="M39.9998 3.9309C51.2915 10.8233 57.7162 32.3761 57.7162 32.3761L47.4989 39.2348L56.3935 75.0192L-6.11133 92.938V-8.03418C-6.11133 -8.03418 28.7081 -2.9615 39.9998 3.9309Z" fill="#FDCFB7"/>
<path fill-rule="evenodd" clip-rule="evenodd" d="M51.8757 43.8651L30.4053 57.0914L28.0742 53.3074L49.5446 40.0811L51.8757 43.8651Z" fill="#F4828C"/>
<path fill-rule="evenodd" clip-rule="evenodd" d="M-7.20312 37.4678L29.7087 53.6897L38.1656 93.0126L-0.0831975 96.3567L-7.20312 37.4678Z" fill="#F4828C"/>
<circle cx="36.6663" cy="29.0335" r="3.33333" fill="#775C6A"/>
<path fill-rule="evenodd" clip-rule="evenodd" d="M52.2495 53.6182C52.2492 53.6184 52.2488 53.6186 53.3248 55.5629C54.4009 57.5072 54.4005 57.5074 54.4 57.5077L54.3964 57.5097L54.3893 57.5136L54.3676 57.5254C54.3498 57.5351 54.3253 57.5484 54.2944 57.565C54.2325 57.5981 54.1448 57.6445 54.0329 57.7023C53.8093 57.8178 53.4885 57.9791 53.0844 58.1708C52.2775 58.5536 51.1312 59.061 49.7564 59.5682C47.037 60.5716 43.2865 61.6261 39.4443 61.6261V57.1817C42.5424 57.1817 45.7322 56.3157 48.218 55.3985C49.4457 54.9455 50.4683 54.4927 51.1795 54.1553C51.5345 53.9869 51.8102 53.8481 51.9932 53.7535C52.0847 53.7063 52.1528 53.6702 52.196 53.6471C52.2176 53.6355 52.2329 53.6272 52.2418 53.6224L52.2495 53.6182Z" fill="#775C6A"/>
<path fill-rule="evenodd" clip-rule="evenodd" d="M26.887 24.1572C26.8873 24.157 26.8876 24.1567 25.4576 22.4557C24.0277 20.7547 24.028 20.7544 24.0283 20.7541L24.0311 20.7518L24.0365 20.7472L24.0532 20.7333C24.0669 20.7219 24.0858 20.7063 24.1097 20.6867C24.1575 20.6475 24.2253 20.5924 24.3119 20.5232C24.4852 20.3848 24.7342 20.1897 25.0491 19.953C25.6781 19.4803 26.5755 18.8373 27.663 18.1459C29.8106 16.7803 32.8182 15.1486 36.0268 14.3291L37.1267 18.6353C34.5705 19.2882 32.0185 20.6432 30.0477 21.8964C29.076 22.5142 28.2746 23.0886 27.7195 23.5058C27.4424 23.7141 27.228 23.8821 27.0859 23.9956C27.0149 24.0524 26.9621 24.0954 26.9286 24.1228C26.9119 24.1366 26.9 24.1464 26.8931 24.1521L26.887 24.1572Z" fill="#775C6A"/>
</g>
</g>
<defs>
<clipPath id="clip0">
<rect width="80" height="80" rx="40" fill="white"/>
</clipPath>
</defs>
</svg>
