<svg width="80" height="80" viewBox="0 0 80 80" fill="none" xmlns="http://www.w3.org/2000/svg">
<rect width="80" height="80" rx="40" fill="white"/>
<rect width="80" height="80" rx="40" fill="#775C6A"/>
<mask id="mask0" mask-type="alpha" maskUnits="userSpaceOnUse" x="0" y="0" width="80" height="80">
<rect width="80" height="80" rx="40" fill="white"/>
</mask>
<g mask="url(#mask0)">
<path fill-rule="evenodd" clip-rule="evenodd" d="M17.0686 -5.95117H55.097L83.6506 85.3194H0.953125V-5.95117H17.0686Z" fill="#F4828C"/>
<path fill-rule="evenodd" clip-rule="evenodd" d="M41.9434 -10.9618L60.4567 40.2849L50.8323 44.4897L51.9492 74.7185L-10.5557 88.1929V-12.7793L41.9434 -10.9618Z" fill="#FDCFB7"/>
<path fill-rule="evenodd" clip-rule="evenodd" d="M32.4427 34.9677C32.4429 34.9675 32.4432 34.9673 31.0133 33.2662C29.5833 31.5652 29.5836 31.5649 29.584 31.5646L29.5868 31.5623L29.5922 31.5578L29.6089 31.5439C29.6226 31.5325 29.6415 31.5169 29.6654 31.4973C29.7131 31.4581 29.781 31.4029 29.8676 31.3337C30.0409 31.1953 30.2898 31.0003 30.6048 30.7635C31.2337 30.2908 32.1312 29.6479 33.2187 28.9564C35.3662 27.5909 38.3738 25.9592 41.5825 25.1396L42.6823 29.4458C40.1262 30.0987 37.5742 31.4538 35.6034 32.7069C34.6317 33.3248 33.8303 33.8991 33.2751 34.3164C32.998 34.5246 32.7837 34.6927 32.6416 34.8062C32.5706 34.8629 32.5177 34.9059 32.4843 34.9334C32.4675 34.9471 32.4556 34.957 32.4487 34.9627L32.4427 34.9677Z" fill="#775C6A"/>
<path fill-rule="evenodd" clip-rule="evenodd" d="M59.9447 -4.38514C59.9447 -4.38514 52.9872 24.1479 24.4195 40.1798L28.4679 83.0313L0 87.4758V-7L59.9447 -4.38514Z" fill="#F4828C"/>
<circle cx="41.1107" cy="37.7786" r="3.33333" fill="#775C6A"/>
<path fill-rule="evenodd" clip-rule="evenodd" d="M51.5183 56.1553C51.5178 56.1555 51.5172 56.1558 52.4145 58.1888C53.3118 60.2218 53.3111 60.2221 53.3104 60.2224L53.3087 60.2231L53.3047 60.2249L53.2937 60.2297L53.2601 60.2442C53.2326 60.256 53.1949 60.272 53.1475 60.2918C53.0528 60.3312 52.9189 60.3857 52.7492 60.4517C52.4101 60.5837 51.9265 60.7623 51.325 60.9591C50.1254 61.3516 48.4377 61.8229 46.4777 62.1378C42.6181 62.7581 37.3775 62.823 32.7852 60.0944L35.0554 56.2735C38.3504 58.2313 42.3569 58.2986 45.7725 57.7497C47.4502 57.4801 48.9071 57.0739 49.9429 56.735C50.459 56.5662 50.8657 56.4156 51.1374 56.3099C51.2732 56.257 51.3749 56.2155 51.4393 56.1887C51.4715 56.1753 51.4944 56.1656 51.5075 56.1599L51.5183 56.1553Z" fill="#775C6A"/>
</g>
</svg>
