<svg width="80" height="80" viewBox="0 0 80 80" fill="none" xmlns="http://www.w3.org/2000/svg">
<rect width="80" height="80" rx="40" fill="white"/>
<rect width="80" height="80" rx="40" fill="#775C6A"/>
<mask id="mask0" mask-type="alpha" maskUnits="userSpaceOnUse" x="0" y="0" width="80" height="80">
<rect width="80" height="80" rx="40" fill="white"/>
</mask>
<g mask="url(#mask0)">
<path fill-rule="evenodd" clip-rule="evenodd" d="M33.0721 -5.26758L56.6062 37.6318L46.3889 44.4905L51.9502 74.7194L-10.5547 92.6382V-8.33398L33.0721 -5.26758Z" fill="#FDCFB7"/>
<path fill-rule="evenodd" clip-rule="evenodd" d="M12.0044 7.62996L4.6852 74.8122L-10.5047 55.5738L-0.953125 1.4043L12.0044 7.62996Z" fill="#F4828C"/>
<path fill-rule="evenodd" clip-rule="evenodd" d="M-9.04102 43.8286L23.6966 24L25.9991 27.8015L-6.73851 47.6301L-9.04102 43.8286Z" fill="#F4828C"/>
<path fill-rule="evenodd" clip-rule="evenodd" d="M48.7841 55.066C48.7834 55.0665 48.7827 55.0669 49.992 56.9313C51.2013 58.7956 51.2005 58.7961 51.1997 58.7966L51.194 58.8004L51.1839 58.8068L51.1556 58.8248C51.1331 58.8389 51.1035 58.8574 51.0668 58.8799C50.9933 58.9248 50.8916 58.9856 50.7625 59.0596C50.5045 59.2075 50.1367 59.4082 49.6675 59.639C48.7298 60.1001 47.381 60.6843 45.6878 61.2072C42.302 62.2528 37.5089 63.0615 31.875 62.1207L32.6071 57.7369C37.4148 58.5398 41.4971 57.8498 44.3764 56.9606C45.8157 56.5162 46.9469 56.0241 47.706 55.6507C48.0852 55.4643 48.37 55.3082 48.5525 55.2036C48.6437 55.1513 48.7092 55.112 48.7479 55.0883C48.7673 55.0765 48.7799 55.0685 48.7858 55.0649C48.7887 55.063 48.7899 55.0622 48.7894 55.0626L48.7873 55.0639L48.7853 55.0652L48.7841 55.066Z" fill="#775C6A"/>
<circle cx="37.222" cy="24.9993" r="3.33333" fill="#775C6A"/>
<path fill-rule="evenodd" clip-rule="evenodd" d="M22.4427 16.08C22.4429 16.0798 22.4432 16.0796 21.0133 14.3785C19.5833 12.6775 19.5836 12.6772 19.584 12.6769L19.5868 12.6746L19.5922 12.6701L19.6089 12.6562C19.6226 12.6448 19.6415 12.6292 19.6654 12.6096C19.7131 12.5704 19.781 12.5153 19.8676 12.446C20.0409 12.3076 20.2898 12.1126 20.6048 11.8758C21.2337 11.4031 22.1312 10.7602 23.2187 10.0687C25.3662 8.7032 28.3738 7.07149 31.5825 6.25195L32.6823 10.5582C30.1262 11.211 27.5742 12.5661 25.6034 13.8192C24.6317 14.4371 23.8303 15.0114 23.2751 15.4287C22.998 15.6369 22.7837 15.805 22.6416 15.9185C22.5706 15.9752 22.5177 16.0182 22.4843 16.0457C22.4675 16.0594 22.4556 16.0693 22.4487 16.075L22.4427 16.08Z" fill="#775C6A"/>
<path fill-rule="evenodd" clip-rule="evenodd" d="M44.3347 22.0515C41.3743 16.4838 35.8174 14.6253 32.2665 16.5133C28.7156 18.4014 27.149 24.0475 30.1094 29.6152C33.0698 35.1829 38.6266 37.0414 42.1776 35.1533C45.7285 33.2653 47.2951 27.6192 44.3347 22.0515ZM30.18 12.5891C36.6527 9.14747 44.5932 13.0707 48.2589 19.9649C51.9246 26.8591 50.7369 35.6359 44.2641 39.0775C37.7913 42.5192 29.8509 38.5959 26.1852 31.7017C22.5195 24.8075 23.7072 16.0307 30.18 12.5891Z" fill="#F4828C"/>
</g>
</svg>
