<svg width="20" height="20" viewBox="0 0 20 20" fill="none" xmlns="http://www.w3.org/2000/svg">
<mask id="path-1-inside-1" fill="white">
<path fill-rule="evenodd" clip-rule="evenodd" d="M10 20C15.5228 20 20 15.5228 20 10C20 4.47715 15.5228 0 10 0C4.47715 0 0 4.47715 0 10C0 15.5228 4.47715 20 10 20ZM8.151 12.8167C8.55902 13.2278 9.22125 13.2278 9.6303 12.8167L14.0682 8.35727C14.4773 7.94622 14.4773 7.28077 14.0682 6.87078C13.6602 6.45974 12.998 6.45974 12.5889 6.87078L8.89066 10.587L7.41031 9.10051C7.0023 8.68946 6.34007 8.68946 5.93101 9.10051C5.523 9.5105 5.523 10.177 5.93101 10.587L8.151 12.8167Z"/>
</mask>
<path fill-rule="evenodd" clip-rule="evenodd" d="M10 20C15.5228 20 20 15.5228 20 10C20 4.47715 15.5228 0 10 0C4.47715 0 0 4.47715 0 10C0 15.5228 4.47715 20 10 20ZM8.151 12.8167C8.55902 13.2278 9.22125 13.2278 9.6303 12.8167L14.0682 8.35727C14.4773 7.94622 14.4773 7.28077 14.0682 6.87078C13.6602 6.45974 12.998 6.45974 12.5889 6.87078L8.89066 10.587L7.41031 9.10051C7.0023 8.68946 6.34007 8.68946 5.93101 9.10051C5.523 9.5105 5.523 10.177 5.93101 10.587L8.151 12.8167Z" fill="#E9446A"/>
<path d="M9.6303 12.8167L8.21267 11.4059L8.21267 11.4059L9.6303 12.8167ZM8.151 12.8167L9.57044 11.4077L9.56831 11.4056L8.151 12.8167ZM14.0682 8.35727L15.4858 9.76805L15.4858 9.76805L14.0682 8.35727ZM14.0682 6.87078L12.6488 8.27975L12.6524 8.28338L14.0682 6.87078ZM12.5889 6.87078L11.1713 5.46L11.1713 5.46L12.5889 6.87078ZM8.89066 10.587L7.47352 11.9983L8.89116 13.4218L10.3083 11.9978L8.89066 10.587ZM7.41031 9.10051L5.99087 10.5095L5.99317 10.5118L7.41031 9.10051ZM5.93101 9.10051L7.34864 10.5113L7.34864 10.5113L5.93101 9.10051ZM5.93101 10.587L4.51337 11.9978L4.51371 11.9981L5.93101 10.587ZM18 10C18 14.4183 14.4183 18 10 18V22C16.6274 22 22 16.6274 22 10H18ZM10 2C14.4183 2 18 5.58172 18 10H22C22 3.37258 16.6274 -2 10 -2V2ZM2 10C2 5.58172 5.58172 2 10 2V-2C3.37258 -2 -2 3.37258 -2 10H2ZM10 18C5.58172 18 2 14.4183 2 10H-2C-2 16.6274 3.37258 22 10 22V18ZM8.21267 11.4059C8.58444 11.0324 9.19523 11.0297 9.57044 11.4077L6.73157 14.2257C7.9228 15.4258 9.85806 15.4232 11.0479 14.2275L8.21267 11.4059ZM12.6506 6.94648L8.21267 11.4059L11.0479 14.2275L15.4858 9.76805L12.6506 6.94648ZM12.6524 8.28338C12.2815 7.9117 12.2841 7.3147 12.6506 6.94648L15.4858 9.76805C16.6704 8.57775 16.673 6.64985 15.484 5.45819L12.6524 8.28338ZM14.0065 8.28157C13.6348 8.65514 13.024 8.65776 12.6488 8.27975L15.4876 5.46181C14.2964 4.26172 12.3611 4.26434 11.1713 5.46L14.0065 8.28157ZM10.3083 11.9978L14.0065 8.28157L11.1713 5.46L7.47302 9.17621L10.3083 11.9978ZM5.99317 10.5118L7.47352 11.9983L10.3078 9.17571L8.82744 7.68922L5.99317 10.5118ZM7.34864 10.5113C6.97688 10.8849 6.36609 10.8875 5.99087 10.5095L8.82975 7.69154C7.63851 6.49145 5.70325 6.49407 4.51337 7.68972L7.34864 10.5113ZM7.34864 9.17621C7.71712 9.54647 7.71712 10.141 7.34864 10.5113L4.51337 7.68972C3.32888 8.87997 3.32888 10.8075 4.51337 11.9978L7.34864 9.17621ZM9.56831 11.4056L7.34831 9.17587L4.51371 11.9981L6.7337 14.2278L9.56831 11.4056Z" fill="#E9446A" mask="url(#path-1-inside-1)"/>
</svg>
