<svg width="64" height="64" viewBox="0 0 64 64" fill="none" xmlns="http://www.w3.org/2000/svg">
<path d="M55 15.5506C55 13.5897 52.851 12 50.2 12L11.8 12C9.14903 12 7 13.5897 7 15.5506L7 50L16.6 42.8988H27.6701C28.2775 40.2593 29.3327 37.8414 30.9757 35.8106C33.3002 32.9375 36.4871 31.2193 40.2871 30.5735V29.5417C40.2871 26.7159 42.4874 24 45.7774 24C47.9041 24 49.3465 25.2361 49.8948 25.7059C49.9403 25.745 49.9797 25.7787 50.0128 25.806L50.123 25.897L55 30.4627L55 15.5506Z" fill="#14353C" fill-opacity="0.2"/>
<path d="M47.4805 50.1853C46.8418 50.7243 46.366 51 45.7523 51C44.9133 51 44.2871 50.3733 44.2871 49.5335V44.7455H43.9239C39.0775 44.7455 36.0093 45.9738 33.8177 50.0725C33.3919 50.8747 32.8159 51 32.2774 51C31.6136 51 31 50.3984 31 49.3204C31 40.0578 34.9198 34.2796 43.9239 34.2796H44.2871V29.5417C44.2871 28.7019 44.9133 28 45.7774 28C46.387 28 46.7618 28.3093 47.4667 28.8911L47.4805 28.9025L57.3613 38.1526C57.8247 38.6163 58 39.0801 58 39.5063C58 39.9199 57.8247 40.3837 57.3613 40.8474L47.4805 50.1853Z" fill="#058DC7"/>
</svg>
