<svg width="64" height="64" viewBox="0 0 64 64" fill="none" xmlns="http://www.w3.org/2000/svg">
<path d="M4 14C4 9.58172 7.58172 6 12 6H47.4098C51.8281 6 55.4098 9.58172 55.4098 14V16.9963C53.6124 15.6454 51.3711 14.8525 48.9843 14.8525C43.2939 14.8525 38.4383 19.3529 38.4383 25.1761V26.8046C35.9528 27.3811 33.9678 29.5607 33.9678 32.3725V44.5574H12C7.58173 44.5574 4 40.9757 4 36.5574V14Z" fill="#14353C" fill-opacity="0.2"/>
<path d="M23.2786 50.0654C21.2505 50.0654 19.6064 51.7095 19.6064 53.7376C19.6064 55.7656 21.2505 57.4097 23.2786 57.4097H36.131C38.1591 57.4097 39.8032 55.7656 39.8032 53.7376C39.8032 51.7095 38.1591 50.0654 36.131 50.0654H23.2786Z" fill="#14353C" fill-opacity="0.2"/>
<path d="M42.4383 25.1761C42.4383 21.6901 45.3728 18.8525 48.9843 18.8525C52.5924 18.8525 55.5303 21.6901 55.5303 25.1761V29.7968H52.6563V25.1761C52.6563 23.2203 51.0087 21.6287 48.9843 21.6287C46.9565 21.6287 45.3121 23.2203 45.3121 25.1761V29.7968H42.4383V25.1761Z" fill="#058DC7"/>
<path fill-rule="evenodd" clip-rule="evenodd" d="M60.0006 32.3725V45.5902C60.0006 46.5403 59.2024 47.3116 58.2189 47.3116H39.7495C38.7628 47.3116 37.9678 46.5403 37.9678 45.5902V32.3725C37.9678 31.4226 38.7628 30.6544 39.7495 30.6544H58.2189C59.2025 30.6544 60.0006 31.4225 60.0006 32.3725ZM49.9422 40.3371C49.9422 39.6708 50.1688 39.0077 50.6477 38.5265C51.05 38.1254 51.2993 37.5794 51.2993 36.9779C51.2993 36.9532 51.2993 36.9254 51.296 36.9006C51.2883 36.6857 51.2494 36.4783 51.1834 36.2827L51.1833 36.2823L51.1831 36.282C50.9523 35.5992 50.3906 35.0616 49.6815 34.8449L49.6731 34.8423C49.2713 34.7211 48.8224 34.7033 48.3594 34.8202L48.348 34.8231L48.336 34.8263C47.9885 34.9173 47.6339 35.0834 47.2855 35.34C46.8767 35.8613 46.6852 36.4011 46.6692 36.9007C46.6467 37.5764 46.931 38.1841 47.4004 38.6066C47.793 38.9614 48.0263 39.4486 48.0263 39.9669V42.7431C48.8691 43.6718 49.9422 43.104 49.9422 42.2989V40.3371Z" fill="#058DC7"/>
</svg>
