<svg width="64" height="64" viewBox="0 0 64 64" fill="none" xmlns="http://www.w3.org/2000/svg">
<path d="M51.4576 11.8093C51.4576 9.70558 49.3327 8 46.7119 8H8.74576C6.12493 8 4 9.70558 4 11.8093V44.6266L13.4915 38.4736H17.2881V28.241C17.2881 23.9823 20.6876 20.5302 24.8814 20.5302H51.4576V11.8093Z" fill="#14353C" fill-opacity="0.2"/>
<path d="M45.8934 34.7593C45.8934 36.3962 44.5865 37.7229 42.9746 37.7229C41.3627 37.7229 40.0557 36.3962 40.0557 34.7593C40.0557 33.1225 41.3627 31.7953 42.9746 31.7953C44.5865 31.7953 45.8934 33.1225 45.8934 34.7593Z" fill="#14353C" fill-opacity="0.2"/>
<path fill-rule="evenodd" clip-rule="evenodd" d="M27.4086 24.3856C23.916 24.3856 21.0847 27.2607 21.0847 30.8074V49.5787C21.0847 53.1249 23.916 56 27.4086 56H53.6762C57.1688 56 60 53.1249 60 49.5787V30.8074C60 27.2607 57.1688 24.3856 53.6762 24.3856H27.4086ZM25.9492 30.8074C25.9492 29.989 26.6026 29.3254 27.4086 29.3254H53.6762C54.4821 29.3254 55.1356 29.989 55.1356 30.8074V45.6517L48.3729 40.2305C47.5303 39.5546 46.3508 39.5203 45.4712 40.1453L42.2785 42.4151L36.9112 36.9647C36.6693 36.7191 36.382 36.5308 36.0696 36.408C35.7846 36.2955 35.4782 36.2381 35.1663 36.2414C34.5128 36.2479 33.8895 36.5219 33.4367 37.0005L25.9492 44.9208V30.8074ZM26.9567 50.9882C27.099 51.0348 27.251 51.0602 27.4086 51.0602H53.6762C53.7837 51.0602 53.8884 51.0485 53.989 51.0263L46.7786 45.2455L43.3963 47.65C42.4296 48.3371 41.1161 48.2204 40.2814 47.3733L35.2266 42.2401L26.9567 50.9882Z" fill="#14353C" fill-opacity="0.2"/>
<path d="M45.8934 34.7593C45.8934 36.3962 44.5865 37.7229 42.9746 37.7229C41.3627 37.7229 40.0557 36.3962 40.0557 34.7593C40.0557 33.1225 41.3627 31.7953 42.9746 31.7953C44.5865 31.7953 45.8934 33.1225 45.8934 34.7593Z" fill="#058DC7"/>
<path fill-rule="evenodd" clip-rule="evenodd" d="M27.4086 24.3856C23.916 24.3856 21.0847 27.2607 21.0847 30.8074V49.5787C21.0847 53.1249 23.916 56 27.4086 56H53.6762C57.1688 56 60 53.1249 60 49.5787V30.8074C60 27.2607 57.1688 24.3856 53.6762 24.3856H27.4086ZM25.9492 30.8074C25.9492 29.989 26.6026 29.3254 27.4086 29.3254H53.6762C54.4821 29.3254 55.1356 29.989 55.1356 30.8074V45.6517L48.3729 40.2305C47.5303 39.5546 46.3508 39.5203 45.4712 40.1453L42.2785 42.4151L36.9112 36.9647C36.6693 36.7191 36.382 36.5308 36.0696 36.408C35.7846 36.2955 35.4782 36.2381 35.1663 36.2414C34.5128 36.2479 33.8895 36.5219 33.4367 37.0005L25.9492 44.9208V30.8074ZM26.9567 50.9882C27.099 51.0348 27.251 51.0602 27.4086 51.0602H53.6762C53.7837 51.0602 53.8884 51.0485 53.989 51.0263L46.7786 45.2455L43.3963 47.65C42.4296 48.3371 41.1161 48.2204 40.2814 47.3733L35.2266 42.2401L26.9567 50.9882Z" fill="#058DC7"/>
</svg>
