<svg width="64" height="64" viewBox="0 0 64 64" fill="none" xmlns="http://www.w3.org/2000/svg">
<path fill-rule="evenodd" clip-rule="evenodd" d="M8 52.8727C8 56.7287 11.1515 59.8545 15.039 59.8545H38.5025C42.3327 59.8545 45.4484 56.8203 45.5395 53.043C45.5395 51.8615 45.5396 50.4403 45.5396 48.8365C44.7591 49.5098 44.2428 49.9553 44.1715 50.0174C42.6759 51.3189 40.4525 51.3284 38.9458 50.0397C38.8794 49.9829 38.6532 49.7926 38.3062 49.5008C36.0562 47.6082 28.7284 41.4442 26.9647 39.7046L26.9541 39.6941C22.1735 34.9437 21.9447 28.491 25.1028 23.9716L25.1059 23.9672C28.1234 19.6615 32.3673 18.7959 35.9161 19.0645L35.9203 19.0648C38.085 19.231 39.9985 20.0591 41.5609 21.1649C42.7228 20.3562 44.0657 19.7052 45.5414 19.3401C45.5415 16.2801 45.5416 13.4294 45.5416 10.9818C45.5416 7.12587 42.3901 4 38.5025 4H15.039C11.1515 4 8 7.12587 8 10.9818V52.8727ZM29.0599 50.5455C29.0599 51.7994 28.035 52.816 26.7708 52.816C25.5065 52.816 24.4817 51.7994 24.4817 50.5455C24.4817 49.2915 25.5065 48.2749 26.7708 48.2749C28.035 48.2749 29.0599 49.2915 29.0599 50.5455ZM29.2888 15.5796H24.2528C22.8621 15.5796 21.7347 14.5631 21.7347 13.3091C21.7347 12.0551 22.8621 11.0386 24.2528 11.0386H29.2888C30.6795 11.0386 31.8069 12.0551 31.8069 13.3091C31.8069 14.5631 30.6795 15.5796 29.2888 15.5796Z" fill="#14353C" fill-opacity="0.2"/>
<path d="M41.5454 47C40.8813 46.432 31.6746 38.7322 29.7732 36.8569C26.3525 33.4578 26.3525 29.1661 28.3813 26.2629C30.3463 23.4589 32.9937 22.8548 35.6138 23.0532C38.1975 23.2516 40.4264 25.0548 41.5454 26.7949C42.6644 25.0458 44.9024 23.3147 47.477 23.0532C50.0789 22.7827 52.8718 23.495 54.7004 26.317C56.6291 29.2833 56.6018 33.593 53.3176 36.8479C53.3176 36.8479 41.9184 46.6754 41.5454 47Z" fill="#058DC7"/>
</svg>
