<svg width="64" height="64" viewBox="0 0 64 64" fill="none" xmlns="http://www.w3.org/2000/svg">
<path fill-rule="evenodd" clip-rule="evenodd" d="M8 52.8727C8 56.7287 11.1515 59.8545 15.039 59.8545H38.5025C42.3327 59.8545 45.4484 56.8203 45.5395 53.043C45.5395 52.0281 45.5396 50.8364 45.5396 49.5041C45.475 49.55 45.4136 49.5933 45.3556 49.6341C45.1545 49.7756 44.9939 49.8865 44.8803 49.964L44.7991 50.0192L44.746 50.0552L44.7068 50.0815L44.6944 50.0897L44.6884 50.0937C44.6884 50.0937 44.687 50.0947 42.49 46.7897L44.687 50.0947L42.4726 51.5667L40.2582 50.0947L42.4552 46.7897C40.2582 50.0947 40.2568 50.0937 40.2568 50.0937L40.2508 50.0897L40.2384 50.0815L40.1992 50.0552C40.1667 50.0333 40.1217 50.0028 40.0649 49.964C39.9513 49.8865 39.7906 49.7756 39.5895 49.6341C39.1877 49.3514 38.6225 48.9448 37.9479 48.4352C36.6053 47.4209 34.7981 45.9751 32.9744 44.2668C31.1678 42.5746 29.2434 40.5306 27.7441 38.3108C26.2891 36.1565 24.9453 33.4142 24.9453 30.4133C24.9453 20.7891 32.8501 13.0908 42.4726 13.0908C43.5185 13.0908 44.5442 13.1818 45.5416 13.3563C45.5416 12.5302 45.5416 11.7368 45.5416 10.9818C45.5416 7.12587 42.3901 4 38.5025 4H15.039C11.1515 4 8 7.12587 8 10.9818V52.8727ZM29.0599 50.5455C29.0599 51.7994 28.035 52.816 26.7708 52.816C25.5065 52.816 24.4817 51.7994 24.4817 50.5455C24.4817 49.2915 25.5065 48.2749 26.7708 48.2749C28.035 48.2749 29.0599 49.2915 29.0599 50.5455ZM29.2888 15.5796H24.2528C22.8621 15.5796 21.7347 14.5631 21.7347 13.3091C21.7347 12.0551 22.8621 11.0386 24.2528 11.0386H29.2888C30.6795 11.0386 31.8069 12.0551 31.8069 13.3091C31.8069 14.5631 30.6795 15.5796 29.2888 15.5796Z" fill="#14353C" fill-opacity="0.2"/>
<path d="M39.9567 32.9926C40.5186 33.5502 41.4307 33.5502 41.9941 32.9926L48.1066 26.9435C48.67 26.386 48.67 25.4833 48.1066 24.9272C47.5446 24.3696 46.6325 24.3696 46.0691 24.9272L40.9754 29.9681L38.9365 27.9517C38.3745 27.3942 37.4624 27.3942 36.899 27.9517C36.3371 28.5079 36.3371 29.412 36.899 29.9681L39.9567 32.9926Z" fill="#058DC7"/>
<path fill-rule="evenodd" clip-rule="evenodd" d="M42.4726 46.7635C42.4726 46.7635 55.9999 37.771 55.9999 30.4133C55.9999 23.0555 49.9436 17.0908 42.4726 17.0908C35.0015 17.0908 28.9453 23.0555 28.9453 30.4133C28.9453 37.771 42.4726 46.7635 42.4726 46.7635ZM42.4726 37.0745C46.9551 37.0745 50.5889 33.4957 50.5889 29.081C50.5889 24.6663 46.9551 21.0876 42.4726 21.0876C37.99 21.0876 34.3562 24.6663 34.3562 29.081C34.3562 33.4957 37.99 37.0745 42.4726 37.0745Z" fill="#058DC7"/>
</svg>
