<svg width="64" height="64" viewBox="0 0 64 64" fill="none" xmlns="http://www.w3.org/2000/svg">
<path d="M56.6635 34.05C56.694 33.6289 56.7098 33.2037 56.7106 32.775C56.7106 22.9167 48.7212 14.925 38.8658 14.925C29.0103 14.925 21.0209 22.9167 21.0209 32.775C21.0209 37.1445 22.5905 41.1472 25.1963 44.25H13.9525C10.1128 44.25 7 40.825 7 36.6V13.65C7 9.42502 10.1128 6 13.9525 6H51.0327C54.8725 6 57.9852 9.42502 57.9852 13.65V34.05H56.6635Z" fill="#14353C" fill-opacity="0.2"/>
<path fill-rule="evenodd" clip-rule="evenodd" d="M38.8658 46.8C31.1222 46.8 24.8448 40.5208 24.8448 32.775C24.8448 25.0292 31.1222 18.75 38.8658 18.75C46.6093 18.75 52.8867 25.0292 52.8867 32.775C52.8814 35.7203 51.9703 38.4528 50.4172 40.7088L57.2459 47.5395C57.7285 48.0183 58 48.6701 58 49.35C58 50.0299 57.7285 50.6817 57.2459 51.1605C56.7648 51.6378 56.1136 51.9039 55.436 51.9C54.7584 51.9039 54.1071 51.6378 53.626 51.1605L46.7973 44.3298C44.5419 45.8833 41.8102 46.7947 38.8658 46.8ZM38.8658 23.85C35.257 23.85 32.0036 26.0245 30.6225 29.3596C29.2415 32.6946 30.0049 36.5334 32.5567 39.0859C35.1085 41.6385 38.9462 42.402 42.2802 41.0206C45.6143 39.6392 47.7882 36.3848 47.7882 32.775C47.7882 27.8459 43.7935 23.85 38.8658 23.85Z" fill="#14353C" fill-opacity="0.2"/>
<path d="M26.1195 49.35C24.0076 49.35 22.2956 51.0625 22.2956 53.175C22.2956 55.2875 24.0076 57 26.1195 57H38.8658C40.9776 57 42.6897 55.2875 42.6897 53.175C42.6897 51.0625 40.9776 49.35 38.8658 49.35H26.1195Z" fill="#14353C" fill-opacity="0.2"/>
<path fill-rule="evenodd" clip-rule="evenodd" d="M38.8658 46.8C31.1222 46.8 24.8448 40.5208 24.8448 32.775C24.8448 25.0292 31.1222 18.75 38.8658 18.75C46.6093 18.75 52.8867 25.0292 52.8867 32.775C52.8814 35.7203 51.9703 38.4528 50.4172 40.7088L57.2459 47.5395C57.7285 48.0183 58 48.6701 58 49.35C58 50.0299 57.7285 50.6817 57.2459 51.1605C56.7648 51.6378 56.1136 51.9039 55.436 51.9C54.7584 51.9039 54.1071 51.6378 53.626 51.1605L46.7973 44.3298C44.5419 45.8833 41.8102 46.7947 38.8658 46.8ZM38.8658 23.85C35.257 23.85 32.0036 26.0245 30.6225 29.3596C29.2415 32.6946 30.0049 36.5334 32.5567 39.0859C35.1085 41.6385 38.9462 42.402 42.2802 41.0206C45.6143 39.6392 47.7882 36.3848 47.7882 32.775C47.7882 27.8459 43.7935 23.85 38.8658 23.85Z" fill="#058DC7"/>
</svg>
