<svg width="64" height="64" viewBox="0 0 64 64" fill="none" xmlns="http://www.w3.org/2000/svg">
<path d="M53 12.5506C53 10.5897 50.851 9 48.2 9L9.8 9C7.14903 9 5 10.5897 5 12.5506L5 47L14.6 39.8988H28.2667V36.2143C28.2667 32.4474 31.3305 29.4286 35.0667 29.4286C38.8029 29.4286 41.8667 32.4474 41.8667 36.2143V38.7332C42.8837 38.1308 44.0701 37.7857 45.3333 37.7857C46.5966 37.7857 47.7829 38.1308 48.8 38.7332V28.7857C48.8 25.9456 50.5416 23.5308 53 22.5144V12.5506Z" fill="#14353C" fill-opacity="0.2"/>
<path d="M22 47.125C22 45.7147 23.1491 44.5714 24.5667 44.5714C25.9842 44.5714 27.1333 45.7147 27.1333 47.125V52.2321C27.1333 53.6424 25.9842 54.7857 24.5667 54.7857C23.1491 54.7857 22 53.6424 22 52.2321V47.125Z" fill="#058DC7"/>
<path d="M35.0667 33.4286C33.5203 33.4286 32.2667 34.6758 32.2667 36.2143V52C32.2667 53.5385 33.5203 54.7857 35.0667 54.7857C36.6131 54.7857 37.8667 53.5385 37.8667 52V36.2143C37.8667 34.6758 36.6131 33.4286 35.0667 33.4286Z" fill="#058DC7"/>
<path d="M42.5333 44.5714C42.5333 43.0329 43.7869 41.7857 45.3333 41.7857C46.8797 41.7857 48.1333 43.0329 48.1333 44.5714V52C48.1333 53.5385 46.8797 54.7857 45.3333 54.7857C43.7869 54.7857 42.5333 53.5385 42.5333 52V44.5714Z" fill="#058DC7"/>
<path d="M55.6 26C54.0536 26 52.8 27.2472 52.8 28.7857V52C52.8 53.5385 54.0536 54.7857 55.6 54.7857C57.1464 54.7857 58.4 53.5385 58.4 52V28.7857C58.4 27.2472 57.1464 26 55.6 26Z" fill="#058DC7"/>
</svg>
