<svg width="64" height="64" viewBox="0 0 64 64" fill="none" xmlns="http://www.w3.org/2000/svg">
<path d="M24.4518 43.5714H36.1798C36.9592 43.576 37.7082 43.2688 38.2616 42.7176L53.1211 27.8089V51.1429C53.1211 54.9301 50.0621 58 46.2884 58H13.8328C10.059 58 7 54.9301 7 51.1429V11.8571C7 8.06989 10.059 5 13.8328 5H44.0622L22.37 26.7638C21.8211 27.3196 21.515 28.0717 21.5196 28.8539V40.6279C21.5196 42.2535 22.8324 43.5714 24.4518 43.5714Z" fill="#14353C" fill-opacity="0.2"/>
<path fill-rule="evenodd" clip-rule="evenodd" d="M35.2548 39.8852H26.9998C25.86 39.8852 24.936 38.9579 24.936 37.8141V29.5296C24.9328 28.9791 25.1482 28.4499 25.5345 28.0591L44.4978 9.03912C47.5867 5.93929 52.5946 5.93929 55.6834 9.03912C58.7722 12.1389 58.7722 17.1648 55.6834 20.2646L52.3005 23.6576C52.2799 23.6799 52.2589 23.7019 52.2373 23.7234C52.2194 23.7412 52.2012 23.7586 52.1828 23.7757L36.7201 39.2845C36.3306 39.6722 35.8033 39.8884 35.2548 39.8852ZM47.8426 22.2541L34.4087 35.743H29.0636V30.3788L42.5126 16.905L47.8426 22.2541ZM50.7724 19.3123L52.7529 17.3237C53.8475 16.2475 54.1809 14.6119 53.5954 13.1908C53.0099 11.7697 51.6229 10.848 50.0907 10.8618C49.0884 10.8545 48.1266 11.2585 47.4284 11.9802L45.4457 13.9666L50.7724 19.3123Z" fill="#14353C" fill-opacity="0.2"/>
<path fill-rule="evenodd" clip-rule="evenodd" d="M35.2548 39.8852H26.9998C25.86 39.8852 24.936 38.9579 24.936 37.8141V29.5296C24.9328 28.9791 25.1482 28.4499 25.5345 28.0591L44.4978 9.03912C47.5867 5.93929 52.5946 5.93929 55.6834 9.03912C58.7722 12.1389 58.7722 17.1648 55.6834 20.2646L52.3005 23.6576C52.2799 23.6799 52.2589 23.7019 52.2373 23.7234C52.2194 23.7412 52.2012 23.7586 52.1828 23.7757L36.7201 39.2845C36.3306 39.6722 35.8033 39.8884 35.2548 39.8852ZM47.8426 22.2541L34.4087 35.743H29.0636V30.3788L42.5126 16.905L47.8426 22.2541ZM50.7724 19.3123L52.7529 17.3237C53.8475 16.2475 54.1809 14.6119 53.5954 13.1908C53.0099 11.7697 51.6229 10.848 50.0907 10.8618C49.0884 10.8545 48.1266 11.2585 47.4284 11.9802L45.4457 13.9666L50.7724 19.3123Z" fill="#058DC7"/>
</svg>
