<svg width="56" height="56" viewBox="0 0 56 56" fill="none" xmlns="http://www.w3.org/2000/svg">
<path d="M23.5363 30.0108C24.5333 31.0631 26.1516 31.0631 27.1511 30.0108L37.9958 18.5946C38.9953 17.5423 38.9953 15.8388 37.9958 14.7892C36.9987 13.7369 35.3805 13.7369 34.3809 14.7892L25.3437 24.3027L21.7263 20.4973C20.7293 19.445 19.111 19.445 18.1114 20.4973C17.1144 21.5469 17.1144 23.2531 18.1114 24.3027L23.5363 30.0108Z" fill="#E9446A"/>
<path fill-rule="evenodd" clip-rule="evenodd" d="M28 56C28 56 52 39.0288 52 25.1429C52 11.2569 41.2551 0 28 0C14.7449 0 4 11.2569 4 25.1429C4 39.0288 28 56 28 56ZM28 37.7143C35.9529 37.7143 42.4 30.9602 42.4 22.6286C42.4 14.2969 35.9529 7.54286 28 7.54286C20.0471 7.54286 13.6 14.2969 13.6 22.6286C13.6 30.9602 20.0471 37.7143 28 37.7143Z" fill="#E9446A"/>
</svg>
