<svg width="80" height="80" viewBox="0 0 80 80" fill="none" xmlns="http://www.w3.org/2000/svg">
<path fill-rule="evenodd" clip-rule="evenodd" d="M20.8219 19C27.7857 19 33.9507 22.4337 37.7312 27.7072C35.3484 31.5735 33.9726 36.1321 33.9726 41.0138C33.9726 45.3784 35.0722 49.485 37.0082 53.0692C33.1908 57.8014 27.3582 60.8261 20.8219 60.8261C9.32256 60.8261 0 51.4628 0 39.9131C0 28.3634 9.32256 19 20.8219 19ZM15.4035 52.9854C16.8798 52.3426 18.5472 51.7637 20.8219 51.7637C23.0961 51.7637 24.764 52.3426 26.2404 52.9854C26.6096 53.1466 27.0002 53.1912 27.3716 53.1358C28.0603 53.0337 28.682 52.5871 28.979 51.8986C29.436 50.8388 28.9517 49.6075 27.8965 49.148C26.1451 48.3854 23.8854 47.5813 20.8219 47.5813C17.7585 47.5813 15.4982 48.3854 13.7473 49.148C12.6916 49.6075 12.2073 50.8388 12.6648 51.8986C13.1223 52.9579 14.3482 53.4449 15.4035 52.9854ZM15.2692 34.336C15.2692 35.8763 14.0261 37.1248 12.493 37.1248C10.96 37.1248 9.71693 35.8763 9.71693 34.336C9.71693 32.7962 10.96 31.5477 12.493 31.5477C14.0261 31.5477 15.2692 32.7962 15.2692 34.336ZM29.1508 37.1248C30.6839 37.1248 31.9269 35.8763 31.9269 34.336C31.9269 32.7962 30.6839 31.5477 29.1508 31.5477C27.6177 31.5477 26.3747 32.7962 26.3747 34.336C26.3747 35.8763 27.6177 37.1248 29.1508 37.1248Z" fill="#14353C" fill-opacity="0.2"/>
<path fill-rule="evenodd" clip-rule="evenodd" d="M80 41.0138C80 52.5635 70.6774 61.9268 59.1781 61.9268C47.6787 61.9268 38.3562 52.5635 38.3562 41.0138C38.3562 29.4641 47.6787 20.1007 59.1781 20.1007C70.6774 20.1007 80 29.4641 80 41.0138ZM59.1781 50.0762C61.4528 50.0762 63.1202 49.4973 64.5965 48.8545C65.6518 48.395 66.8777 48.8814 67.3352 49.9413C67.7927 51.0011 67.3084 52.2324 66.2527 52.6919C64.5018 53.4545 62.2415 54.2586 59.1781 54.2586C56.1146 54.2586 53.8549 53.4545 52.1035 52.6919C51.0483 52.2324 50.564 51.0011 51.021 49.9413C51.4785 48.8814 52.7049 48.395 53.7596 48.8545C55.236 49.4973 56.9039 50.0762 59.1781 50.0762ZM50.8492 38.2255C52.3823 38.2255 53.6253 36.977 53.6253 35.4367C53.6253 33.8969 52.3823 32.6484 50.8492 32.6484C49.3161 32.6484 48.0731 33.8969 48.0731 35.4367C48.0731 36.977 49.3161 38.2255 50.8492 38.2255ZM70.2831 35.4367C70.2831 36.977 69.04 38.2255 67.507 38.2255C65.9739 38.2255 64.7308 36.977 64.7308 35.4367C64.7308 33.8969 65.9739 32.6484 67.507 32.6484C69.04 32.6484 70.2831 33.8969 70.2831 35.4367Z" fill="#14353C" fill-opacity="0.2"/>
<path fill-rule="evenodd" clip-rule="evenodd" d="M80 41.0138C80 52.5635 70.6774 61.9268 59.1781 61.9268C47.6787 61.9268 38.3562 52.5635 38.3562 41.0138C38.3562 29.4641 47.6787 20.1007 59.1781 20.1007C70.6774 20.1007 80 29.4641 80 41.0138ZM59.1781 50.0762C61.4528 50.0762 63.1202 49.4973 64.5965 48.8545C65.6518 48.395 66.8777 48.8814 67.3352 49.9413C67.7927 51.0011 67.3084 52.2324 66.2527 52.6919C64.5018 53.4545 62.2415 54.2586 59.1781 54.2586C56.1146 54.2586 53.8549 53.4545 52.1035 52.6919C51.0483 52.2324 50.564 51.0011 51.021 49.9413C51.4785 48.8814 52.7049 48.395 53.7596 48.8545C55.236 49.4973 56.9039 50.0762 59.1781 50.0762ZM50.8492 38.2255C52.3823 38.2255 53.6253 36.977 53.6253 35.4367C53.6253 33.8969 52.3823 32.6484 50.8492 32.6484C49.3161 32.6484 48.0731 33.8969 48.0731 35.4367C48.0731 36.977 49.3161 38.2255 50.8492 38.2255ZM70.2831 35.4367C70.2831 36.977 69.04 38.2255 67.507 38.2255C65.9739 38.2255 64.7308 36.977 64.7308 35.4367C64.7308 33.8969 65.9739 32.6484 67.507 32.6484C69.04 32.6484 70.2831 33.8969 70.2831 35.4367Z" fill="#14353C" fill-opacity="0.7"/>
</svg>
