<svg width="80" height="80" viewBox="0 0 80 80" fill="none" xmlns="http://www.w3.org/2000/svg">
<path fill-rule="evenodd" clip-rule="evenodd" d="M19.0574 68C15.1597 68 12 64.866 12 61V19C12 15.134 15.1597 12 19.0574 12H42.582C46.4796 12 49.6393 15.134 49.6393 19V32.9431H41.8361C38.5405 32.9431 35.8689 35.593 35.8689 38.8618C35.8689 40.4522 36.5013 41.8958 37.5301 42.9594C36.5013 44.0229 35.8689 45.4665 35.8689 47.0569C35.8689 48.6473 36.5013 50.091 37.5301 51.1545C36.5013 52.218 35.8689 53.6617 35.8689 55.252C35.8689 58.5208 38.5405 61.1707 41.8361 61.1707H49.6373C49.5459 64.9578 46.4221 68 42.582 68H19.0574ZM30.8197 60.9431C32.0872 60.9431 33.1148 59.9239 33.1148 58.6667C33.1148 57.4094 32.0872 56.3902 30.8197 56.3902C29.5521 56.3902 28.5246 57.4094 28.5246 58.6667C28.5246 59.9239 29.5521 60.9431 30.8197 60.9431ZM28.2951 23.6098H33.3443C34.7386 23.6098 35.8689 22.5906 35.8689 21.3333C35.8689 20.0761 34.7386 19.0569 33.3443 19.0569H28.2951C26.9008 19.0569 25.7705 20.0761 25.7705 21.3333C25.7705 22.5906 26.9008 23.6098 28.2951 23.6098Z" fill="#14353C" fill-opacity="0.2"/>
<path d="M41.8361 41.1382C40.5685 41.1382 39.541 40.119 39.541 38.8618C39.541 37.6046 40.5685 36.5854 41.8361 36.5854C43.1036 36.5854 44.1311 37.6046 44.1311 38.8618C44.1311 39.4655 43.8893 40.0446 43.4589 40.4715C43.0285 40.8984 42.4448 41.1382 41.8361 41.1382Z" fill="#14353C" fill-opacity="0.2"/>
<path d="M46.8852 38.8618C46.8852 37.6046 47.9421 36.5854 49.2459 36.5854H65.6393C66.9431 36.5854 68 37.6046 68 38.8618C68 40.119 66.9431 41.1382 65.6393 41.1382H49.2459C47.9421 41.1382 46.8852 40.119 46.8852 38.8618Z" fill="#14353C" fill-opacity="0.2"/>
<path d="M41.8361 49.3333C40.5685 49.3333 39.541 48.3141 39.541 47.0569C39.541 45.7997 40.5685 44.7805 41.8361 44.7805C43.1036 44.7805 44.1311 45.7997 44.1311 47.0569C44.1311 47.6607 43.8893 48.2397 43.4589 48.6666C43.0285 49.0935 42.4448 49.3333 41.8361 49.3333Z" fill="#14353C" fill-opacity="0.2"/>
<path d="M46.8852 47.0569C46.8852 45.7997 47.9421 44.7805 49.2459 44.7805H65.6393C66.9431 44.7805 68 45.7997 68 47.0569C68 48.3141 66.9431 49.3333 65.6393 49.3333H49.2459C47.9421 49.3333 46.8852 48.3141 46.8852 47.0569Z" fill="#14353C" fill-opacity="0.2"/>
<path d="M39.541 55.252C39.541 56.5093 40.5685 57.5285 41.8361 57.5285C42.4448 57.5285 43.0285 57.2886 43.4589 56.8617C43.8893 56.4348 44.1311 55.8558 44.1311 55.252C44.1311 53.9948 43.1036 52.9756 41.8361 52.9756C40.5685 52.9756 39.541 53.9948 39.541 55.252Z" fill="#14353C" fill-opacity="0.2"/>
<path d="M49.2459 52.9756C47.9421 52.9756 46.8852 53.9948 46.8852 55.252C46.8852 56.5093 47.9421 57.5285 49.2459 57.5285H65.6393C66.9431 57.5285 68 56.5093 68 55.252C68 53.9948 66.9431 52.9756 65.6393 52.9756H49.2459Z" fill="#14353C" fill-opacity="0.2"/>
<path d="M41.8361 41.1382C40.5685 41.1382 39.541 40.119 39.541 38.8618C39.541 37.6046 40.5685 36.5854 41.8361 36.5854C43.1036 36.5854 44.1311 37.6046 44.1311 38.8618C44.1311 39.4655 43.8893 40.0446 43.4589 40.4715C43.0285 40.8984 42.4448 41.1382 41.8361 41.1382Z" fill="#14353C" fill-opacity="0.7"/>
<path d="M46.8852 38.8618C46.8852 37.6046 47.9421 36.5854 49.2459 36.5854H65.6393C66.9431 36.5854 68 37.6046 68 38.8618C68 40.119 66.9431 41.1382 65.6393 41.1382H49.2459C47.9421 41.1382 46.8852 40.119 46.8852 38.8618Z" fill="#14353C" fill-opacity="0.7"/>
<path d="M41.8361 49.3333C40.5685 49.3333 39.541 48.3141 39.541 47.0569C39.541 45.7997 40.5685 44.7805 41.8361 44.7805C43.1036 44.7805 44.1311 45.7997 44.1311 47.0569C44.1311 47.6607 43.8893 48.2397 43.4589 48.6666C43.0285 49.0935 42.4448 49.3333 41.8361 49.3333Z" fill="#14353C" fill-opacity="0.7"/>
<path d="M46.8852 47.0569C46.8852 45.7997 47.9421 44.7805 49.2459 44.7805H65.6393C66.9431 44.7805 68 45.7997 68 47.0569C68 48.3141 66.9431 49.3333 65.6393 49.3333H49.2459C47.9421 49.3333 46.8852 48.3141 46.8852 47.0569Z" fill="#14353C" fill-opacity="0.7"/>
<path d="M39.541 55.252C39.541 56.5093 40.5685 57.5285 41.8361 57.5285C42.4448 57.5285 43.0285 57.2886 43.4589 56.8617C43.8893 56.4348 44.1311 55.8558 44.1311 55.252C44.1311 53.9948 43.1036 52.9756 41.8361 52.9756C40.5685 52.9756 39.541 53.9948 39.541 55.252Z" fill="#14353C" fill-opacity="0.7"/>
<path d="M49.2459 52.9756C47.9421 52.9756 46.8852 53.9948 46.8852 55.252C46.8852 56.5093 47.9421 57.5285 49.2459 57.5285H65.6393C66.9431 57.5285 68 56.5093 68 55.252C68 53.9948 66.9431 52.9756 65.6393 52.9756H49.2459Z" fill="#14353C" fill-opacity="0.7"/>
</svg>
