<svg width="80" height="80" viewBox="0 0 80 80" fill="none" xmlns="http://www.w3.org/2000/svg">
<path d="M35.3503 42.0108C36.3889 43.0631 38.0745 43.0631 39.1158 42.0108L50.4123 30.5946C51.4535 29.5423 51.4535 27.8388 50.4123 26.7892C49.3737 25.7369 47.688 25.7369 46.6468 26.7892L37.233 36.3027L33.4649 32.4973C32.4263 31.445 30.7406 31.445 29.6994 32.4973C28.6608 33.5469 28.6608 35.2531 29.6994 36.3027L35.3503 42.0108Z" fill="#14353C" fill-opacity="0.2"/>
<path fill-rule="evenodd" clip-rule="evenodd" d="M40 68C40 68 65 51.0288 65 37.1429C65 23.2569 53.8074 12 40 12C26.1926 12 15 23.2569 15 37.1429C15 51.0288 40 68 40 68ZM40 49.7143C48.2843 49.7143 55 42.9602 55 34.6286C55 26.2969 48.2843 19.5429 40 19.5429C31.7157 19.5429 25 26.2969 25 34.6286C25 42.9602 31.7157 49.7143 40 49.7143Z" fill="#14353C" fill-opacity="0.2"/>
<path d="M35.3503 42.0108C36.3889 43.0631 38.0745 43.0631 39.1158 42.0108L50.4123 30.5946C51.4535 29.5423 51.4535 27.8388 50.4123 26.7892C49.3737 25.7369 47.688 25.7369 46.6468 26.7892L37.233 36.3027L33.4649 32.4973C32.4263 31.445 30.7406 31.445 29.6994 32.4973C28.6608 33.5469 28.6608 35.2531 29.6994 36.3027L35.3503 42.0108Z" fill="#14353C" fill-opacity="0.7"/>
</svg>
