<svg width="80" height="80" viewBox="0 0 80 80" fill="none" xmlns="http://www.w3.org/2000/svg">
<path d="M58.8941 18.8085C58.8941 16.7051 56.7946 15 54.2047 15L16.6894 15C14.0995 15 12 16.7051 12 18.8085L12 53.0847L21.3788 45.4678H30.6088V37.3381C30.6088 34.9112 32.6083 32.9438 35.0749 32.9438H58.8941L58.8941 18.8085Z" fill="#14353C" fill-opacity="0.2"/>
<path d="M38.5237 36.7818C36.7149 36.7818 35.2486 37.9623 35.2486 39.4184V57.0901C35.2486 58.5463 36.7149 59.7267 38.5237 59.7267H61.4497L68 65V39.4184C68 37.9623 66.5337 36.7818 64.7249 36.7818H38.5237Z" fill="#14353C" fill-opacity="0.2"/>
<path d="M38.5237 36.7818C36.7149 36.7818 35.2486 37.9623 35.2486 39.4184V57.0901C35.2486 58.5463 36.7149 59.7267 38.5237 59.7267H61.4497L68 65V39.4184C68 37.9623 66.5337 36.7818 64.7249 36.7818H38.5237Z" fill="#14353C" fill-opacity="0.7"/>
</svg>
