<svg width="80" height="80" viewBox="0 0 80 80" fill="none" xmlns="http://www.w3.org/2000/svg">
<path d="M66.5325 42.8C66.5659 42.3376 66.5833 41.8707 66.5842 41.4C66.5842 30.5752 57.8115 21.8 46.9899 21.8C36.1682 21.8 27.3955 30.5752 27.3955 41.4C27.3955 46.1978 29.1189 50.5931 31.9803 54H19.6342C15.4179 54 12 50.2392 12 45.6V20.4C12 15.7608 15.4179 12 19.6342 12H60.3496C64.5659 12 67.9838 15.7608 67.9838 20.4V42.8H66.5325Z" fill="#14353C" fill-opacity="0.2"/>
<path fill-rule="evenodd" clip-rule="evenodd" d="M46.9899 56.8C38.4871 56.8 31.5943 49.9052 31.5943 41.4C31.5943 32.8948 38.4871 26 46.9899 26C55.4926 26 62.3854 32.8948 62.3854 41.4C62.3795 44.634 61.3791 47.6344 59.6738 50.1116L67.172 57.612C67.7019 58.1378 68 58.8534 68 59.6C68 60.3466 67.7019 61.0623 67.172 61.588C66.6437 62.1121 65.9286 62.4043 65.1846 62.4C64.4405 62.4043 63.7254 62.1121 63.1972 61.588L55.699 54.0876C53.2225 55.7935 50.2229 56.7941 46.9899 56.8ZM46.9899 31.6C43.0273 31.6 39.4549 33.9877 37.9385 37.6497C36.4221 41.3117 37.2603 45.5269 40.0622 48.3296C42.8642 51.1324 47.0781 51.9709 50.7391 50.454C54.4 48.9372 56.787 45.3637 56.787 41.4C56.787 35.9876 52.4007 31.6 46.9899 31.6Z" fill="#14353C" fill-opacity="0.2"/>
<path d="M32.9939 59.6C30.675 59.6 28.7951 61.4804 28.7951 63.8C28.7951 66.1196 30.675 68 32.9939 68H46.9899C49.3088 68 51.1886 66.1196 51.1886 63.8C51.1886 61.4804 49.3088 59.6 46.9899 59.6H32.9939Z" fill="#14353C" fill-opacity="0.2"/>
<path fill-rule="evenodd" clip-rule="evenodd" d="M46.9899 56.8C38.4871 56.8 31.5943 49.9052 31.5943 41.4C31.5943 32.8948 38.4871 26 46.9899 26C55.4926 26 62.3854 32.8948 62.3854 41.4C62.3795 44.634 61.3791 47.6344 59.6738 50.1116L67.172 57.612C67.7019 58.1378 68 58.8534 68 59.6C68 60.3466 67.7019 61.0623 67.172 61.588C66.6437 62.1121 65.9286 62.4043 65.1846 62.4C64.4405 62.4043 63.7254 62.1121 63.1972 61.588L55.699 54.0876C53.2225 55.7935 50.2229 56.7941 46.9899 56.8ZM46.9899 31.6C43.0273 31.6 39.4549 33.9877 37.9385 37.6497C36.4221 41.3117 37.2603 45.5269 40.0622 48.3296C42.8642 51.1324 47.0781 51.9709 50.7391 50.454C54.4 48.9372 56.787 45.3637 56.787 41.4C56.787 35.9876 52.4007 31.6 46.9899 31.6Z" fill="#14353C" fill-opacity="0.7"/>
</svg>
