<svg width="80" height="80" viewBox="0 0 80 80" fill="none" xmlns="http://www.w3.org/2000/svg">
<path d="M59.4576 19.8093C59.4576 17.7056 57.3327 16 54.7119 16H16.7458C14.1249 16 12 17.7056 12 19.8093V52.6266L21.4915 46.4736H25.2881V36.241C25.2881 31.9823 28.6876 28.5302 32.8814 28.5302H59.4576V19.8093Z" fill="#14353C" fill-opacity="0.2"/>
<path d="M53.8934 42.7593C53.8934 44.3962 52.5865 45.7229 50.9746 45.7229C49.3627 45.7229 48.0557 44.3962 48.0557 42.7593C48.0557 41.1225 49.3627 39.7953 50.9746 39.7953C52.5865 39.7953 53.8934 41.1225 53.8934 42.7593Z" fill="#14353C" fill-opacity="0.2"/>
<path fill-rule="evenodd" clip-rule="evenodd" d="M35.4086 32.3856C31.916 32.3856 29.0847 35.2607 29.0847 38.8074V57.5787C29.0847 61.1249 31.916 64 35.4086 64H61.6762C65.1688 64 68 61.1249 68 57.5787V38.8074C68 35.2607 65.1688 32.3856 61.6762 32.3856H35.4086ZM33.9492 38.8074C33.9492 37.989 34.6026 37.3254 35.4086 37.3254H61.6762C62.4821 37.3254 63.1356 37.989 63.1356 38.8074V53.6517L56.3729 48.2305C55.5303 47.5546 54.3508 47.5203 53.4712 48.1453L50.2785 50.4151L44.9112 44.9647C44.6693 44.7191 44.382 44.5308 44.0696 44.408C43.7846 44.2955 43.4782 44.2381 43.1663 44.2414C42.5128 44.2479 41.8895 44.5219 41.4367 45.0005L33.9492 52.9208V38.8074ZM34.9567 58.9882C35.099 59.0348 35.251 59.0602 35.4086 59.0602H61.6762C61.7837 59.0602 61.8884 59.0485 61.989 59.0263L54.7786 53.2455L51.3963 55.65C50.4296 56.3371 49.1161 56.2204 48.2814 55.3733L43.2266 50.2401L34.9567 58.9882Z" fill="#14353C" fill-opacity="0.2"/>
<path d="M53.8934 42.7593C53.8934 44.3962 52.5865 45.7229 50.9746 45.7229C49.3627 45.7229 48.0557 44.3962 48.0557 42.7593C48.0557 41.1225 49.3627 39.7953 50.9746 39.7953C52.5865 39.7953 53.8934 41.1225 53.8934 42.7593Z" fill="#14353C" fill-opacity="0.7"/>
<path fill-rule="evenodd" clip-rule="evenodd" d="M35.4086 32.3856C31.916 32.3856 29.0847 35.2607 29.0847 38.8074V57.5787C29.0847 61.1249 31.916 64 35.4086 64H61.6762C65.1688 64 68 61.1249 68 57.5787V38.8074C68 35.2607 65.1688 32.3856 61.6762 32.3856H35.4086ZM33.9492 38.8074C33.9492 37.989 34.6026 37.3254 35.4086 37.3254H61.6762C62.4821 37.3254 63.1356 37.989 63.1356 38.8074V53.6517L56.3729 48.2305C55.5303 47.5546 54.3508 47.5203 53.4712 48.1453L50.2785 50.4151L44.9112 44.9647C44.6693 44.7191 44.382 44.5308 44.0696 44.408C43.7846 44.2955 43.4782 44.2381 43.1663 44.2414C42.5128 44.2479 41.8895 44.5219 41.4367 45.0005L33.9492 52.9208V38.8074ZM34.9567 58.9882C35.099 59.0348 35.251 59.0602 35.4086 59.0602H61.6762C61.7837 59.0602 61.8884 59.0485 61.989 59.0263L54.7786 53.2455L51.3963 55.65C50.4296 56.3371 49.1161 56.2204 48.2815 55.3733L43.2266 50.2401L34.9567 58.9882Z" fill="#14353C" fill-opacity="0.7"/>
</svg>
