<svg width="80" height="80" viewBox="0 0 80 80" fill="none" xmlns="http://www.w3.org/2000/svg">
<path d="M19.2258 15C15.2349 15 12 18.1978 12 22.1428V46.2499C12 50.195 15.2349 53.3928 19.2258 53.3928H38.6094L39.8337 46.6964L34.129 40.8928C32.865 39.7672 31.8489 35.9376 35.0323 34.1964L45.3854 32.1735L50.1767 23.2594C50.9318 21.7736 54.2095 21.7675 54.9681 23.2594C55.7262 24.7517 60.1682 31.7742 60.1682 31.7742L62.5806 32.0719V22.1428C62.5806 18.1978 59.3457 15 55.3548 15H19.2258Z" fill="#14353C" fill-opacity="0.2"/>
<path d="M30.9621 57.5C28.8675 57.5 27.1696 59.1789 27.1696 61.25C27.1696 63.3211 28.8675 65 30.9621 65H43.6036C45.6981 65 47.396 63.3211 47.396 61.25C47.396 59.1789 45.6981 57.5 43.6036 57.5H30.9621Z" fill="#14353C" fill-opacity="0.2"/>
<path d="M44.3421 54.086L52.6443 50.0973L60.9466 54.086C61.9437 54.5651 62.585 54.1482 62.3766 53.1537L60.6569 44.9467L67.5101 39.1934C68.3333 38.5023 68.095 37.8353 66.9761 37.705L57.5964 36.6129L53.5354 29.079C53.0412 28.1622 52.2454 28.166 51.7533 29.079L47.6923 36.6129L38.3125 37.705C37.2007 37.8344 36.9545 38.5016 37.7785 39.1934L44.6318 44.9467L42.912 53.1537C42.7027 54.1523 43.3439 54.5656 44.3421 54.086Z" fill="#14353C" fill-opacity="0.2"/>
<path d="M44.3421 54.086L52.6443 50.0973L60.9466 54.086C61.9437 54.5651 62.585 54.1482 62.3766 53.1537L60.6569 44.9467L67.5101 39.1934C68.3333 38.5023 68.095 37.8353 66.9761 37.705L57.5964 36.6129L53.5354 29.079C53.0412 28.1622 52.2454 28.166 51.7533 29.079L47.6923 36.6129L38.3125 37.705C37.2007 37.8344 36.9545 38.5016 37.7785 39.1934L44.6318 44.9467L42.912 53.1537C42.7027 54.1523 43.3439 54.5656 44.3421 54.086Z" fill="#14353C" fill-opacity="0.7"/>
</svg>
