<svg width="80" height="80" viewBox="0 0 80 80" fill="none" xmlns="http://www.w3.org/2000/svg">
<path d="M31.1628 56.3529H44.0405C44.8964 56.358 45.7188 56.0207 46.3265 55.4154L62.6428 39.045V59.1765C62.6428 63.335 59.2839 66.7059 55.1402 66.7059H19.5026C15.3589 66.7059 12 63.335 12 59.1765V21.5294C12 17.3709 15.3589 14 19.5026 14H52.6958L28.8768 37.8975C28.2742 38.5078 27.9381 39.3336 27.9431 40.1926V53.1209C27.9431 54.9058 29.3846 56.3529 31.1628 56.3529Z" fill="#14353C" fill-opacity="0.2"/>
<path fill-rule="evenodd" clip-rule="evenodd" d="M43.0249 52.3053H33.9605C32.709 52.3053 31.6945 51.2871 31.6945 50.0311V40.9344C31.691 40.33 31.9274 39.749 32.3516 39.3198L53.1741 18.4351C56.5657 15.0314 62.0647 15.0314 65.4563 18.4351C68.8479 21.8388 68.8479 27.3574 65.4563 30.7611L61.7417 34.4868C61.7191 34.5113 61.696 34.5354 61.6723 34.559C61.6527 34.5785 61.6327 34.5977 61.6125 34.6164L44.6338 51.6458C44.2061 52.0715 43.6272 52.3088 43.0249 52.3053ZM56.8468 32.9456L42.0958 47.757H36.2267V41.8669L50.9943 27.0722L56.8468 32.9456ZM60.0638 29.7155L62.2385 27.5319C63.4404 26.3502 63.8065 24.5543 63.1636 22.9938C62.5207 21.4334 60.9977 20.4213 59.3152 20.4365C58.2147 20.4285 57.1587 20.8721 56.392 21.6645L54.2149 23.8456L60.0638 29.7155Z" fill="#14353C" fill-opacity="0.2"/>
<path fill-rule="evenodd" clip-rule="evenodd" d="M43.0249 52.3053H33.9605C32.709 52.3053 31.6945 51.2871 31.6945 50.0311V40.9344C31.691 40.33 31.9274 39.749 32.3516 39.3198L53.1741 18.4351C56.5657 15.0314 62.0647 15.0314 65.4563 18.4351C68.8479 21.8388 68.8479 27.3574 65.4563 30.7611L61.7417 34.4868C61.7191 34.5113 61.696 34.5354 61.6723 34.559C61.6527 34.5785 61.6327 34.5977 61.6125 34.6164L44.6338 51.6458C44.2061 52.0715 43.6272 52.3088 43.0249 52.3053ZM56.8468 32.9456L42.0958 47.757H36.2267V41.8669L50.9943 27.0722L56.8468 32.9456ZM60.0638 29.7155L62.2385 27.5319C63.4404 26.3502 63.8065 24.5543 63.1636 22.9938C62.5207 21.4334 60.9977 20.4213 59.3152 20.4365C58.2147 20.4285 57.1587 20.8721 56.392 21.6645L54.2149 23.8456L60.0638 29.7155Z" fill="#14353C" fill-opacity="0.7"/>
</svg>
