<svg width="80" height="80" viewBox="0 0 80 80" fill="none" xmlns="http://www.w3.org/2000/svg">
<path d="M12 21.4286C12 17.3259 15.3429 14 19.4667 14H56.8C60.9237 14 64.2667 17.3259 64.2667 21.4286V22.4281C61.3593 22.8748 59.1333 25.3752 59.1333 28.3928V39.8231C58.0433 38.7824 56.5634 38.1428 54.9333 38.1428C53.3033 38.1428 51.8234 38.7824 50.7333 39.8231V35.8214C50.7333 32.488 48.0172 29.7857 44.6667 29.7857C41.3161 29.7857 38.6 32.488 38.6 35.8214V43.1073C37.4872 41.7761 35.8097 40.9285 33.9333 40.9285C30.5828 40.9285 27.8667 43.6308 27.8667 46.9642V52.5356C27.8667 53.015 27.9228 53.4814 28.029 53.9285H19.4667C15.3429 53.9285 12 50.6026 12 46.4999V21.4286Z" fill="#14353C" fill-opacity="0.2"/>
<path d="M31.5941 58.2C29.4298 58.2 27.6753 59.9461 27.6753 62.1C27.6753 64.2539 29.4298 66 31.5941 66H44.657C46.8213 66 48.5759 64.2539 48.5759 62.1C48.5759 59.9461 46.8213 58.2 44.657 58.2H31.5941Z" fill="#14353C" fill-opacity="0.2"/>
<path d="M31.6 47.1964C31.6 45.7861 32.7491 44.6428 34.1667 44.6428C35.5842 44.6428 36.7333 45.7861 36.7333 47.1964V52.3035C36.7333 53.7138 35.5842 54.8571 34.1667 54.8571C32.7491 54.8571 31.6 53.7138 31.6 52.3035V47.1964Z" fill="#14353C" fill-opacity="0.2"/>
<path d="M44.6667 33.5C43.1203 33.5 41.8667 34.7472 41.8667 36.2857V52.0714C41.8667 53.6099 43.1203 54.8571 44.6667 54.8571C46.2131 54.8571 47.4667 53.6099 47.4667 52.0714V36.2857C47.4667 34.7472 46.2131 33.5 44.6667 33.5Z" fill="#14353C" fill-opacity="0.2"/>
<path d="M52.1333 44.6428C52.1333 43.1043 53.3869 41.8571 54.9333 41.8571C56.4797 41.8571 57.7333 43.1043 57.7333 44.6428V52.0714C57.7333 53.6099 56.4797 54.8571 54.9333 54.8571C53.3869 54.8571 52.1333 53.6099 52.1333 52.0714V44.6428Z" fill="#14353C" fill-opacity="0.2"/>
<path d="M65.2 26.0714C63.6536 26.0714 62.4 27.3186 62.4 28.8571V52.0714C62.4 53.6099 63.6536 54.8571 65.2 54.8571C66.7464 54.8571 68 53.6099 68 52.0714V28.8571C68 27.3186 66.7464 26.0714 65.2 26.0714Z" fill="#14353C" fill-opacity="0.2"/>
<path d="M31.6 47.1964C31.6 45.7861 32.7491 44.6428 34.1667 44.6428C35.5842 44.6428 36.7333 45.7861 36.7333 47.1964V52.3035C36.7333 53.7138 35.5842 54.8571 34.1667 54.8571C32.7491 54.8571 31.6 53.7138 31.6 52.3035V47.1964Z" fill="#14353C" fill-opacity="0.7"/>
<path d="M44.6667 33.5C43.1203 33.5 41.8667 34.7472 41.8667 36.2857V52.0714C41.8667 53.6099 43.1203 54.8571 44.6667 54.8571C46.2131 54.8571 47.4667 53.6099 47.4667 52.0714V36.2857C47.4667 34.7472 46.2131 33.5 44.6667 33.5Z" fill="#14353C" fill-opacity="0.7"/>
<path d="M52.1333 44.6428C52.1333 43.1043 53.3869 41.8571 54.9333 41.8571C56.4797 41.8571 57.7333 43.1043 57.7333 44.6428V52.0714C57.7333 53.6099 56.4797 54.8571 54.9333 54.8571C53.3869 54.8571 52.1333 53.6099 52.1333 52.0714V44.6428Z" fill="#14353C" fill-opacity="0.7"/>
<path d="M65.2 26.0714C63.6536 26.0714 62.4 27.3186 62.4 28.8571V52.0714C62.4 53.6099 63.6536 54.8571 65.2 54.8571C66.7464 54.8571 68 53.6099 68 52.0714V28.8571C68 27.3186 66.7464 26.0714 65.2 26.0714Z" fill="#14353C" fill-opacity="0.7"/>
</svg>
