<svg width="24" height="18" viewBox="0 0 24 18" fill="none" xmlns="http://www.w3.org/2000/svg">
<path d="M1.38693 17.8286C6.99497 15.7486 10.4925 11.232 10.4925 6.12114C10.4925 2.496 8.32161 0 5.06533 0C2.17085 0 0 2.02057 0 4.69486C0 6.77486 1.26633 8.37943 3.25628 8.91429C4.76382 9.33029 4.76382 9.33028 5.00502 9.568C5.24623 9.80571 5.42713 10.2811 5.42713 10.6971C5.42713 12.7177 3.55779 14.7383 0.301508 16.224L1.38693 17.8286ZM14.8945 17.8286C20.5025 15.7486 24 11.232 24 6.12114C24 2.43657 21.8291 0 18.5729 0C15.6784 0 13.5075 2.02057 13.5075 4.69486C13.5075 6.77486 14.7739 8.37943 16.7638 8.91429C18.2714 9.33029 18.2714 9.33028 18.5126 9.568C18.7538 9.80571 18.9347 10.2811 18.9347 10.6971C18.9347 12.7177 17.0653 14.7383 13.809 16.224L14.8945 17.8286Z" fill="#46555F"/>
</svg>
