<svg width="56" height="56" viewBox="0 0 56 56" fill="none" xmlns="http://www.w3.org/2000/svg">
<path fill-rule="evenodd" clip-rule="evenodd" d="M2 7.2C2 4.32812 4.32812 2 7.2 2H48.8C51.6719 2 54 4.32812 54 7.2V54L43.6 43.6H7.2C4.32812 43.6 2 41.2719 2 38.4V7.2ZM17 11C15.8954 11 15 11.8954 15 13C15 14.1046 15.8954 15 17 15H37C38.1046 15 39 14.1046 39 13C39 11.8954 38.1046 11 37 11H17ZM15 23C15 21.8954 15.8954 21 17 21H37C38.1046 21 39 21.8954 39 23C39 24.1046 38.1046 25 37 25H17C15.8954 25 15 24.1046 15 23ZM17 31C15.8954 31 15 31.8954 15 33C15 34.1046 15.8954 35 17 35H37C38.1046 35 39 34.1046 39 33C39 31.8954 38.1046 31 37 31H17Z" fill="#E9446A"/>
</svg>
