<svg width="160" height="80" viewBox="0 0 160 80" fill="none" xmlns="http://www.w3.org/2000/svg">
<path d="M129.644 8H30V71.5861H129.644V8Z" fill="#FFCB04"/>
<path d="M44.9199 17.8418V62.1576H66.1277V54.7365H52.3799V17.8418H44.9199Z" fill="#231F20"/>
<path d="M79.8223 62.1576H87.2823V39.9997H94.7423V32.6313H87.2823V25.2102H94.7423V17.8418H79.8223V62.1576Z" fill="#231F20"/>
<path d="M99.751 17.8418V32.6313H97.2466V39.9997H99.751V62.1576H114.671V54.7365H107.211V39.9997H114.671V32.6313H107.211V17.8418H99.751Z" fill="#231F20"/>
<path d="M66.1281 30.1572C59.9469 30.1572 54.8848 35.1046 54.8848 41.2099C54.8848 47.3151 59.8936 52.2625 66.1281 52.2625C72.3092 52.2625 77.3181 47.3151 77.3181 41.2099C77.3181 35.1046 72.3092 30.1572 66.1281 30.1572ZM66.1281 44.8941C64.0499 44.8941 62.3981 43.2625 62.3981 41.2099C62.3981 39.1572 64.0499 37.5256 66.1281 37.5256C68.2062 37.5256 69.8581 39.1572 69.8581 41.2099C69.8581 43.2625 68.1529 44.8941 66.1281 44.8941Z" fill="#231F20"/>
</svg>
