<svg width="86" height="30" viewBox="0 0 86 30" fill="none" xmlns="http://www.w3.org/2000/svg">
<path d="M49.3027 4.53832L37.5808 2.65226V0L49.3027 1.88606V4.53832Z" fill="white"/>
<path d="M49.3027 11.1395L37.5808 9.25345V6.60119L49.3027 8.48725V11.1395Z" fill="white"/>
<path d="M37.5808 15.8546L49.3027 17.7407V15.0884L37.5808 13.2024V15.8546Z" fill="white"/>
<path d="M20.4397 0.707276H27.8027C30.2178 0.707276 32.1616 2.71122 32.1616 5.12771V16.9745H20.4397V14.3222H29.511V4.83301C29.511 4.06681 28.9219 3.35954 28.0384 3.35954H20.4397V0.707276Z" fill="white"/>
<path d="M62.1438 0.707276H54.7808V3.35954H62.3795C63.263 3.35954 63.8521 4.06681 63.8521 4.83301V14.3222H54.7808V16.9745H66.5028V5.12771C66.5028 2.71122 64.5589 0.707276 62.1438 0.707276Z" fill="white"/>
<path d="M82.1712 10.668H84.763L86 16.9745H71.6274L74.5726 0.707276H77.2233L74.7493 14.3222H82.7603L82.1712 10.668Z" fill="white"/>
<path fill-rule="evenodd" clip-rule="evenodd" d="M11.2507 0.707276H0V16.9745H13.0178V18.7426L15.6685 17.2692V5.12771C15.6685 2.71122 13.6658 0.707276 11.2507 0.707276ZM13.0178 14.3222H2.65069V3.35954H11.5452C12.3699 3.35954 13.0178 4.00785 13.0178 4.83301V14.3222Z" fill="white"/>
<path d="M4.65342 24.8723L3.35754 26.4637L4.94794 29.6464V29.7053C4.94794 29.7642 4.88905 29.7642 4.83014 29.7642H3.82877C3.71097 29.7642 3.65206 29.7642 3.65206 29.7053L2.65069 27.2299C2.65069 27.2299 2.65069 27.1709 2.59178 27.2299L1.82603 28.114V29.6464C1.82603 29.7053 1.76712 29.7642 1.70822 29.7642H0.765764C0.706857 29.7642 0.647949 29.7053 0.647949 29.6464V22.9273C0.647949 22.8684 0.706857 22.8094 0.765764 22.8094H1.64933C1.70822 22.8094 1.76712 22.8684 1.76712 22.9273V26.7584H1.82603L3.41645 24.8134C3.47534 24.7544 3.53425 24.7544 3.59315 24.7544H4.53562C4.59453 24.7544 4.65342 24.8134 4.65342 24.8134V24.8723Z" fill="white"/>
<path d="M12.1932 24.8134H11.2507C11.1918 24.8134 11.1329 24.8723 11.1329 24.9312V28.1729C11.1329 28.4676 11.074 28.7034 10.8973 28.8212C10.7206 28.998 10.5438 29.057 10.2493 29.057C9.66027 29.057 9.42466 28.7623 9.42466 28.2318V24.8723C9.42466 24.8133 9.36575 24.7544 9.30684 24.7544H8.36439C8.30548 24.7544 8.24658 24.8133 8.24658 24.8723V28.4087C8.24658 28.8802 8.42328 29.2927 8.7178 29.5285C9.01232 29.7642 9.42466 29.8821 9.89588 29.8821C10.426 29.8821 10.8384 29.7053 11.074 29.4106H11.1329V29.7053C11.1329 29.7642 11.1918 29.8232 11.2507 29.8232H12.1932C12.252 29.8232 12.311 29.7642 12.311 29.7053V24.8723C12.3699 24.8133 12.311 24.8134 12.1932 24.8134Z" fill="white"/>
<path d="M17.5534 24.8134H18.437C18.4959 24.8134 18.5253 24.8134 18.5401 24.8281C18.5548 24.8428 18.5548 24.8723 18.5548 24.9313V25.4028C18.5548 25.4617 18.4959 25.5207 18.437 25.5207H17.6123C17.5534 25.5207 17.5534 25.5796 17.5534 25.5796V28.3497C17.5534 28.5855 17.6123 28.7623 17.7301 28.8802C17.848 28.9391 18.0247 28.998 18.2603 28.998H18.3781C18.437 28.998 18.4959 29.057 18.4959 29.1159V29.7643C18.4959 29.8232 18.437 29.8821 18.3781 29.8821H17.9658C17.4356 29.8821 17.0822 29.8232 16.7877 29.6464C16.4932 29.4696 16.3754 29.1749 16.3754 28.7034V25.5796C16.3754 25.5501 16.3754 25.5354 16.368 25.528C16.3606 25.5207 16.3459 25.5207 16.3164 25.5207H15.8452C15.7863 25.5207 15.7274 25.4617 15.7274 25.4028V24.9313C15.7274 24.8723 15.7863 24.8134 15.8452 24.8134H16.3164C16.3754 24.8134 16.3754 24.7544 16.3754 24.7544V23.6346C16.3754 23.5756 16.4343 23.5167 16.4932 23.5167H17.3767C17.4356 23.5167 17.4945 23.5756 17.4945 23.6346V24.7544C17.4945 24.8134 17.4945 24.8134 17.5534 24.8134Z" fill="white"/>
<path d="M23.2671 24.9312C23.2671 24.8133 23.2082 24.8133 23.1493 24.8133H22.2069C22.1479 24.8133 22.089 24.8723 22.089 24.9312V29.7642C22.089 29.8232 22.1479 29.8821 22.2069 29.8821H23.1493C23.2082 29.8821 23.2671 29.8232 23.2671 29.7642V24.9312Z" fill="white"/>
<path fill-rule="evenodd" clip-rule="evenodd" d="M36.6384 24.7544C37.2863 24.7544 37.8164 24.8723 38.1699 25.167C38.5822 25.4617 38.7589 25.8153 38.7589 26.2869V28.3497C38.7589 28.8212 38.5233 29.1749 38.1699 29.4696C37.8164 29.7642 37.2863 29.8821 36.6384 29.8821C35.9904 29.8821 35.4603 29.7642 35.1069 29.4696C34.6945 29.2338 34.5178 28.8212 34.5178 28.3497V26.2869C34.5178 25.8153 34.7534 25.4617 35.1069 25.167C35.5192 24.8723 35.9904 24.7544 36.6384 24.7544ZM37.3452 28.8802C37.5219 28.7034 37.5808 28.5265 37.5808 28.2908V26.3458C37.5808 26.11 37.5219 25.9332 37.3452 25.7564C37.1685 25.5796 36.9329 25.5206 36.6973 25.5206C36.4616 25.5206 36.226 25.5796 36.0493 25.7564C35.8726 25.9332 35.8137 26.11 35.8137 26.3458V28.2908C35.8137 28.5265 35.8726 28.7034 36.0493 28.8802C36.226 29.057 36.4616 29.1159 36.6973 29.1159C36.9329 29.1159 37.1685 29.057 37.3452 28.8802Z" fill="white"/>
<path d="M47.6534 24.7544C47.3589 24.7544 47.1233 24.8133 46.8877 24.9312C46.652 25.0491 46.4164 25.167 46.2397 25.4028C46.2397 25.4028 46.2397 25.4617 46.1808 25.4617H46.1219C45.8274 24.9902 45.4151 24.8134 44.7671 24.8134C44.5719 24.8134 44.4172 24.8538 44.2358 24.9012C44.1983 24.911 44.1596 24.9211 44.1192 24.9312C43.8836 24.9902 43.7068 25.108 43.5301 25.2849H43.4712V24.9902C43.4712 24.9312 43.4123 24.8723 43.3534 24.8723H42.411C42.3521 24.8723 42.2931 24.9312 42.2931 24.9902V29.8232C42.2931 29.8821 42.3521 29.9411 42.411 29.9411H43.3534C43.4123 29.9411 43.4712 29.8821 43.4712 29.8232V26.5226C43.4712 26.2279 43.5301 25.9921 43.7068 25.8743C43.8836 25.6974 44.0603 25.6385 44.3548 25.6385C44.5904 25.6385 44.826 25.6974 44.9438 25.8743C45.1205 26.0511 45.1794 26.2869 45.1794 26.5816V29.8232C45.1794 29.8821 45.2384 29.9411 45.2973 29.9411H46.2397C46.2986 29.9411 46.3575 29.8821 46.3575 29.8232V26.5226C46.3575 26.2279 46.4164 25.9921 46.5931 25.8743C46.7699 25.6974 46.9466 25.6385 47.2411 25.6385C47.4767 25.6385 47.7123 25.6974 47.8301 25.8743C48.0069 26.0511 48.0657 26.2869 48.0657 26.5816V29.8232C48.0657 29.8821 48.1246 29.9411 48.1836 29.9411H49.126C49.1849 29.9411 49.2438 29.8821 49.2438 29.8232V26.4047C49.2438 25.8743 49.126 25.4617 48.8315 25.167C48.5959 24.8723 48.1836 24.7544 47.6534 24.7544Z" fill="white"/>
<path d="M53.1904 24.8133H54.1329C54.1918 24.8133 54.2507 24.8133 54.2507 24.9312V29.7642C54.2507 29.8232 54.1918 29.8821 54.1329 29.8821H53.1904C53.1315 29.8821 53.0726 29.8232 53.0726 29.7642V24.9312C53.0726 24.8723 53.1315 24.8133 53.1904 24.8133Z" fill="white"/>
<path d="M66.0904 24.9312C65.7959 24.8133 65.3836 24.7544 64.9712 24.7544C64.3233 24.7544 63.8521 24.8723 63.4397 25.167C63.0863 25.4617 62.8507 25.8153 62.8507 26.2869V28.3497C62.8507 28.8212 63.0274 29.2338 63.4397 29.4696C63.7932 29.7642 64.3233 29.8821 64.9712 29.8821C65.6192 29.8821 66.0904 29.7642 66.5028 29.4696C66.8562 29.1749 67.0918 28.8212 67.0918 28.4087V28.2318C67.0918 28.1729 67.0329 28.114 66.974 28.114H66.0315C65.9726 28.114 65.9137 28.1729 65.9137 28.2318V28.3497C65.9137 28.5265 65.8548 28.7034 65.6781 28.8212C65.5014 28.9391 65.2658 29.057 65.0302 29.057C64.7945 29.057 64.5589 28.998 64.3822 28.8212C64.2055 28.6444 64.1466 28.4676 64.1466 28.2318V26.2869C64.1466 26.0511 64.2055 25.8743 64.3822 25.6975C64.5589 25.5206 64.7356 25.4617 65.0302 25.4617C65.2658 25.4617 65.5014 25.5206 65.6781 25.6975C65.8548 25.8153 65.9137 25.9921 65.9137 26.169V26.2869C65.9137 26.3458 65.9726 26.4047 66.0315 26.4047H66.974C67.0329 26.4047 67.0918 26.3458 67.0918 26.2869V26.169C67.0918 25.8743 67.0329 25.6385 66.8562 25.4028C66.6795 25.2259 66.4438 25.0491 66.0904 24.9312Z" fill="white"/>
<path fill-rule="evenodd" clip-rule="evenodd" d="M72.6288 24.7544C73.2767 24.7544 73.8069 24.8723 74.1603 25.167C74.5137 25.4617 74.6904 25.8153 74.7493 26.2869V28.3497C74.7493 28.8212 74.5137 29.1749 74.1603 29.4696C73.8069 29.7642 73.2767 29.8821 72.6288 29.8821C71.9808 29.8821 71.4507 29.7642 71.0973 29.4696C70.6849 29.2338 70.5082 28.8212 70.5082 28.3497V26.2869C70.5082 25.8153 70.7438 25.4617 71.0973 25.167C71.5096 24.8723 71.9808 24.7544 72.6288 24.7544ZM73.2767 28.8802C73.4534 28.7034 73.5123 28.5265 73.5123 28.2908V26.3458C73.5123 26.11 73.4534 25.9332 73.2767 25.7564C73.1 25.5796 72.8644 25.5206 72.6288 25.5206C72.3932 25.5206 72.1575 25.5796 71.9808 25.7564C71.8041 25.9332 71.7452 26.11 71.7452 26.3458V28.2908C71.7452 28.5265 71.8041 28.7034 71.9808 28.8802C72.1575 29.057 72.3932 29.1159 72.6288 29.1159C72.8644 29.1159 73.1 29.057 73.2767 28.8802Z" fill="white"/>
<path d="M83.6438 24.7544C83.3493 24.7544 83.1137 24.8133 82.8781 24.9312C82.6425 25.0491 82.4069 25.167 82.2302 25.4028C82.2302 25.4028 82.2301 25.4617 82.1712 25.4617H82.1123C81.8178 24.9902 81.4055 24.8134 80.7576 24.8134C80.5624 24.8134 80.4076 24.8538 80.2263 24.9012C80.1887 24.911 80.15 24.9211 80.1096 24.9312C79.874 24.9902 79.6973 25.108 79.5206 25.2849H79.4617V24.9902C79.4617 24.9312 79.4028 24.8723 79.3438 24.8723H78.4014C78.3425 24.8723 78.2836 24.9312 78.2836 24.9902V29.8232C78.2836 29.8821 78.3425 29.9411 78.4014 29.9411H79.3438C79.4028 29.9411 79.4617 29.8821 79.4617 29.8232V26.5226C79.4617 26.2279 79.5206 25.9921 79.6973 25.8743C79.874 25.6974 80.0507 25.6385 80.3452 25.6385C80.5808 25.6385 80.8164 25.6974 80.9343 25.8743C81.111 26.0511 81.1699 26.2869 81.1699 26.5816V29.8232C81.1699 29.8821 81.2288 29.9411 81.2877 29.9411H82.2302C82.2891 29.9411 82.348 29.8821 82.348 29.8232V26.5226C82.348 26.2279 82.4069 25.9921 82.5836 25.8743C82.7603 25.6974 82.937 25.6385 83.2315 25.6385C83.4671 25.6385 83.7027 25.6974 83.8206 25.8743C83.9973 26.0511 84.0562 26.2869 84.0562 26.5816V29.8232C84.0562 29.8821 84.1151 29.9411 84.174 29.9411H85.1164C85.1753 29.9411 85.2343 29.8821 85.2343 29.8232V26.4047C85.2343 25.8743 85.1164 25.4617 84.8219 25.167C84.5274 24.8723 84.174 24.7544 83.6438 24.7544Z" fill="white"/>
<path d="M23.326 23.3988C23.326 23.7569 23.0359 24.0471 22.6781 24.0471C22.3202 24.0471 22.0301 23.7569 22.0301 23.3988C22.0301 23.0408 22.3202 22.7505 22.6781 22.7505C23.0359 22.7505 23.326 23.0408 23.326 23.3988Z" fill="white"/>
<path d="M53.6616 22.7505C53.3082 22.7505 53.0137 23.0452 53.0137 23.3988C53.0137 23.7525 53.3082 24.0471 53.6616 24.0471C54.0151 24.0471 54.3096 23.7525 54.3096 23.3988C54.2507 23.0452 54.0151 22.7505 53.6616 22.7505Z" fill="white"/>
<path d="M27.0959 22.9863V29.7642C27.0959 29.8232 27.1548 29.8821 27.1548 30H28.0973C28.1562 30 28.2151 29.9411 28.2151 29.8821V28.2318L28.9808 27.3477C28.9808 27.2888 29.0397 27.2888 29.0397 27.3477L30.0411 29.8232C30.1 29.8821 30.1589 29.8821 30.2178 29.8821H31.2192C31.2781 29.8821 31.337 29.8821 31.337 29.8232V29.7642L29.8644 26.4636V26.4047L31.1603 24.9312V24.8723C31.1264 24.8384 31.112 24.824 31.0947 24.8179C31.0819 24.8133 31.0675 24.8133 31.0425 24.8133H30.1C30.0411 24.8133 29.9822 24.8133 29.9233 24.8723L28.3329 26.8173H28.274V22.9863C28.274 22.9273 28.2151 22.8684 28.1562 22.8684H27.2137C27.1548 22.8684 27.0959 22.9273 27.0959 22.9863Z" fill="white"/>
</svg>
