<svg width="147" height="80" viewBox="0 0 147 80" fill="none" xmlns="http://www.w3.org/2000/svg">
<path d="M2.11348 45.4062C2.07639 44.8545 2.0393 44.2292 1.66847 43.7511C1.48305 43.5304 1.22346 43.3833 0.926788 43.3833C-0.40823 43.3465 0.0367783 45.4798 0.222198 46.2154C0.296365 46.5096 0.444702 46.8406 0.704289 47.0613C0.963876 47.282 1.26054 47.3923 1.5943 47.4291C2.15056 47.5394 2.29889 47.0613 2.26181 46.8774C2.15056 46.436 2.15056 45.9947 2.11348 45.4062Z" fill="#CE0E2D"/>
<path d="M38.4927 36.5057C38.4927 36.5057 37.1948 25.9498 28.0721 23.081C22.9546 21.4994 20.4329 21.9776 17.3178 22.4925C13.6465 23.1177 9.23355 24.6625 6.08142 27.3475C3.93056 29.1865 1.74261 31.945 0.889683 35.4391C0.444677 37.3149 0.370506 39.1539 0.741345 41.1032C0.852596 41.802 1.89095 42.5009 1.89095 41.3239C2.0022 28.3405 12.7936 25.913 13.1644 25.8395C13.3128 25.8027 13.424 25.8027 13.5724 25.7659C13.7578 25.7291 13.9432 25.6923 14.0915 25.7291C14.2028 25.7291 14.277 25.913 14.1286 25.9866C13.2757 26.3912 9.90106 27.5314 8.08395 29.1129C6.22976 30.7312 3.81931 33.3058 3.04055 37.793C2.9293 38.5654 2.78096 42.5376 3.15179 45.2962C3.3743 46.9145 4.48681 49.0845 5.19141 50.004C7.15685 52.505 10.6057 54.6383 12.4598 55.3003C13.6465 55.7049 15.0928 55.852 15.7974 55.9992C16.057 56.0727 16.0199 56.367 15.7603 56.4037C14.5736 56.5876 11.7182 55.9256 9.3448 54.7854C7.56478 53.9395 6.34101 52.7257 5.15433 51.4384C3.85639 50.0408 3.1518 48.5696 2.63262 48.6431C1.81678 48.7903 2.52137 50.5189 2.85513 51.1442C4.0789 53.3878 6.48934 55.3371 7.71311 55.9992C11.4957 58.0589 15.3153 58.0956 17.0582 57.9485C24.475 57.3232 29.0734 53.7924 31.0759 51.0339C32.2626 49.4155 34.9327 45.995 34.8585 40.9929C34.8585 40.1837 34.9327 34.6667 33.0785 31.7611C32.6705 31.099 31.4097 28.4141 26.7 26.0969C26.3292 25.913 24.7346 25.1039 23.3996 25.0671C22.8433 25.0671 21.7308 24.9935 21.8421 24.3683C21.9162 23.8901 24.6604 24.5154 24.9571 24.5889C26.9225 25.1407 29.4813 26.6486 31.2243 27.9727C36.6756 32.0921 36.1193 40.8825 36.1193 40.8825C35.8968 50.1879 30.4084 54.1602 26.4405 56.4773C26.3663 56.5141 26.0696 56.8819 26.1809 57.029C26.2921 57.1761 26.4775 57.1393 26.663 57.1393C28.1834 56.9922 29.6667 55.8888 30.9276 54.8958C37.4544 49.8201 37.7881 45.8846 38.1219 44.3766C38.7152 42.2802 38.7152 37.9034 38.4927 36.5057ZM22.9917 35.0713C22.9917 35.0713 23.0287 35.0713 22.9917 35.0713C23.3254 35.0345 23.4367 35.2184 23.5108 35.5126C23.5479 35.5862 23.585 35.8069 23.6592 36.0643C23.7704 36.5425 23.9929 37.5723 24.1042 37.7194C24.2154 37.7562 24.7717 37.9033 25.3279 38.0505C26.3292 38.3079 27.5159 38.639 28.0351 38.8229C28.1834 38.8964 28.3317 38.9332 28.5171 39.0068C30.1488 39.632 30.9647 39.9998 30.9647 40.3676C30.9647 40.5515 30.8905 40.7354 30.7793 40.8825C30.6309 41.0664 30.4084 41.14 30.1859 41.1032C29.9634 41.0664 26.218 41.2871 22.4725 41.6917C20.952 41.8388 19.6541 42.0227 18.6529 42.1698C14.5736 42.8319 7.45352 44.2295 7.23102 44.3031C7.19393 44.3031 7.11977 44.3399 7.08269 44.3399C6.86018 44.3766 6.67476 44.3031 6.60059 44.1927C6.52643 44.0824 6.52643 43.9721 6.60059 43.8617C6.78601 43.5307 9.01104 42.1331 10.1977 41.471C11.2732 40.8825 12.4969 40.2941 13.1644 39.9998C13.3869 39.8895 13.6094 39.7791 13.6465 39.7791C13.7207 39.7056 14.0915 39.1171 14.4253 38.639C15.4636 37.0206 15.5378 36.9471 15.6861 36.9471C15.7974 36.9471 17.4662 36.5057 19.0608 36.1011C21.4341 35.4391 22.8804 35.0713 22.9917 35.0713Z" fill="#CE0E2D"/>
<path d="M136.542 46.694H136.802V47.3928H136.95V46.694H137.21V46.5469H136.542V46.694Z" fill="#040000"/>
<path d="M137.803 47.2089L137.581 46.5469H137.321V47.3928H137.507V46.694L137.766 47.3928H137.878L138.137 46.694V47.3928H138.285V46.5469H138.063L137.803 47.2089Z" fill="#040000"/>
<path d="M64.6366 37.7564C64.0804 37.4989 63.8208 37.6828 63.5612 37.9771C61.8553 40 57.9986 43.1998 58.3324 46.51C58.4436 47.687 59.1482 49.195 60.7057 48.7169C61.1507 48.3123 60.9653 47.7974 61.1878 47.2824C62.4487 44.2665 66.0087 42.17 64.6366 37.7564Z" fill="#040000"/>
<path d="M81.7326 48.1657C77.95 48.5702 74.4271 46.4738 70.1253 46.768C71.2378 45.6278 72.6841 44.4877 73.945 43.3107C75.0946 42.2073 76.8004 40.8464 76.0958 38.7499C74.6866 38.2718 72.3504 38.5661 70.2737 38.4557C68.4195 38.3454 66.009 37.6833 66.1203 39.2649C66.2686 41.1407 70.0512 40.9568 72.0537 40.7729C70.6445 42.0602 69.0128 43.3107 67.4182 44.598C66.0461 45.7382 63.5244 47.099 64.1919 49.6369C65.7494 50.5196 67.5666 49.6369 69.6432 49.5633C73.5 49.4162 76.8004 50.5564 80.4717 50.2621C81.918 50.1518 84.143 49.6736 84.0318 48.1289C83.1788 47.5772 82.5113 48.0553 81.7326 48.1657Z" fill="#040000"/>
<path d="M61.4104 36.7635C61.5216 32.497 57.3312 30.1799 53.1407 30.4374C51.3236 30.5477 48.7277 31.0626 49.284 33.5637C49.9144 33.9682 50.4706 33.8579 51.3607 33.8211C49.3952 35.9176 47.4669 38.6761 46.0948 41.6185C45.0935 43.715 43.981 46.3264 43.536 48.7171C43.3876 49.5262 43.091 50.7032 44.0181 51.5124C45.9093 51.3652 46.6139 49.3791 47.3556 48.0182C49.7661 43.5679 52.2878 39.0439 53.8082 33.9315C55.9591 34.2625 57.7762 35.3659 57.8132 37.2417C57.8874 39.3749 55.2545 40.6254 53.5486 41.0668C52.5844 41.3243 51.4719 41.2139 50.8415 41.876C51.5461 42.9426 53.0665 42.8323 54.0678 42.7587C57.5908 42.4645 61.3362 40.2209 61.4104 36.7635Z" fill="#040000"/>
<path d="M64.4142 36.5426C65.9346 36.9472 67.0842 35.2185 67.7517 34.5197C68.753 33.453 69.6059 32.7175 69.9026 31.283C68.0484 30.6945 65.0075 32.129 64.0433 33.5266C63.45 34.4461 63.2275 36.2116 64.4142 36.5426Z" fill="#040000"/>
<path d="M122.747 38.3082C122.191 37.7565 121.301 38.3082 120.559 38.3082C120.744 37.2783 121.264 36.2117 121.634 35.1819C121.968 34.152 122.673 32.8647 121.82 31.7981C120.114 32.0923 119.409 33.6003 118.668 34.7773C117.889 36.1014 117.221 37.499 116.443 38.7495C114.922 38.7495 113.587 38.9334 111.993 38.8231C112.623 37.6093 113.031 36.4692 113.736 34.9612C114.032 34.2991 115.701 31.2464 114.106 30.8418C114.069 30.8418 113.995 30.8418 113.995 30.8418C111.288 31.6142 109.323 36.7634 107.654 38.8966C105.577 38.8599 103.055 38.676 103.167 40.184C103.241 41.3977 105.058 41.6551 106.133 42.2436C105.763 43.4574 103.426 48.2388 105.392 49.4893C107.468 50.7766 108.544 47.7606 109.026 46.5101C109.619 44.9286 110.064 43.4942 110.732 42.2804C112.363 42.1701 114.181 41.6184 115.516 41.5816C115.145 42.9792 114.366 44.9654 115.219 46.7676C116.739 47.7239 117.852 46.694 118.408 45.701C119.261 44.1562 119.372 41.3977 120.003 40.1472C120.967 39.6322 122.487 39.5587 122.747 38.3082Z" fill="#040000"/>
<path d="M97.8637 41.766C97.53 40.4787 99.7179 38.6765 98.3458 37.3156C97.8266 36.9478 97.2333 37.4995 96.8996 37.3156C92.7462 36.8007 88.4444 39.0443 87.369 42.097C87.0723 42.9062 87.2948 43.936 87.4432 44.6349C85.7002 45.3705 83.401 44.4878 81.4727 44.2303C82.5852 43.2372 83.4752 42.2809 84.736 41.104C85.589 40.2948 87.8511 38.934 87.1836 37.2421C86.8127 36.3226 85.2181 36.1387 84.0685 36.1387C82.4369 36.1387 80.3231 36.6536 78.6543 36.58C78.061 36.5432 77.5418 36.0651 77.0597 36.4329C75.5393 39.596 80.3602 39.3753 82.7335 39.1179C81.0277 40.9569 77.9868 42.0603 76.5034 44.1567C76.0955 44.7084 75.6134 45.5544 75.9843 46.4371C76.6147 46.952 77.3564 46.5842 78.061 46.5842C81.2502 46.4739 84.8844 47.5037 87.2207 46.4003C87.7028 46.1796 87.9994 45.7751 88.4815 45.444C91.3741 46.3635 93.4137 44.7452 95.1195 43.7889C96.1579 45.1498 100.311 45.2234 100.645 43.4579C100.015 42.3545 98.1975 42.9798 97.8637 41.766ZM94.8599 40.4052C94.7487 40.7362 94.5633 41.0304 94.6004 41.4718C93.4137 41.8396 92.5978 42.5384 91.0774 42.5384C91.5224 40.7362 93.1912 40.0374 95.0454 39.5592C95.5275 39.5592 94.8229 40.1109 94.8599 40.4052Z" fill="#040000"/>
<path d="M144.886 37.2785C143.032 37.2417 141.067 37.3888 139.806 37.3521C140.251 36.4326 141.512 35.2924 140.584 33.858C139.101 33.4534 138.471 34.5936 137.581 35.6602C136.876 36.5061 136.431 37.3521 136.023 37.4624C135.022 37.7566 133.464 36.8371 132.611 37.0578C132.315 37.1314 131.87 37.536 131.833 38.0141C131.796 39.3014 133.39 39.4853 134.651 39.9635C134.095 41.1772 133.353 42.6484 132.945 44.3035C132.574 45.8115 132.166 48.0183 133.019 49.6366C134.058 49.4527 134.317 48.239 134.651 47.4666C135.838 44.8184 136.987 42.0599 138.471 39.7796C140.844 39.6324 143.254 38.9704 145.146 38.4923C145.813 38.3451 146.777 38.3819 147 37.6463C146.629 37.0578 145.665 37.2785 144.886 37.2785Z" fill="#040000"/>
<path d="M129.756 41.5079C128.272 43.2734 126.678 44.5975 124.267 45.4434C124.749 44.009 125.38 40.7356 123.34 40.2574C122.636 40.0735 121.709 40.2942 121.189 40.7356C121.189 41.4712 122.042 41.324 122.042 42.0596C121.523 43.5676 119.372 46.3997 121.226 48.0916C122.895 49.5996 125.639 47.7974 126.455 47.1721C127.086 46.6939 127.642 46.0687 128.161 45.9583C128.347 47.9077 129.125 49.2318 130.868 49.4892C131.387 48.9375 130.942 48.2755 130.942 47.5399C130.942 46.3997 131.35 45.0388 131.61 43.9354C131.87 42.7585 132.574 41.4344 131.684 40.2942C130.683 40.0735 130.238 40.9562 129.756 41.5079Z" fill="#040000"/>
</svg>
