<svg width="236" height="80" viewBox="0 0 236 80" fill="none" xmlns="http://www.w3.org/2000/svg">
<path d="M75.1999 41.4483C75.2332 41.6814 75.2332 41.8812 75.1999 42.1144C75.1332 42.3808 74.9999 42.6473 74.7999 42.8471C74.6332 43.0802 74.4332 43.2801 74.1999 43.4466C73.9332 43.6131 73.6332 43.6797 73.3332 43.6797C72.6332 43.7463 71.8999 43.5798 71.2999 43.2135C70.7999 42.8471 70.4666 42.3142 70.3332 41.6814C70.1332 41.1152 69.9666 40.5157 69.7999 39.8496C69.6332 39.2168 69.3999 38.6173 69.1332 38.0511C68.9332 37.5515 68.5999 37.0852 68.2332 36.6856C67.8666 36.3192 67.3666 36.1194 66.8666 36.1194H66.1666C65.7666 36.1194 65.5332 36.1194 65.4666 36.3525V41.2484C65.4666 42.2143 66.1666 42.7139 67.5332 42.7139V43.4133H61.0332V42.7139C62.3666 42.7139 63.0332 42.2143 63.0332 41.2484V30.5573C63.0332 29.5915 62.3332 29.1252 60.8999 29.1252V28.4258H64.9999H65.9999H68.4332C69.0666 28.4258 69.6666 28.5257 70.2666 28.6922C70.7999 28.8588 71.2999 29.1252 71.7332 29.4916C72.1332 29.8246 72.4666 30.2243 72.7332 30.6573C72.9666 31.1235 73.0666 31.6231 73.0666 32.1227C73.0666 32.6223 72.9666 33.0886 72.7666 33.5548C72.5666 33.9545 72.2999 34.3209 71.9666 34.6206C71.5666 34.9537 71.1666 35.2201 70.6999 35.42C70.1999 35.6198 69.6666 35.7863 69.0999 35.9195C69.7666 36.2193 70.3666 36.6856 70.8999 37.2185C71.3332 37.6514 71.6666 38.151 71.8666 38.7172L72.1999 39.8163C72.3332 40.216 72.4666 40.6489 72.5999 41.0153C72.7332 41.3483 72.9332 41.6814 73.1666 41.9811C73.3332 42.2143 73.6332 42.3808 73.9666 42.3808C74.2999 42.3808 74.5666 42.0478 74.7666 41.3816L75.1999 41.4483ZM67.0666 35.2201C67.4999 35.2534 67.9332 35.2534 68.3999 35.2201C68.7999 35.1868 69.1999 35.0203 69.5332 34.8205C69.8999 34.6206 70.1666 34.2876 70.3332 33.9212C70.5666 33.4216 70.6666 32.8887 70.6332 32.3225C70.6666 31.8229 70.5666 31.3234 70.3332 30.8904C70.1332 30.524 69.8666 30.2243 69.5332 30.0244C69.1999 29.8246 68.8332 29.6581 68.4666 29.5582C68.0999 29.4249 67.6999 29.3583 67.2999 29.325H66.2332C65.6666 29.325 65.3666 29.758 65.3666 30.5906V34.9204C65.3666 35.1535 65.5999 35.2534 65.8999 35.2534H67.0666V35.2201Z" fill="#A37B51"/>
<path d="M76.133 43.4134V42.714C77.533 42.714 78.1996 42.2144 78.1996 41.2485V30.9904C78.1996 29.7248 77.4663 29.092 75.9663 29.092V28.3926H87.8663L88.0663 32.6224H87.3663C87.2997 31.9896 87.133 31.3901 86.8663 30.8239C86.633 30.4242 86.2997 30.0579 85.8997 29.8247C85.433 29.5916 84.933 29.4584 84.433 29.4251H82.7996H82.1663C80.9996 29.4251 80.4663 29.7581 80.4663 30.4575V34.4542C80.4663 34.9205 80.633 35.1536 80.9996 35.1536H81.7996H82.8663C83.1663 35.1203 83.4663 35.0204 83.733 34.8539C83.9997 34.654 84.1996 34.4209 84.333 34.1211C84.4996 33.6882 84.633 33.2552 84.6663 32.7889H85.4996V38.6507H84.6663C84.633 38.1844 84.533 37.7514 84.3997 37.3185C84.2997 37.0187 84.133 36.7523 83.8997 36.5524C83.633 36.3859 83.3663 36.2527 83.033 36.2194C82.633 36.1861 82.233 36.1861 81.833 36.2194H81.5663C80.8663 36.2194 80.533 36.4525 80.533 36.9521V41.2485C80.533 42.1145 81.133 42.5474 82.333 42.5474H83.033C83.7996 42.5807 84.5663 42.4808 85.2996 42.3143C85.833 42.2144 86.2997 41.9812 86.733 41.6149C87.0997 41.3151 87.3996 40.9155 87.5996 40.4492C87.833 39.9163 88.0663 39.3501 88.2663 38.7839L88.8663 38.9837L88.2663 43.4467L76.133 43.4134Z" fill="#A37B51"/>
<path d="M103.367 43.6799L101.767 42.4809C101.2 42.8805 100.567 43.2136 99.9 43.4134C99.2 43.6466 98.4333 43.7798 97.7 43.7798C96.7 43.7798 95.7333 43.58 94.8333 43.1803C94 42.7806 93.2333 42.2477 92.6 41.5816C91.9666 40.8489 91.4666 40.0496 91.1666 39.1503C90.8 38.2178 90.6333 37.1853 90.6333 36.1861C90.6333 35.1537 90.8333 34.1212 91.1666 33.1553C91.5 32.1895 92.0333 31.3235 92.7 30.5575C93.3333 29.8248 94.1333 29.192 95 28.759C95.9333 28.2927 96.9333 28.0596 97.9666 28.0596C98.6 28.0596 99.2333 28.1928 99.8666 28.3926C100.467 28.6258 101.033 28.8922 101.6 29.192C102.033 28.7257 102.6 28.3926 103.233 28.2261C103.833 29.8914 104.133 31.6566 104.1 33.4218H103.333C103.033 32.1895 102.433 31.0904 101.567 30.1911C100.667 29.3585 99.4666 28.9255 98.2333 29.0254C97.3666 28.9588 96.5333 29.1587 95.8 29.5916C95.1666 29.9913 94.6333 30.4909 94.2666 31.1237C93.8333 31.7898 93.5333 32.5558 93.4 33.3219C93.2333 34.1212 93.1666 34.9538 93.1666 35.7532C93.1666 36.6524 93.2666 37.5517 93.4666 38.4509C93.6666 39.2502 93.9666 39.983 94.4333 40.6824C94.8333 41.2819 95.3666 41.8148 96 42.1811C96.6666 42.5808 97.4 42.7806 98.1666 42.7806C98.6333 42.7806 99.1 42.714 99.5666 42.5808C100 42.4809 100.367 42.281 100.733 42.0146C101.067 41.7482 101.333 41.4151 101.533 41.0487C101.733 40.5825 101.8 40.0829 101.8 39.5833C102.033 38.4842 101.3 37.3851 100.2 37.152C99.9666 37.1187 99.7333 37.0854 99.5 37.1187V36.6191H106V37.3185C104.667 37.3185 103.967 37.8847 103.967 39.0171V43.7132H103.367V43.6799Z" fill="#A37B51"/>
<path d="M107.166 43.4134V42.714C108.6 42.714 109.333 42.2144 109.333 41.1486V31.0903C109.333 29.7581 108.566 29.092 107.066 29.092V28.3926H113.633V28.9921C112.633 28.8256 111.7 29.525 111.566 30.4908C111.533 30.6574 111.533 30.8239 111.566 30.9904V41.2152C111.566 42.281 112.3 42.7806 113.733 42.7806V43.48L107.166 43.4134Z" fill="#A37B51"/>
<path d="M128.667 43.6799L118.733 30.8906V40.0163C118.733 41.8148 119.5 42.7141 121.167 42.7141V43.4135H115.533V42.7141C116.8 42.7141 117.433 41.8148 117.433 40.0163V30.0247C117.433 29.3918 116.667 29.0588 115.167 29.0588V28.3594H119.333L128.2 39.65V31.59C128.2 29.9247 127.433 29.1587 125.9 29.1587V28.426H131.333V28.9922C129.933 28.9922 129.267 29.8248 129.267 31.4235V43.3469L128.667 43.6799Z" fill="#A37B51"/>
<path d="M140.5 43.4134V42.714H141.167H141.8L142.267 42.5475C142.267 42.5475 142.467 42.4143 142.467 42.3144C142.467 42.2144 142.467 42.1478 142.467 42.0479C142.433 41.9147 142.4 41.7815 142.333 41.6482L141.3 38.8506C141.133 38.4509 140.667 38.2511 139.9 38.2511H136.533C135.933 38.2511 135.6 38.4509 135.467 38.8506L134.7 41.2819C134.667 41.4817 134.667 41.6816 134.7 41.8814C134.7 42.5808 135.367 42.9139 136.7 42.9139V43.7132H131.5V42.9139C131.9 42.9139 132.3 42.7473 132.633 42.4809C133.033 42.0812 133.3 41.5816 133.433 41.0154L138.867 28.0596L139.567 28.3593L144.933 41.7815C145.067 42.0146 145.233 42.2144 145.433 42.381H145.833L146.733 42.6141V43.3135L140.5 43.4134ZM138.5 31.1903L136.5 35.953C136.367 36.1861 136.267 36.4526 136.233 36.7523C136.233 36.9855 136.533 37.0854 137.1 37.0854H139.933C140.4 37.0854 140.633 37.0854 140.633 36.7856C140.567 36.5192 140.5 36.286 140.4 36.0529L138.5 31.1903Z" fill="#A37B51"/>
<path d="M167.433 39.0834C167.2 40.4822 166.433 41.7479 165.267 42.5805C164.733 42.9802 164.1 43.2799 163.467 43.4464C162.767 43.6463 162.067 43.7462 161.367 43.7462C160.367 43.7462 159.367 43.5464 158.467 43.1467C157.633 42.747 156.867 42.2141 156.233 41.548C155.6 40.8486 155.133 40.016 154.8 39.1167C154.467 38.1509 154.3 37.1517 154.3 36.1192C154.267 35.0201 154.467 33.8877 154.867 32.8553C155.233 31.956 155.733 31.1234 156.4 30.424C157.033 29.7245 157.8 29.1583 158.667 28.7587C159.533 28.359 160.433 28.1592 161.4 28.1592C162.567 28.1592 163.733 28.5255 164.667 29.225C165.1 28.7587 165.667 28.4256 166.3 28.2591C166.4 28.4256 166.467 28.5922 166.5 28.7587C166.633 29.125 166.7 29.4914 166.767 29.8911C166.767 30.3907 166.9 30.8902 167 31.4897C167.067 32.0892 167 32.722 167 33.3882H166.233C166 32.1225 165.367 30.9902 164.433 30.1242C163.633 29.3915 162.6 28.9918 161.533 28.9585C160.8 28.9252 160.033 29.125 159.4 29.4914C158.8 29.8578 158.333 30.324 157.967 30.9235C157.567 31.523 157.3 32.1892 157.133 32.9219C156.967 33.6546 156.867 34.4206 156.867 35.1867C156.867 36.1858 156.967 37.185 157.167 38.1509C157.333 39.0168 157.633 39.8494 158.033 40.5822C158.433 41.215 158.967 41.7479 159.633 42.1475C160.367 42.5805 161.233 42.7803 162.067 42.747C162.6 42.747 163.1 42.6804 163.6 42.5805C164.067 42.4473 164.5 42.2474 164.867 41.9477C165.3 41.6146 165.633 41.215 165.933 40.7487C166.3 40.1492 166.633 39.5164 166.9 38.8503L167.433 39.0834Z" fill="#A37B51"/>
<path d="M169.4 43.4134V42.714C170.733 42.714 171.4 42.3143 171.4 41.4817V30.8239C171.4 29.6582 170.667 29.092 169.167 29.092V28.3926H175.733V28.9921C174.333 28.9921 173.667 29.5916 173.667 30.724V41.4151C173.667 42.0479 174.167 42.3809 175.133 42.3809H176.2C176.8 42.3809 177.4 42.3476 178 42.2477C178.433 42.1478 178.867 42.0146 179.3 41.848C180.267 41.0154 180.9 39.8497 181.1 38.5841H181.7L181 43.2469L169.4 43.4134Z" fill="#A37B51"/>
<path d="M182.6 43.4133V42.7139C184.034 42.7139 184.767 42.2143 184.767 41.1485V31.0902C184.9 29.758 184.034 29.0253 182.434 29.0253V28.4258H189V28.992C187.6 28.992 186.934 29.6581 186.934 30.9903V41.2151C186.934 42.2809 187.634 42.7805 189.1 42.7805V43.4799L182.6 43.4133Z" fill="#A37B51"/>
<path d="M204.1 43.6799L194.067 30.8906V40.0163C194.067 41.8148 194.867 42.7141 196.5 42.7141V43.4135H191V42.7141C192.267 42.7141 192.9 41.8148 192.9 40.0163V30.0247C192.9 29.3918 192.167 29.0588 190.667 29.0588V28.3594H194.8L203.667 39.6833V31.59C203.667 29.9247 202.867 29.1587 201.233 29.1587V28.426H206.9V28.9922C205.5 28.9922 204.833 29.8248 204.833 31.4235V43.3469L204.1 43.6799Z" fill="#A37B51"/>
<path d="M208.2 43.4134V42.714C209.633 42.714 210.367 42.2144 210.367 41.1486V31.0903C210.367 29.7581 209.633 29.092 208.133 29.092V28.3926H214.7V28.9921C213.3 28.9921 212.633 29.6582 212.633 30.9904V41.2152C212.633 42.281 213.367 42.7806 214.8 42.7806V43.48L208.2 43.4134Z" fill="#A37B51"/>
<path d="M230 39.0835C229.9 39.8162 229.633 40.5157 229.233 41.1485C228.867 41.7147 228.433 42.2142 227.9 42.5806C227.367 42.9803 226.733 43.28 226.1 43.4465C225.433 43.6131 224.767 43.6797 224.067 43.6797C223.067 43.6797 222.067 43.4798 221.167 43.0802C220.333 42.6805 219.567 42.1476 218.933 41.4815C218.3 40.7821 217.833 39.9495 217.5 39.0502C217.167 38.0843 217 37.0852 217 36.0527C216.967 34.9536 217.167 33.8212 217.567 32.7888C217.934 31.8895 218.433 31.0569 219.1 30.3574C219.733 29.658 220.5 29.0918 221.367 28.6922C222.233 28.3258 223.133 28.126 224.1 28.126C225.3 28.126 226.433 28.4923 227.4 29.1918C227.8 28.7255 228.367 28.3924 229 28.2259C229.1 28.3924 229.167 28.5589 229.2 28.7255C229.333 29.0918 229.4 29.4582 229.467 29.8579C229.467 30.3574 229.6 30.857 229.7 31.4565C229.767 32.056 229.7 32.6888 229.7 33.355H229C228.767 32.0893 228.133 30.957 227.2 30.091C226.367 29.325 225.233 28.9253 224.1 28.9586C223.367 28.9253 222.6 29.1251 221.967 29.4915C221.4 29.8246 220.9 30.3241 220.533 30.8903C220.133 31.4898 219.867 32.156 219.7 32.8887C219.533 33.6214 219.433 34.3874 219.433 35.1535C219.433 36.1526 219.534 37.1518 219.734 38.1177C219.9 38.9836 220.2 39.8162 220.634 40.549C221 41.1818 221.567 41.748 222.2 42.1143C222.933 42.5473 223.8 42.7471 224.634 42.7138C225.167 42.7138 225.667 42.6472 226.167 42.5473C226.633 42.4141 227.067 42.2142 227.433 41.9145C227.867 41.5814 228.2 41.1818 228.5 40.7155C228.867 40.116 229.2 39.4832 229.467 38.8171L230 39.0835Z" fill="#A37B51"/>
<path d="M26.1668 35.5542L23.4668 36.62L26.1668 37.6524L27.2001 41.6158L28.2668 37.6524L30.9668 36.62L28.2668 35.5542L27.2001 31.5908L26.1668 35.5542Z" fill="#A37B51"/>
<path d="M13.8334 30.1578L11.7334 30.9571L13.8334 31.7897L14.6334 34.8205L15.4334 31.7897L17.5001 30.9571L15.4334 30.1578L14.6334 27.127L13.8334 30.1578Z" fill="#A37B51"/>
<path d="M40.7331 30.1578L42.8331 30.9571L40.7331 31.7897L39.9331 34.8205L39.1331 31.7897L37.0664 30.9571L39.1331 30.1578L39.9331 27.127L40.7331 30.1578Z" fill="#A37B51"/>
<path d="M27.3 25.5953C28.8464 25.5953 30.1 24.3428 30.1 22.7977C30.1 21.2526 28.8464 20 27.3 20C25.7536 20 24.5 21.2526 24.5 22.7977C24.5 24.3428 25.7536 25.5953 27.3 25.5953Z" fill="#A37B51"/>
<path d="M8.13333 38.685C9.31154 38.685 10.2667 37.7307 10.2667 36.5534C10.2667 35.3762 9.31154 34.4219 8.13333 34.4219C6.95513 34.4219 6 35.3762 6 36.5534C6 37.7307 6.95513 38.685 8.13333 38.685Z" fill="#A37B51"/>
<path d="M46.4668 38.685C47.645 38.685 48.6002 37.7307 48.6002 36.5534C48.6002 35.3762 47.645 34.4219 46.4668 34.4219C45.2886 34.4219 44.3335 35.3762 44.3335 36.5534C44.3335 37.7307 45.2886 38.685 46.4668 38.685Z" fill="#A37B51"/>
<path d="M47.6336 59.8996H47.5336C41.0336 57.5683 34.167 56.4692 27.267 56.669C20.367 56.4692 13.5336 57.5683 7.03363 59.8996H6.90029C6.76696 59.8996 6.63363 59.7997 6.60029 59.6665C6.53363 59.5666 6.53363 59.4334 6.60029 59.3001C8.30029 58.0678 10.2003 57.1353 12.2003 56.4692C9.36696 54.0712 4.00029 47.5766 8.00029 36.4858V36.3526H8.13363C11.167 36.4858 14.167 37.1519 16.967 38.3509C18.8003 28.9921 27.1003 23.0637 27.167 22.9971H27.3003C27.3003 22.9971 35.667 28.9921 37.5003 38.3509C40.3003 37.1519 43.3003 36.4858 46.3336 36.3526H46.467V36.4858C50.467 47.5766 45.0336 54.0046 42.2003 56.5358C44.167 57.2019 46.0003 58.1678 47.7003 59.4001C47.8003 59.5 47.8336 59.6332 47.8003 59.7664C47.767 59.8996 47.6336 59.9996 47.5003 59.9996L47.6336 59.8996ZM33.9003 54.5041C36.2336 54.8039 38.5336 55.2702 40.767 55.9363C48.3336 49.4084 45.1336 40.3493 44.667 39.2169C42.3336 39.3168 40.067 39.8164 37.9003 40.649C38.1336 45.5782 36.7336 50.4409 33.9003 54.5041ZM9.83363 39.2169C9.40029 40.3493 6.20029 49.4084 13.8336 55.9363C16.067 55.2702 18.367 54.7706 20.7003 54.5041C17.867 50.4742 16.467 45.5782 16.7003 40.649C14.5336 39.8164 12.2336 39.3168 9.86696 39.2169H9.83363ZM18.5336 41.6149C18.5336 46.1111 19.8336 50.5408 22.3003 54.3043C23.2336 54.3043 24.3003 54.1711 25.2003 54.1378C25.3336 49.1086 22.8336 44.3459 18.6003 41.6149H18.5336ZM29.3003 54.0712C30.267 54.0712 31.3003 54.1711 32.2003 54.2377C34.667 50.4742 35.967 46.0445 35.9336 41.5483C31.7003 44.246 29.167 49.0087 29.3003 54.0712ZM27.3003 54.0712H27.867C27.667 47.2435 30.3336 42.2477 35.7336 39.1836C34.6336 34.0545 31.6003 29.5583 27.3003 26.5941C22.967 29.5583 19.967 34.0878 18.867 39.2169C24.267 42.2477 26.9003 47.2435 26.7336 54.0712H27.267H27.3003Z" fill="#A37B51"/>
<path d="M109.933 53.9713C108.867 55.4035 107.167 56.5359 105.333 57.202C105.233 57.2353 105.133 57.3352 105.067 57.3685L104.4 56.9689C104.433 56.9355 104.433 56.8689 104.433 56.8356V52.2728C104.433 52.0396 104.433 51.8065 104.4 51.54L105.233 51.6067C105.233 51.6733 105.2 51.9064 105.2 52.2395V56.4693C107 55.7698 108.6 54.6708 109.6 53.2386C109.667 53.4385 109.8 53.7382 109.933 53.9713Z" fill="#A37B51"/>
<path d="M113.6 53.5718L113.9 52.9723C114.3 53.1055 115.267 53.5385 115.7 53.8382L115.367 54.471C114.9 54.138 114.033 53.705 113.6 53.5718ZM120.2 53.0056C119.133 54.9373 117.167 56.4027 115.033 57.2687C114.933 57.3353 114.833 57.3686 114.767 57.4019L114.3 56.7025C116.7 55.9698 118.8 54.2379 119.767 52.2729L120.2 53.0056ZM114.467 51.8732L114.733 51.2737C115.2 51.4402 116.1 51.8399 116.533 52.1396L116.2 52.7391C115.867 52.4394 114.9 52.0064 114.467 51.8732ZM120.033 51.64L119.633 51.9398C119.433 51.64 119.067 51.2071 118.8 50.9739L119.167 50.7408C119.433 50.9073 119.833 51.3403 120.033 51.64ZM120.8 51.1738L120.433 51.4402C120.233 51.1405 119.9 50.7408 119.6 50.4743L119.933 50.2412C120.233 50.4744 120.6 50.874 120.8 51.1738Z" fill="#A37B51"/>
<path d="M129.833 54.7044C129.733 54.7044 129.433 54.7044 129.233 54.7044H124.4C124.2 54.7044 123.9 54.7044 123.767 54.7044V53.9717C123.867 53.9717 124.167 53.9717 124.4 53.9717H129.233C129.467 53.9717 129.733 53.9717 129.833 53.9717V54.7044Z" fill="#A37B51"/>
<path d="M140.033 52.8053V53.5714C139.9 53.5714 139.633 53.5381 139.467 53.5381H137.4C137.3 55.4698 136.833 56.469 135.133 57.568C134.967 57.4015 134.667 57.2017 134.5 57.0685C136.133 56.1359 136.567 55.2033 136.7 53.5381H134.333C134.167 53.5381 133.9 53.5381 133.733 53.5714V52.8053C133.867 52.8053 134.133 52.8053 134.333 52.8053H136.733V52.5056C136.733 51.9061 136.733 51.1734 136.7 51.0068L137.5 51.0734C137.467 51.1734 137.467 51.4065 137.467 52.4723V52.8386H139.5C139.667 52.8053 139.9 52.8053 140.033 52.8053Z" fill="#A37B51"/>
<path d="M149.4 52.5393L149.3 52.6392C148.5 54.6376 147.1 56.5693 144.833 57.7017C144.7 57.5684 144.433 57.3353 144.233 57.2021C146.2 56.2695 147.8 54.5043 148.433 52.7391H146.133C145.567 53.5718 144.967 54.2712 144.267 54.8041C144.067 54.6376 143.833 54.471 143.633 54.3711C144.733 53.5718 146.033 51.9065 146.333 50.874L147.1 51.1072C147.033 51.1738 146.967 51.3403 146.9 51.4402C146.767 51.6734 146.633 51.9065 146.5 52.1396H148.633L148.7 52.1063L149.4 52.5393Z" fill="#A37B51"/>
<path d="M154.133 54.4381V51.8402C154.133 51.5738 154.133 51.374 154.133 51.1741L154.9 51.2407C154.867 51.4073 154.867 51.6071 154.867 51.9402V54.4381C154.867 54.6379 154.867 54.8711 154.867 55.0043H154.1C154.1 54.9044 154.133 54.6379 154.133 54.4381ZM154.667 57.2691C156.367 56.6362 157.233 55.5372 157.233 53.5388V51.7736C157.233 51.5405 157.233 51.374 157.2 51.0742L158 51.1408C157.967 51.2407 157.967 51.5072 157.967 51.8069V53.6054C157.967 55.5705 157.2 56.9693 155.3 57.8019C155.167 57.702 154.867 57.4023 154.667 57.2691Z" fill="#A37B51"/>
<path d="M168.7 56.8023C168.633 56.8023 168.367 56.8023 168.133 56.8023H162.733C162.5 56.8023 162.267 56.8023 162.167 56.8023V56.0363C162.267 56.0363 162.5 56.0363 162.733 56.0363H168.133C168.367 56.0363 168.6 56.0363 168.7 56.0363V56.8023ZM167.8 52.9389C167.667 52.9389 167.433 52.9056 167.233 52.9056H163.5C163.333 52.9056 163.033 52.9056 162.867 52.9389V52.1729C163.033 52.1729 163.3 52.2062 163.5 52.2062H167.233C167.4 52.2062 167.667 52.2062 167.8 52.1729V52.9389Z" fill="#A37B51"/>
<path d="M172.233 53.3051L172.867 53.0053C173.1 53.3051 173.467 54.0378 173.633 54.6706L172.967 54.9704C172.833 54.4708 172.433 53.6048 172.233 53.3051ZM173.4 57.3351C175.467 56.3359 176.333 54.5707 176.667 53.0053C176.7 52.9054 176.7 52.7722 176.7 52.7056L177.467 52.972C177.433 53.0386 177.367 53.2052 177.367 53.3051C176.933 55.037 175.933 56.8688 174.067 57.868C173.867 57.6681 173.633 57.4683 173.4 57.3351ZM173.767 52.8055L174.4 52.5391C174.633 52.8721 174.967 53.5715 175.167 54.2043L174.533 54.4708C174.367 53.9379 173.967 53.1053 173.767 52.8055Z" fill="#A37B51"/>
<path d="M187.233 52.5393L187.133 52.6392C186.333 54.6376 184.933 56.5693 182.666 57.7017C182.533 57.5684 182.266 57.3353 182.066 57.2021C184.033 56.2695 185.633 54.5043 186.266 52.7391H183.966C183.4 53.5718 182.8 54.2712 182.1 54.8041C181.9 54.6376 181.666 54.471 181.466 54.3711C182.566 53.5718 183.866 51.9065 184.166 50.874L184.933 51.1072C184.866 51.1738 184.8 51.3403 184.733 51.4402C184.6 51.6734 184.466 51.9065 184.333 52.1396H186.466L186.533 52.1063L187.233 52.5393Z" fill="#A37B51"/>
</svg>
