<svg width="14" height="148" viewBox="0 0 14 148" fill="none" xmlns="http://www.w3.org/2000/svg">
<path d="M9.86328 4.6582L9.86328 0.720703H11V5.9707L2.54492 5.9707L2.54492 4.6582L9.86328 4.6582Z" fill="#354341"/>
<path d="M9.86328 7.0957V11.0332H2.54492L2.54492 12.3457H11V7.0957H9.86328Z" fill="#354341"/>
<path fill-rule="evenodd" clip-rule="evenodd" d="M6.77539 21.5215C4.08594 21.5215 2.4043 19.998 2.4043 17.5605C2.4043 15.1289 4.08594 13.5996 6.77539 13.5996C9.46484 13.5996 11.1406 15.1289 11.1406 17.5605C11.1406 19.998 9.46484 21.5215 6.77539 21.5215ZM6.77539 14.9473C4.80078 14.9473 3.55859 15.9551 3.55859 17.5605C3.55859 19.166 4.80078 20.1797 6.77539 20.1797C8.74414 20.1797 9.98633 19.166 9.98633 17.5605C9.98633 15.9551 8.74414 14.9473 6.77539 14.9473Z" fill="#354341"/>
<path fill-rule="evenodd" clip-rule="evenodd" d="M7.74805 27.2754V25.4707L11 23.748V22.2363L7.54297 24.1289C7.19727 23.0977 6.27148 22.4883 5.12891 22.4883C3.55273 22.4883 2.54492 23.5723 2.54492 25.3125L2.54492 28.5879H11L11 27.2754H7.74805ZM3.64648 27.2754L3.64648 25.4707C3.64648 24.457 4.2207 23.8418 5.16406 23.8418C6.13086 23.8418 6.6875 24.4219 6.6875 25.4355V27.2754H3.64648Z" fill="#354341"/>
<path d="M8.36914 29.7715C10.1152 30.0938 11.1406 31.418 11.1406 33.3633C11.1406 35.7363 9.46484 37.2363 6.76953 37.2363C4.0918 37.2363 2.4043 35.7246 2.4043 33.3633C2.4043 31.4473 3.58203 30 5.3457 29.7773L5.3457 31.0781C4.26172 31.3125 3.55273 32.2148 3.55274 33.3633C3.55274 34.8984 4.8125 35.8945 6.76953 35.8945C8.74414 35.8945 9.99219 34.9102 9.99219 33.3574C9.99219 32.1797 9.38867 31.3418 8.36914 31.0781V29.7715Z" fill="#354341"/>
<path d="M11.1406 41.3379C11.1406 43.248 10.1855 44.5195 8.67969 44.6016V43.3242C9.51758 43.207 10.0215 42.4102 10.0215 41.2852C10.0215 40.2129 9.4707 39.4453 8.71484 39.4453C8.05859 39.4453 7.64844 39.8906 7.40234 41.0215L7.20899 41.9414C6.85156 43.6348 6.06641 44.4023 4.84766 44.4023C3.40039 44.4023 2.4043 43.1309 2.4043 41.332C2.4043 39.5391 3.41797 38.3145 4.89453 38.2734V39.5449C4.04492 39.627 3.52344 40.3242 3.52344 41.3496C3.52344 42.3398 4.00391 43.0664 4.77734 43.0664C5.39258 43.0664 5.80274 42.6328 6.03711 41.5371L6.23047 40.6113C6.60547 38.8418 7.31445 38.1152 8.54492 38.1152C10.1387 38.1152 11.1406 39.3691 11.1406 41.3379Z" fill="#354341"/>
<path d="M7.35371 147.354L10.5357 144.172C10.7309 143.976 10.7309 143.66 10.5357 143.464C10.3404 143.269 10.0238 143.269 9.82858 143.464L7.50015 145.793L7.50015 67H6.50015L6.50015 145.793L4.17173 143.464C3.97646 143.269 3.65988 143.269 3.46462 143.464C3.26936 143.66 3.26936 143.976 3.46462 144.172L6.6466 147.354C6.84186 147.549 7.15844 147.549 7.35371 147.354Z" fill="#354341"/>
</svg>
