<svg width="48" height="48" viewBox="0 0 48 48" fill="none" xmlns="http://www.w3.org/2000/svg">
<rect width="48" height="48" rx="24" fill="white"/>
<rect width="48" height="48" rx="24" fill="#775C6A"/>
<mask id="mask0" mask-type="alpha" maskUnits="userSpaceOnUse" x="0" y="0" width="48" height="48">
<rect width="48" height="48" rx="24" fill="white"/>
</mask>
<g mask="url(#mask0)">
<path fill-rule="evenodd" clip-rule="evenodd" d="M19.8426 -3.16016L33.963 22.5795L27.8326 26.6947L31.1694 44.832L-6.3335 55.5833V-5L19.8426 -3.16016Z" fill="#FDCFB7"/>
<path fill-rule="evenodd" clip-rule="evenodd" d="M-3.77783 20.097L7.86475 13.5332L9.17436 15.8561L-2.46822 22.4199L-3.77783 20.097Z" fill="#F4828C"/>
<path fill-rule="evenodd" clip-rule="evenodd" d="M25.4099 41.7951C25.4101 41.7949 25.4103 41.7947 24.4997 40.8208C23.5891 39.8468 23.5893 39.8466 23.5896 39.8464L23.59 39.8459L23.5912 39.8448L23.5944 39.8419L23.6038 39.8331C23.6115 39.8261 23.6219 39.8165 23.635 39.8046C23.6611 39.7808 23.698 39.7476 23.745 39.7061C23.839 39.6231 23.9737 39.5065 24.1445 39.3654C24.4856 39.0835 24.974 38.7006 25.5722 38.2883C26.7535 37.4742 28.4312 36.498 30.2912 35.9996L30.9814 38.5754C29.537 38.9625 28.1464 39.7529 27.0855 40.484C26.5626 40.8444 26.1364 41.1788 25.8432 41.421C25.6969 41.5419 25.5845 41.6392 25.5107 41.7044C25.4738 41.737 25.4466 41.7616 25.4297 41.777C25.4212 41.7847 25.4153 41.7901 25.412 41.7931L25.4099 41.7951Z" fill="#775C6A"/>
<circle cx="21" cy="15" r="2" fill="#775C6A"/>
<path fill-rule="evenodd" clip-rule="evenodd" d="M20.2281 7.41663C20.228 7.41676 20.2278 7.4169 21.0858 8.43752C21.9438 9.45814 21.9436 9.45831 21.9434 9.45848L21.9417 9.45987L21.9384 9.4626L21.9284 9.47094C21.9202 9.47778 21.9089 9.48715 21.8945 9.49891C21.8659 9.52242 21.8252 9.5555 21.7732 9.59703C21.6692 9.68007 21.5198 9.79711 21.3309 9.93915C20.9535 10.2228 20.415 10.6085 19.7625 11.0234C18.474 11.8427 16.6695 12.8218 14.7443 13.3135L14.0843 10.7298C15.6181 10.338 17.1492 9.525 18.3317 8.77312C18.9147 8.40241 19.3956 8.0578 19.7287 7.80745C19.8949 7.6825 20.0235 7.58165 20.1088 7.51355C20.1514 7.47951 20.1831 7.45371 20.2032 7.43723C20.2132 7.42899 20.2204 7.42308 20.2245 7.41965L20.2281 7.41663Z" fill="#775C6A"/>
<path fill-rule="evenodd" clip-rule="evenodd" d="M28.5868 29.7907L29.2378 33.5723L15.438 38.3086C15.438 38.3086 18.2928 26.1263 28.5868 29.7907" fill="#F4828C"/>
<path fill-rule="evenodd" clip-rule="evenodd" d="M23.1108 4.34711L27.3518 17.5081L8.40514 25.8952L2.39094 10.8537L23.1108 4.34711ZM5.9354 12.5357L9.85449 22.3374L24.0774 16.0413L21.3845 7.68428L5.9354 12.5357Z" fill="#F4828C"/>
</g>
</svg>
