<svg width="48" height="48" viewBox="0 0 48 48" fill="none" xmlns="http://www.w3.org/2000/svg">
<rect width="48" height="48" rx="24" fill="white"/>
<rect width="48" height="48" rx="24" fill="#775C6A"/>
<mask id="mask0" mask-type="alpha" maskUnits="userSpaceOnUse" x="0" y="0" width="48" height="48">
<rect width="48" height="48" rx="24" fill="white"/>
</mask>
<g mask="url(#mask0)">
<path fill-rule="evenodd" clip-rule="evenodd" d="M24.0002 2.17905C30.7752 6.31449 34.63 19.2461 34.63 19.2461L28.4996 23.3614L33.8364 44.832L-3.6665 55.5833V-5C-3.6665 -5 17.2251 -1.95639 24.0002 2.17905Z" fill="#FDCFB7"/>
<path fill-rule="evenodd" clip-rule="evenodd" d="M32.2343 37.5669C32.2343 37.5669 23.0555 39.7843 23.8632 47.9243L33.9263 45.0158L32.2343 37.5669Z" fill="#F4828C"/>
<circle cx="22" cy="17.3335" r="2" fill="#775C6A"/>
<path fill-rule="evenodd" clip-rule="evenodd" d="M27.5201 36.0027C27.5202 36.0025 27.5203 36.0023 26.3779 35.3148C25.2355 34.6273 25.2356 34.627 25.2358 34.6268L25.2371 34.6247L25.2396 34.6205L25.2473 34.6078C25.2536 34.5975 25.2624 34.5832 25.2735 34.5653C25.2957 34.5296 25.3273 34.4791 25.3681 34.4155C25.4497 34.2884 25.568 34.1084 25.7204 33.8875C26.0249 33.4465 26.4683 32.839 27.0305 32.163C28.1425 30.8258 29.775 29.1527 31.7714 28.0001L33.1048 30.3095C31.495 31.2389 30.0973 32.6458 29.0808 33.8681C28.5787 34.4718 28.1832 35.0139 27.9149 35.4026C27.781 35.5966 27.6794 35.7514 27.6126 35.8555C27.5793 35.9074 27.5547 35.9466 27.5392 35.9716C27.5314 35.9841 27.526 35.993 27.5228 35.9982L27.5201 36.0027Z" fill="#775C6A"/>
<path fill-rule="evenodd" clip-rule="evenodd" d="M20.3893 9.2778C20.3892 9.27797 20.389 9.27815 21.4819 10.0419C22.5748 10.8057 22.5747 10.8059 22.5745 10.8061L22.5733 10.8079L22.5708 10.8114L22.5633 10.822C22.5571 10.8308 22.5486 10.8428 22.5378 10.8578C22.5162 10.888 22.4855 10.9304 22.446 10.984C22.3671 11.0911 22.2531 11.2428 22.1073 11.429C21.8162 11.8006 21.3959 12.3126 20.8731 12.8822C19.8405 14.0071 18.3508 15.4198 16.6185 16.393L15.3123 14.0682C16.6924 13.2928 17.961 12.1112 18.9086 11.0789C19.3758 10.5699 19.751 10.1126 20.008 9.78458C20.1362 9.62086 20.2344 9.49015 20.2991 9.4023C20.3314 9.3584 20.3554 9.32527 20.3705 9.30415C20.3781 9.29359 20.3834 9.28604 20.3865 9.28166L20.3893 9.2778Z" fill="#775C6A"/>
</g>
</svg>
