<svg width="48" height="48" viewBox="0 0 48 48" fill="none" xmlns="http://www.w3.org/2000/svg">
<rect width="48" height="48" rx="24" fill="white"/>
<rect width="48" height="48" rx="24" fill="#775C6A"/>
<mask id="mask0" mask-type="alpha" maskUnits="userSpaceOnUse" x="0" y="0" width="48" height="48">
<rect width="48" height="48" rx="24" fill="white"/>
</mask>
<g mask="url(#mask0)">
<path fill-rule="evenodd" clip-rule="evenodd" d="M33.9998 5.66761C33.9998 5.6673 33.9998 5.66698 33.9998 5.66667C33.9998 1.98477 31.0151 -1 27.3332 -1C23.6513 -1 20.6665 1.98477 20.6665 5.66667C20.6665 8.85652 22.9068 11.5231 25.8999 12.1789C25.7472 12.8163 25.6663 13.4817 25.6663 14.166C25.6663 15.5855 26.0142 16.9236 26.6295 18.0999C24.1181 19.0558 22.3337 21.4858 22.3337 24.3327C22.3337 28.0146 25.3185 30.9993 29.0003 30.9993C32.6822 30.9993 35.667 28.0146 35.667 24.3327C35.667 23.7234 35.5853 23.1332 35.4322 22.5724C39.5262 21.9611 42.6663 18.4303 42.6663 14.166C42.6663 9.4716 38.8607 5.66602 34.1663 5.66602C34.1107 5.66602 34.0552 5.66655 33.9998 5.66761Z" fill="#F4828C"/>
<path fill-rule="evenodd" clip-rule="evenodd" d="M27.8326 -6.57601L34.5083 22.6252L27.8326 24.0282L31.1694 44.8322L-6.3335 52.9168V-7.6665L27.8326 -6.57601Z" fill="#FDCFB7"/>
<path fill-rule="evenodd" clip-rule="evenodd" d="M20.3893 11.9448C20.3892 11.945 20.389 11.9451 21.4819 12.7089C22.5748 13.4727 22.5747 13.4729 22.5745 13.4731L22.5733 13.4749L22.5708 13.4784L22.5633 13.489C22.5571 13.4978 22.5486 13.5098 22.5378 13.5248C22.5162 13.5549 22.4855 13.5974 22.446 13.651C22.3671 13.7581 22.2531 13.9098 22.1073 14.0959C21.8162 14.4676 21.3959 14.9796 20.8731 15.5492C19.8405 16.6741 18.3508 18.0868 16.6185 19.06L15.3123 16.7352C16.6924 15.9598 17.961 14.7782 18.9086 13.7459C19.3758 13.2369 19.751 12.7796 20.008 12.4516C20.1362 12.2878 20.2344 12.1571 20.2991 12.0693C20.3314 12.0254 20.3554 11.9923 20.3705 11.9711C20.3781 11.9606 20.3834 11.953 20.3865 11.9486L20.3893 11.9448Z" fill="#775C6A"/>
<circle cx="22" cy="20" r="2" fill="#775C6A"/>
<path fill-rule="evenodd" clip-rule="evenodd" d="M14.9758 -4.23188C14.9919 -4.48585 15 -4.74198 15 -5C15 -11.6274 9.62742 -17 3 -17C-3.62742 -17 -9 -11.6274 -9 -5C-9 -2.85829 -8.43893 -0.847631 -7.45577 0.893021C-8.23424 2.65957 -8.66647 4.61304 -8.66647 6.66747C-8.66647 11.6084 -6.16641 15.9655 -2.36229 18.5426C-4.38344 20.2546 -5.66647 22.8112 -5.66647 25.6675C-5.66647 30.8221 -1.48779 35.0008 3.66687 35.0008C8.82152 35.0008 13.0002 30.8221 13.0002 25.6675C13.0002 23.516 12.2722 21.5345 11.0492 19.956C16.2982 17.8279 20.0002 12.68 20.0002 6.66747L20.0001 6.60874C21.1086 7.27901 22.4232 7.66712 23.833 7.66712C27.791 7.66712 30.9996 4.60773 30.9996 0.833784C30.9996 -2.94016 27.791 -5.99955 23.833 -5.99955C20.8591 -5.99955 18.3082 -4.2724 17.2236 -1.81272C16.5692 -2.70305 15.8144 -3.51501 14.9758 -4.23188Z" fill="#F4828C"/>
<path fill-rule="evenodd" clip-rule="evenodd" d="M23.8162 39.9851C23.8164 39.9849 23.8166 39.9847 22.8401 39.0768C21.8636 38.1689 21.8638 38.1687 21.8641 38.1684L21.8659 38.1665L21.8693 38.1628L21.8798 38.1517C21.8883 38.1427 21.8999 38.1304 21.9147 38.1151C21.9441 38.0844 21.9857 38.0414 22.0391 37.9875C22.1459 37.8797 22.3 37.7279 22.4972 37.5429C22.8912 37.1735 23.4604 36.6693 24.1727 36.1182C25.5874 35.024 27.6153 33.7072 29.993 32.9228L30.8284 35.4552C28.8411 36.1108 27.0837 37.2379 25.8043 38.2275C25.1696 38.7185 24.6647 39.1662 24.3212 39.4882C24.1497 39.649 24.0192 39.7778 23.9336 39.8642C23.8909 39.9074 23.8594 39.9399 23.8397 39.9604C23.8299 39.9707 23.823 39.9779 23.8191 39.982L23.8162 39.9851Z" fill="#775C6A"/>
</g>
</svg>
