<svg width="48" height="48" viewBox="0 0 48 48" fill="none" xmlns="http://www.w3.org/2000/svg">
<rect width="48" height="48" rx="24" fill="white"/>
<rect width="47.9998" height="47.9998" rx="23.9999" fill="#856C79"/>
<mask id="mask0" mask-type="alpha" maskUnits="userSpaceOnUse" x="0" y="0" width="48" height="48">
<rect width="47.9998" height="47.9998" rx="23.9999" fill="white"/>
</mask>
<g mask="url(#mask0)">
<path fill-rule="evenodd" clip-rule="evenodd" d="M22.0205 6.9874C22.0205 6.9874 34.1415 3.45896 35.2291 5.15839C36.3168 6.85782 26.1365 13.4187 26.1365 13.4187L22.0205 6.9874Z" fill="#F4828C"/>
<path fill-rule="evenodd" clip-rule="evenodd" d="M18.6444 -3.16016L32.0924 22.5794L26.2539 26.6946L29.4318 44.8319L-6.28516 55.5831V-5L18.6444 -3.16016Z" fill="#FDCFB7"/>
<ellipse cx="20.6982" cy="20" rx="1.90476" ry="1.99999" fill="#775C6A"/>
<path fill-rule="evenodd" clip-rule="evenodd" d="M20.8392 41.5763C20.8394 41.5759 20.8397 41.5756 19.7955 40.7619C18.7513 39.9483 18.7515 39.9479 18.7518 39.9475L18.7539 39.9446L18.7577 39.9394L18.7688 39.9244C18.7777 39.9124 18.7897 39.8965 18.8047 39.8768C18.8346 39.8374 18.8768 39.783 18.9312 39.7153C19.0398 39.58 19.1972 39.3912 19.4031 39.1628C19.8145 38.7064 20.4217 38.0891 21.222 37.4226C22.8199 36.0919 25.2092 34.5478 28.3641 33.7163L29.1025 36.2705C26.3739 36.9896 24.2943 38.3297 22.8942 39.4957C22.1955 40.0775 21.6713 40.6116 21.3262 40.9945C21.1538 41.1858 21.0266 41.3387 20.9453 41.44C20.9046 41.4907 20.8754 41.5284 20.8578 41.5516C20.849 41.5632 20.843 41.5711 20.84 41.5752L20.8381 41.5777L20.8388 41.5768L20.8392 41.5763Z" fill="#775C6A"/>
<path fill-rule="evenodd" clip-rule="evenodd" d="M18.2045 11.0482C18.2044 11.0483 18.2043 11.0485 19.2577 11.8229C20.3111 12.5972 20.311 12.5974 20.3108 12.5977L20.3097 12.5994L20.3074 12.6028L20.3003 12.6134C20.2945 12.622 20.2865 12.6339 20.2764 12.6487C20.2561 12.6785 20.2272 12.7205 20.1902 12.7734C20.116 12.8793 20.0089 13.0291 19.8718 13.2129C19.5981 13.5799 19.2026 14.0853 18.7097 14.6468C17.7364 15.7558 16.3297 17.1463 14.686 18.0958L13.4102 15.7628C14.7197 15.0064 15.9178 13.8436 16.811 12.8259C17.2514 12.3241 17.6046 11.8727 17.8462 11.5488C17.9668 11.3871 18.059 11.258 18.1198 11.1712C18.1502 11.1278 18.1727 11.0951 18.1869 11.0742C18.194 11.0638 18.199 11.0563 18.2019 11.052L18.2045 11.0482Z" fill="#775C6A"/>
<path fill-rule="evenodd" clip-rule="evenodd" d="M-7.12451 19.5745L26.156 6.57516L19.6864 -5.14551L-6.417 3.16892L-7.12451 19.5745Z" fill="#F4828C"/>
</g>
</svg>
