<svg width="147" height="80" viewBox="0 0 147 80" fill="none" xmlns="http://www.w3.org/2000/svg">
<g clip-path="url(#clip0)">
<path d="M35.0753 51.7403C28.756 51.7403 25.757 48.2743 25.757 44.5917V27.9116H32.5047V43.996C32.5047 45.0249 33.3616 45.8914 35.0753 45.8914C36.789 45.8914 37.6458 45.0249 37.6458 43.996V27.9116H44.3936V44.5375C44.3936 48.2743 41.0733 51.7403 35.0753 51.7403ZM57.889 51.1987C62.4411 51.1987 65.4936 48.7075 65.4936 44.1043C65.4936 41.6672 64.3154 39.9884 62.334 38.8511C64.0477 37.7138 64.9045 36.1433 64.9045 34.2478C64.9045 30.6194 62.3875 27.8574 57.5142 27.8574H46.5357V51.1987H57.889ZM58.1032 35.0602C58.1032 36.2516 57.5677 37.1723 56.3895 37.1723H53.2834V33.0023H56.3895C57.5677 33.0023 58.1032 33.8146 58.1032 35.0602ZM56.7109 46.0539H53.2299V41.6131H56.7109C57.9961 41.6131 58.6388 42.4254 58.6388 43.8335C58.6388 45.1332 57.9961 46.0539 56.7109 46.0539ZM19.1699 50.9821C22.4902 50.2781 24.5253 48.1118 24.5253 44.4834C24.5253 40.1509 21.794 38.9053 16.8136 36.5224C14.4572 35.3851 13.8681 35.1143 13.8681 34.3562C13.8681 33.8688 14.243 33.3814 14.9392 33.3814L23.3471 33.5438V27.9657C23.3471 27.9657 18.2595 27.8574 16.3851 27.8574C15.4747 27.8574 14.1359 27.8574 13.3862 27.9657C9.74453 28.4531 7.22752 30.8902 7.22752 34.3562C7.22752 38.8511 10.3872 40.2592 14.4572 42.2088C16.9742 43.4002 17.8311 43.7252 17.8311 44.6458C17.8311 45.1332 17.4562 45.6748 16.6529 45.6206L7.7095 45.5665V42.4796L0.747559 48.3285L7.76305 54.1773V51.1446L15.7425 51.1987C16.76 51.1987 18.3131 51.1446 19.1699 50.9821Z" fill="#FFC80D"/>
<path d="M88.0932 44.2121C88.0932 44.9162 87.7183 45.7285 86.1653 45.7285C84.6122 45.7285 84.2909 44.9162 84.2909 44.2121V27.9111H77.5432V44.2121C77.5432 44.9162 77.1683 45.7285 75.6153 45.7285C74.1158 45.7285 73.7409 44.9162 73.7409 44.2121V27.9111H66.9932V44.3746C66.9932 48.1655 69.4566 51.6315 75.4546 51.6315C77.7038 51.6315 79.5247 50.8734 80.8635 49.7902C82.2559 50.8734 84.0767 51.6315 86.4866 51.6315C92.1097 51.6315 94.7874 48.1655 94.7874 44.3746V27.9111H88.0396V44.2121H88.0932Z" fill="#00983D"/>
<path d="M106.194 27.207C100.304 27.207 96.9297 30.3481 96.9297 34.5181V51.1982H103.624V44.4287H108.711V51.1982H115.406V34.5723C115.459 30.3481 112.032 27.207 106.194 27.207ZM103.677 39.1214V34.9514C103.677 33.8682 104.427 33.0559 106.248 33.0559C108.015 33.0559 108.819 33.8682 108.819 34.9514V39.1214H103.677Z" fill="#00983D"/>
<path d="M146.252 30.6731L139.236 24.8242V27.7487H134.577C130.668 27.7487 129.008 30.0774 129.008 33.3809V37.0635C129.008 37.93 128.419 38.959 126.437 38.959C124.456 38.959 123.867 37.93 123.867 37.0635V27.9111H117.172V37.7675C117.172 41.0169 119.368 43.5081 123.063 44.4829V51.2524H129.865V44.4829C133.613 43.4539 135.702 40.9628 135.702 37.7675V34.1391C135.702 33.8141 135.863 33.5975 136.237 33.5975H139.236V36.5761L146.252 30.6731Z" fill="#00983D"/>
<path d="M134.685 49.8986C134.685 49.682 134.524 49.5195 134.203 49.5195H133.667V50.6568H133.988V50.2777L134.256 50.6568H134.631L134.31 50.2777C134.577 50.2236 134.685 50.0611 134.685 49.8986ZM134.203 50.0069H133.988V49.8445H134.203C134.31 49.8445 134.363 49.8986 134.363 49.9528C134.363 49.9528 134.31 50.0069 134.203 50.0069Z" fill="#00983D"/>
<path d="M134.149 48.8691C133.453 48.8691 132.864 49.4107 132.864 50.1147C132.864 50.8188 133.399 51.3603 134.149 51.3603C134.845 51.3603 135.434 50.8188 135.434 50.1147C135.434 49.4107 134.845 48.8691 134.149 48.8691ZM134.149 51.0354C133.667 51.0354 133.239 50.6021 133.239 50.1147C133.239 49.6273 133.667 49.1941 134.149 49.1941C134.631 49.1941 135.059 49.6273 135.059 50.1147C135.059 50.6021 134.631 51.0354 134.149 51.0354Z" fill="#00983D"/>
</g>
<defs>
<clipPath id="clip0">
<rect width="147" height="80" fill="white"/>
</clipPath>
</defs>
</svg>
