<svg width="236" height="80" viewBox="0 0 236 80" fill="none" xmlns="http://www.w3.org/2000/svg">
<path d="M85.9893 30.9906H87.4932V36.6631H85.9893V30.9906ZM85.9893 28.7646H87.4932V30.1289H85.9893V28.7646Z" fill="black"/>
<path d="M90.3576 30.9903V31.7801C91.0021 30.9185 91.7183 30.8467 92.0764 30.8467C93.1506 30.8467 93.5803 31.4929 93.7235 31.7801C94.01 31.4929 94.5113 30.8467 95.4423 30.8467C97.3043 30.8467 97.3043 32.4264 97.3043 33.0008V36.6628H95.8004V33.4316C95.8004 32.7854 95.8004 31.9955 95.0126 31.9955C94.6545 31.9955 94.2248 32.2828 94.0816 32.6418C93.9384 32.929 93.8668 33.2162 93.8668 33.9343V36.6628H92.3628V33.5752C92.3628 32.6418 92.3628 31.9955 91.5751 31.9955C91.217 31.9955 90.7873 32.2109 90.6441 32.57C90.5008 32.8572 90.4292 33.0726 90.4292 33.9343V36.7346H88.9253V31.0621H90.3576V30.9903Z" fill="black"/>
<path d="M101.959 34.222C101.959 34.7247 101.959 35.0837 101.673 35.3709C101.458 35.5863 101.172 35.7299 100.813 35.7299C100.241 35.7299 99.9541 35.2991 99.9541 34.9401C99.9541 34.4374 100.527 34.2938 100.813 34.222C100.885 34.222 101.243 34.1502 101.315 34.0784C101.673 34.0066 101.816 33.9348 101.959 33.9348V34.222ZM99.9541 32.7141C100.026 32.4269 100.241 31.9961 100.957 31.9961C101.959 31.9961 101.959 32.4269 101.959 32.786V32.9295C101.673 33.0732 101.315 33.145 100.527 33.2886C99.7393 33.4322 98.4502 33.7194 98.4502 35.0837C98.4502 36.0889 99.1664 36.7352 100.312 36.7352C101.243 36.7352 101.816 36.3043 102.103 35.9453L102.174 36.2325C102.246 36.3761 102.246 36.4479 102.317 36.5197H103.821C103.606 36.0171 103.535 35.8017 103.463 35.0119C103.463 34.7247 103.463 33.145 103.463 32.786C103.463 31.7807 103.463 30.6318 101.028 30.6318C99.3096 30.6318 98.8083 31.3499 98.5934 32.2115L99.9541 32.7141Z" fill="black"/>
<path d="M105.97 33.7188C105.97 33.288 106.042 31.9955 107.188 31.9955C108.19 31.9955 108.477 33.0008 108.477 33.7188C108.477 35.2267 107.546 35.4421 107.188 35.4421C106.257 35.4421 105.97 34.5087 105.97 33.7188ZM104.681 37.0218C104.61 38.6733 106.042 38.9605 107.331 38.9605C109.837 38.9605 110.052 37.6681 110.052 36.0884V30.9903H108.62V31.7801C108.477 31.4929 107.975 30.8467 106.901 30.8467C105.97 30.8467 104.466 31.4211 104.466 33.7906C104.466 35.4421 105.397 36.6628 106.83 36.6628C107.546 36.6628 108.119 36.3038 108.477 35.7294V36.591C108.477 37.2372 108.477 37.8117 107.259 37.8117C106.901 37.8117 106.686 37.7399 106.615 37.6681C106.4 37.5244 106.4 37.2372 106.4 37.2372L104.681 37.0218Z" fill="black"/>
<path d="M111.484 30.9906H112.988V36.6631H111.484V30.9906ZM111.484 28.7646H112.988V30.1289H111.484V28.7646Z" fill="black"/>
<path d="M118.216 33.7911C118.216 32.8577 118.216 31.996 117.285 31.996C116.784 31.996 116.354 32.2832 116.211 32.6422C116.068 33.0013 116.068 33.5757 116.068 34.0783V36.6633H114.564V30.9908H115.996V31.8524C116.569 31.0625 117.285 30.9189 117.858 30.9189C118.073 30.9189 118.718 30.9908 119.147 31.3498C119.72 31.7806 119.72 32.6422 119.72 33.2167V36.7351H118.216V33.7911Z" fill="black"/>
<path d="M122.441 33.3603C122.441 32.6422 122.871 31.996 123.587 31.996C123.802 31.996 124.662 32.0678 124.733 33.3603H122.441ZM124.59 34.8682C124.518 35.1554 124.303 35.658 123.659 35.658C122.8 35.658 122.441 34.94 122.441 34.2937H126.237C126.237 32.6422 125.664 30.9189 123.516 30.9189C121.725 30.9189 120.938 32.355 120.938 33.9347C120.938 34.4373 121.009 34.94 121.296 35.5144C121.869 36.8069 123.229 36.8787 123.731 36.8787C125.593 36.8787 126.094 35.5144 126.237 35.1554L124.59 34.8682Z" fill="black"/>
<path d="M133.542 34.222C133.542 34.7247 133.542 35.0837 133.255 35.3709C133.041 35.5863 132.754 35.7299 132.396 35.7299C131.823 35.7299 131.537 35.2991 131.537 34.9401C131.537 34.4374 132.11 34.2938 132.396 34.222C132.468 34.222 132.826 34.1502 132.897 34.0784C133.255 34.0066 133.399 33.9348 133.542 33.9348V34.222ZM131.537 32.7141C131.608 32.4269 131.751 31.9961 132.539 31.9961C133.542 31.9961 133.542 32.4269 133.542 32.786V32.9295C133.255 33.0732 132.897 33.145 132.11 33.2886C131.322 33.4322 130.033 33.7194 130.033 35.0837C130.033 36.0889 130.749 36.7352 131.895 36.7352C132.826 36.7352 133.399 36.3043 133.685 35.9453L133.757 36.2325C133.828 36.3761 133.828 36.4479 133.9 36.5197H135.404C135.189 36.0171 135.117 35.8017 135.046 35.0119C135.046 34.7247 135.046 33.145 135.046 32.786C135.046 31.7807 135.046 30.6318 132.611 30.6318C130.892 30.6318 130.391 31.3499 130.176 32.2115L131.537 32.7141Z" fill="black"/>
<path d="M136.478 28.7646H137.982V36.6631H136.478V28.7646Z" fill="black"/>
<path d="M139.558 28.7646H141.062V36.6631H139.558V28.7646Z" fill="black"/>
<path d="M148.223 32.1399H147.221V34.4376C147.221 35.2274 147.221 35.5146 147.65 35.5146C147.865 35.5146 148.008 35.4428 148.223 35.371H148.295L148.438 36.5199C147.937 36.7353 147.435 36.7353 147.221 36.7353C146.791 36.7353 146.146 36.5917 145.931 36.1609C145.717 35.8018 145.717 35.4428 145.717 34.5812V32.0681H145V30.8474H145.717V29.8421L147.221 28.9805V30.991H148.223V32.1399V32.1399Z" fill="black"/>
<path d="M150.801 31.7091C151.517 30.9192 152.234 30.8474 152.52 30.8474C152.878 30.8474 153.379 30.9192 153.881 31.2782C154.525 31.7809 154.454 32.7143 154.454 33.3606V36.7353H152.95V33.7196C152.95 32.7861 152.95 32.0681 152.019 32.0681C150.801 32.0681 150.801 33.2888 150.801 33.8632V36.7353H149.297V28.8369H150.801V31.7091Z" fill="black"/>
<path d="M156.96 33.3603C156.96 32.6422 157.39 31.996 158.106 31.996C158.321 31.996 159.18 32.0678 159.252 33.3603H156.96ZM159.108 34.8682C159.037 35.1554 158.822 35.658 158.177 35.658C157.318 35.658 156.96 34.94 156.96 34.2937H160.756C160.756 32.6422 160.183 30.9189 158.034 30.9189C156.244 30.9189 155.456 32.355 155.456 33.9347C155.456 34.4373 155.528 34.94 155.814 35.5144C156.387 36.8069 157.748 36.8787 158.249 36.8787C160.111 36.8787 160.612 35.5144 160.756 35.1554L159.108 34.8682Z" fill="black"/>
<path d="M166.628 33.9343C166.628 33.1444 166.771 32.7136 167.129 32.3546C167.416 32.0674 167.702 32.0674 167.917 32.0674C168.418 32.0674 169.134 32.4264 169.134 33.8625C169.134 34.5087 168.991 35.7294 167.917 35.7294C167.129 35.6576 166.628 35.0831 166.628 33.9343ZM165.124 30.9903V38.8169H166.628V36.0166C166.843 36.232 167.344 36.8064 168.275 36.8064C169.564 36.8064 170.638 35.873 170.638 33.8625C170.638 31.8519 169.493 30.8467 168.275 30.8467C167.917 30.8467 167.129 30.9903 166.556 31.7801V30.9185H165.124V30.9903Z" fill="black"/>
<path d="M173.002 33.3603C173.002 32.6422 173.432 31.996 174.148 31.996C174.363 31.996 175.222 32.0678 175.294 33.3603H173.002ZM175.15 34.8682C175.079 35.1554 174.864 35.658 174.219 35.658C173.36 35.658 173.002 34.94 173.002 34.2937H176.798C176.798 32.6422 176.225 30.9189 174.076 30.9189C172.286 30.9189 171.498 32.355 171.498 33.9347C171.498 34.4373 171.57 34.94 171.856 35.5144C172.429 36.8069 173.79 36.8787 174.291 36.8787C176.153 36.8787 176.654 35.5144 176.798 35.1554L175.15 34.8682Z" fill="black"/>
<path d="M179.089 33.7906C179.089 32.57 179.734 32.0674 180.45 32.0674C181.238 32.0674 181.811 32.6418 181.811 33.7906C181.811 35.0831 181.095 35.5857 180.45 35.5857C179.806 35.5857 179.089 35.0113 179.089 33.7906ZM177.585 33.7188C177.585 36.3756 179.591 36.8064 180.522 36.8064C182.384 36.8064 183.458 35.3703 183.458 33.7906C183.458 32.3546 182.527 30.8467 180.522 30.8467C178.516 30.8467 177.585 32.4264 177.585 33.7188Z" fill="black"/>
<path d="M185.965 33.9343C185.965 33.1444 186.108 32.7136 186.466 32.3546C186.752 32.0674 187.039 32.0674 187.254 32.0674C187.755 32.0674 188.471 32.4264 188.471 33.8625C188.471 34.5087 188.328 35.7294 187.254 35.7294C186.537 35.6576 185.965 35.0831 185.965 33.9343ZM184.532 30.9903V38.8169H186.036V36.0166C186.251 36.232 186.752 36.8064 187.683 36.8064C188.972 36.8064 190.047 35.873 190.047 33.8625C190.047 31.8519 188.901 30.8467 187.683 30.8467C187.325 30.8467 186.537 30.9903 185.965 31.7801V30.9185H184.532V30.9903Z" fill="black"/>
<path d="M191.049 28.7646H192.553V36.6631H191.049V28.7646Z" fill="black"/>
<path d="M195.06 33.3603C195.06 32.6422 195.489 31.996 196.205 31.996C196.42 31.996 197.28 32.0678 197.351 33.3603H195.06ZM197.208 34.8682C197.136 35.1554 196.922 35.658 196.277 35.658C195.418 35.658 195.06 34.94 195.06 34.2937H198.855C198.855 32.6422 198.282 30.9189 196.134 30.9189C194.343 30.9189 193.556 32.355 193.556 33.9347C193.556 34.4373 193.627 34.94 193.914 35.5144C194.487 36.8069 195.847 36.8787 196.349 36.8787C198.211 36.8787 198.712 35.5144 198.855 35.1554L197.208 34.8682Z" fill="black"/>
<path d="M85.4878 41.6182H89.355L90.7157 48.9422L92.721 41.6182H96.5166L98.5218 48.8704L99.8825 41.6182H103.678L100.813 54.7583H96.8746L94.583 46.5008L92.2913 54.7583H88.424L85.4878 41.6182Z" fill="black"/>
<path d="M104.824 41.6182H108.834V54.7583H104.824V41.6182Z" fill="black"/>
<path d="M116.211 44.5626C117.213 44.5626 118.001 44.8498 118.431 45.3524C118.86 45.8551 119.075 46.7885 119.075 48.2246C119.075 49.3017 119.004 50.0197 118.789 50.5223C118.574 51.0249 118.288 51.3122 117.929 51.5276C117.571 51.743 116.998 51.8148 116.139 51.8148H115.136V44.6344H116.211V44.5626ZM111.126 54.7588H117.142C117.858 54.7588 118.646 54.6151 119.577 54.3997C120.221 54.2561 120.866 53.8971 121.367 53.3227C121.94 52.82 122.37 52.1738 122.656 51.384C122.942 50.5941 123.157 49.5171 123.157 48.1528C123.157 47.2911 123.014 46.4295 122.871 45.6396C122.656 44.8498 122.298 44.1318 121.868 43.5573C121.367 42.9829 120.794 42.4803 120.078 42.1931C119.362 41.834 118.359 41.6904 117.213 41.6904H111.198V54.7588H111.126Z" fill="black"/>
<path d="M124.733 41.6182H135.547V44.4185H128.743V46.5008H135.045V49.1576H128.743V51.7425H135.69V54.6865H124.661V41.6182H124.733Z" fill="black"/>
<path d="M143.568 41.6182H147.578V51.5271H153.88V54.7583H143.568V41.6182Z" fill="black"/>
<path d="M155.456 41.6182H166.27V44.4185H159.466V46.5008H165.768V49.1576H159.466V51.7425H166.413V54.6865H155.384V41.6182H155.456Z" fill="black"/>
<path d="M168.562 41.6182H172.572V54.7583H168.562V41.6182Z" fill="black"/>
<path d="M174.147 50.3784L178.015 50.1629C178.086 50.8092 178.23 51.24 178.516 51.599C178.946 52.1016 179.519 52.3889 180.306 52.3889C180.879 52.3889 181.309 52.2452 181.667 51.958C181.954 51.6708 182.097 51.3836 182.097 51.0246C182.097 50.6656 181.954 50.3784 181.667 50.0911C181.381 49.8039 180.664 49.5885 179.59 49.3013C177.8 48.8705 176.582 48.3678 175.795 47.7216C175.007 47.0754 174.649 46.2137 174.649 45.2085C174.649 44.5622 174.864 43.916 175.222 43.2698C175.58 42.6953 176.224 42.1927 177.012 41.8337C177.8 41.4747 178.874 41.3311 180.235 41.3311C181.882 41.3311 183.171 41.6183 184.03 42.2645C184.89 42.9107 185.463 43.916 185.606 45.2803L181.81 45.4957C181.739 44.9212 181.524 44.4904 181.166 44.2032C180.808 43.916 180.378 43.7724 179.805 43.7724C179.304 43.7724 178.946 43.8442 178.731 44.0596C178.516 44.275 178.373 44.4904 178.373 44.7776C178.373 44.993 178.444 45.2085 178.659 45.3521C178.874 45.4957 179.304 45.7111 180.02 45.8547C181.81 46.2137 183.028 46.6445 183.816 47.0036C184.603 47.3626 185.105 47.8652 185.463 48.4396C185.821 49.0141 185.964 49.6603 185.964 50.3784C185.964 51.24 185.749 52.0298 185.248 52.6761C184.818 53.3941 184.102 53.8967 183.314 54.3276C182.455 54.6866 181.452 54.902 180.163 54.902C177.943 54.902 176.368 54.4712 175.58 53.6095C174.72 52.8197 174.219 51.7426 174.147 50.3784Z" fill="black"/>
<path d="M195.918 41.6182H199.929V49.4448C199.929 50.2346 199.786 50.9527 199.571 51.6707C199.356 52.3888 198.926 52.9632 198.425 53.4658C197.924 53.9684 197.351 54.3275 196.778 54.5429C195.99 54.8301 195.059 54.9737 193.985 54.9737C193.34 54.9737 192.624 54.9019 191.908 54.8301C191.12 54.7583 190.547 54.5429 190.046 54.3275C189.545 54.0403 189.043 53.6812 188.685 53.1786C188.256 52.676 187.969 52.1733 187.826 51.6707C187.539 50.8091 187.468 50.091 187.468 49.4448V41.6182H191.478V49.6602C191.478 50.3783 191.693 50.9527 192.051 51.3117C192.481 51.7425 192.982 51.8861 193.698 51.8861C194.414 51.8861 194.916 51.6707 195.345 51.3117C195.704 50.8809 195.918 50.3783 195.918 49.6602V41.6182V41.6182Z" fill="black"/>
<path d="M206.088 44.2754H207.878C208.595 44.2754 209.096 44.419 209.382 44.6345C209.669 44.8499 209.812 45.2089 209.812 45.6397C209.812 45.9269 209.74 46.2141 209.526 46.4296C209.382 46.645 209.168 46.7886 208.881 46.8604C208.38 47.004 208.022 47.004 207.807 47.004H206.088V44.2754V44.2754ZM206.088 54.7588V49.4453H206.446C206.804 49.4453 207.162 49.5171 207.449 49.7325C207.664 49.8761 207.878 50.2352 208.165 50.7378L210.313 54.7588H214.897L212.963 50.9532C212.892 50.7378 212.677 50.5224 212.39 50.1633C212.104 49.8043 211.889 49.5889 211.746 49.4453C211.531 49.3017 211.173 49.1581 210.671 48.9427C211.244 48.7991 211.746 48.6555 212.104 48.4401C212.677 48.081 213.035 47.6502 213.393 47.1476C213.679 46.645 213.823 45.9987 213.823 45.2807C213.823 44.419 213.608 43.701 213.25 43.1266C212.82 42.5521 212.319 42.1213 211.674 41.9059C211.03 41.6905 210.027 41.5469 208.809 41.5469H202.078V54.687H206.088V54.7588Z" fill="black"/>
<path d="M216.043 41.6182H226.857V44.4185H220.053V46.5008H226.355V49.1576H220.053V51.7425H227V54.6865H215.971V41.6182H216.043Z" fill="black"/>
<path d="M64.5042 36.1613C62.7854 34.5098 60.8518 33.002 58.8466 31.6377L54.0483 54.7586H71.236L72.4535 49.6605H61.7828L64.5042 36.1613Z" fill="#00695F"/>
<path d="M50.6113 27.4004L43.4498 48.1517H43.3782L43.593 30.9906H36.4315L28.9835 48.1517L29.4848 30.9906H22.9678V54.7577H30.7738L38.7948 37.1657H38.8664L38.6515 54.7577H47.1022L56.5554 30.2007C54.6934 29.1237 52.6882 28.1902 50.6113 27.4004Z" fill="#00695F"/>
<path d="M58.1309 26.0368L60.8523 19H53.5475L52.1152 23.021C54.1921 23.8827 56.1973 24.8879 58.1309 26.0368Z" fill="#D80A30"/>
<path d="M65.4354 31.7806L68.0136 19.0713H61.4966L59.7778 27.1851C61.8547 28.4776 63.7167 30.0573 65.4354 31.7806Z" fill="#D80A30"/>
<path d="M43.1632 20.6514C29.5562 18.6408 16.5938 23.8107 8 33.217C16.8803 25.3904 29.0549 21.3694 41.7309 23.2363C60.9238 26.0366 75.1752 41.5463 77.3237 59.9999C77.2521 40.541 63.0006 23.5953 43.1632 20.6514Z" fill="#F39800"/>
</svg>
