<svg width="219" height="80" viewBox="0 0 219 80" fill="none" xmlns="http://www.w3.org/2000/svg">
<path d="M77.9893 30.9906H79.4932V36.6631H77.9893V30.9906ZM77.9893 28.7646H79.4932V30.1289H77.9893V28.7646Z" fill="black"/>
<path d="M82.3576 30.9903V31.7801C83.0021 30.9185 83.7183 30.8467 84.0764 30.8467C85.1506 30.8467 85.5803 31.4929 85.7235 31.7801C86.01 31.4929 86.5113 30.8467 87.4423 30.8467C89.3043 30.8467 89.3043 32.4264 89.3043 33.0008V36.6628H87.8004V33.4316C87.8004 32.7854 87.8004 31.9955 87.0126 31.9955C86.6545 31.9955 86.2248 32.2828 86.0816 32.6418C85.9384 32.929 85.8668 33.2162 85.8668 33.9343V36.6628H84.3628V33.5752C84.3628 32.6418 84.3628 31.9955 83.5751 31.9955C83.217 31.9955 82.7873 32.2109 82.6441 32.57C82.5008 32.8572 82.4292 33.0726 82.4292 33.9343V36.7346H80.9253V31.0621H82.3576V30.9903Z" fill="black"/>
<path d="M93.9593 34.222C93.9593 34.7247 93.9593 35.0837 93.6729 35.3709C93.458 35.5863 93.1716 35.7299 92.8135 35.7299C92.2406 35.7299 91.9541 35.2991 91.9541 34.9401C91.9541 34.4374 92.527 34.2938 92.8135 34.222C92.8851 34.222 93.2432 34.1502 93.3148 34.0784C93.6729 34.0066 93.8161 33.9348 93.9593 33.9348V34.222ZM91.9541 32.7141C92.0257 32.4269 92.2406 31.9961 92.9567 31.9961C93.9593 31.9961 93.9593 32.4269 93.9593 32.786V32.9295C93.6729 33.0732 93.3148 33.145 92.527 33.2886C91.7393 33.4322 90.4502 33.7194 90.4502 35.0837C90.4502 36.0889 91.1664 36.7352 92.3122 36.7352C93.2432 36.7352 93.8161 36.3043 94.1026 35.9453L94.1742 36.2325C94.2458 36.3761 94.2458 36.4479 94.3174 36.5197H95.8213C95.6065 36.0171 95.5349 35.8017 95.4633 35.0119C95.4633 34.7247 95.4633 33.145 95.4633 32.786C95.4633 31.7807 95.4633 30.6318 93.0284 30.6318C91.3096 30.6318 90.8083 31.3499 90.5934 32.2115L91.9541 32.7141Z" fill="black"/>
<path d="M97.9702 33.7188C97.9702 33.288 98.0419 31.9955 99.1877 31.9955C100.19 31.9955 100.477 33.0008 100.477 33.7188C100.477 35.2267 99.5458 35.4421 99.1877 35.4421C98.2567 35.4421 97.9702 34.5087 97.9702 33.7188ZM96.6812 37.0218C96.6096 38.6733 98.0418 38.9605 99.3309 38.9605C101.837 38.9605 102.052 37.6681 102.052 36.0884V30.9903H100.62V31.7801C100.477 31.4929 99.9755 30.8467 98.9012 30.8467C97.9702 30.8467 96.4663 31.4211 96.4663 33.7906C96.4663 35.4421 97.3973 36.6628 98.8296 36.6628C99.5458 36.6628 100.119 36.3038 100.477 35.7294V36.591C100.477 37.2372 100.477 37.8117 99.2593 37.8117C98.9012 37.8117 98.6864 37.7399 98.6148 37.6681C98.3999 37.5244 98.3999 37.2372 98.3999 37.2372L96.6812 37.0218Z" fill="black"/>
<path d="M103.484 30.9906H104.988V36.6631H103.484V30.9906ZM103.484 28.7646H104.988V30.1289H103.484V28.7646Z" fill="black"/>
<path d="M110.216 33.7911C110.216 32.8577 110.216 31.996 109.285 31.996C108.784 31.996 108.354 32.2832 108.211 32.6422C108.068 33.0013 108.068 33.5757 108.068 34.0783V36.6633H106.564V30.9908H107.996V31.8524C108.569 31.0625 109.285 30.9189 109.858 30.9189C110.073 30.9189 110.718 30.9908 111.147 31.3498C111.72 31.7806 111.72 32.6422 111.72 33.2167V36.7351H110.216V33.7911Z" fill="black"/>
<path d="M114.441 33.3603C114.441 32.6422 114.871 31.996 115.587 31.996C115.802 31.996 116.662 32.0678 116.733 33.3603H114.441ZM116.59 34.8682C116.518 35.1554 116.303 35.658 115.659 35.658C114.8 35.658 114.441 34.94 114.441 34.2937H118.237C118.237 32.6422 117.664 30.9189 115.516 30.9189C113.725 30.9189 112.938 32.355 112.938 33.9347C112.938 34.4373 113.009 34.94 113.296 35.5144C113.869 36.8069 115.229 36.8787 115.731 36.8787C117.593 36.8787 118.094 35.5144 118.237 35.1554L116.59 34.8682Z" fill="black"/>
<path d="M125.542 34.222C125.542 34.7247 125.542 35.0837 125.255 35.3709C125.041 35.5863 124.754 35.7299 124.396 35.7299C123.823 35.7299 123.537 35.2991 123.537 34.9401C123.537 34.4374 124.11 34.2938 124.396 34.222C124.468 34.222 124.826 34.1502 124.897 34.0784C125.255 34.0066 125.399 33.9348 125.542 33.9348V34.222ZM123.537 32.7141C123.608 32.4269 123.751 31.9961 124.539 31.9961C125.542 31.9961 125.542 32.4269 125.542 32.786V32.9295C125.255 33.0732 124.897 33.145 124.11 33.2886C123.322 33.4322 122.033 33.7194 122.033 35.0837C122.033 36.0889 122.749 36.7352 123.895 36.7352C124.826 36.7352 125.399 36.3043 125.685 35.9453L125.757 36.2325C125.828 36.3761 125.828 36.4479 125.9 36.5197H127.404C127.189 36.0171 127.117 35.8017 127.046 35.0119C127.046 34.7247 127.046 33.145 127.046 32.786C127.046 31.7807 127.046 30.6318 124.611 30.6318C122.892 30.6318 122.391 31.3499 122.176 32.2115L123.537 32.7141Z" fill="black"/>
<path d="M128.478 28.7646H129.982V36.6631H128.478V28.7646Z" fill="black"/>
<path d="M131.558 28.7646H133.062V36.6631H131.558V28.7646Z" fill="black"/>
<path d="M140.223 32.1399H139.221V34.4376C139.221 35.2274 139.221 35.5146 139.65 35.5146C139.865 35.5146 140.008 35.4428 140.223 35.371H140.295L140.438 36.5199C139.937 36.7353 139.435 36.7353 139.221 36.7353C138.791 36.7353 138.146 36.5917 137.931 36.1609C137.717 35.8018 137.717 35.4428 137.717 34.5812V32.0681H137V30.8474H137.717V29.8421L139.221 28.9805V30.991H140.223V32.1399V32.1399Z" fill="black"/>
<path d="M142.801 31.7091C143.517 30.9192 144.234 30.8474 144.52 30.8474C144.878 30.8474 145.379 30.9192 145.881 31.2782C146.525 31.7809 146.454 32.7143 146.454 33.3606V36.7353H144.95V33.7196C144.95 32.7861 144.95 32.0681 144.019 32.0681C142.801 32.0681 142.801 33.2888 142.801 33.8632V36.7353H141.297V28.8369H142.801V31.7091Z" fill="black"/>
<path d="M148.96 33.3603C148.96 32.6422 149.39 31.996 150.106 31.996C150.321 31.996 151.18 32.0678 151.252 33.3603H148.96ZM151.108 34.8682C151.037 35.1554 150.822 35.658 150.177 35.658C149.318 35.658 148.96 34.94 148.96 34.2937H152.756C152.756 32.6422 152.183 30.9189 150.034 30.9189C148.244 30.9189 147.456 32.355 147.456 33.9347C147.456 34.4373 147.528 34.94 147.814 35.5144C148.387 36.8069 149.748 36.8787 150.249 36.8787C152.111 36.8787 152.612 35.5144 152.756 35.1554L151.108 34.8682Z" fill="black"/>
<path d="M158.628 33.9343C158.628 33.1444 158.771 32.7136 159.129 32.3546C159.416 32.0674 159.702 32.0674 159.917 32.0674C160.418 32.0674 161.134 32.4264 161.134 33.8625C161.134 34.5087 160.991 35.7294 159.917 35.7294C159.129 35.6576 158.628 35.0831 158.628 33.9343ZM157.124 30.9903V38.8169H158.628V36.0166C158.843 36.232 159.344 36.8064 160.275 36.8064C161.564 36.8064 162.638 35.873 162.638 33.8625C162.638 31.8519 161.493 30.8467 160.275 30.8467C159.917 30.8467 159.129 30.9903 158.556 31.7801V30.9185H157.124V30.9903Z" fill="black"/>
<path d="M165.002 33.3603C165.002 32.6422 165.432 31.996 166.148 31.996C166.363 31.996 167.222 32.0678 167.294 33.3603H165.002ZM167.15 34.8682C167.079 35.1554 166.864 35.658 166.219 35.658C165.36 35.658 165.002 34.94 165.002 34.2937H168.798C168.798 32.6422 168.225 30.9189 166.076 30.9189C164.286 30.9189 163.498 32.355 163.498 33.9347C163.498 34.4373 163.57 34.94 163.856 35.5144C164.429 36.8069 165.79 36.8787 166.291 36.8787C168.153 36.8787 168.654 35.5144 168.798 35.1554L167.15 34.8682Z" fill="black"/>
<path d="M171.089 33.7906C171.089 32.57 171.734 32.0674 172.45 32.0674C173.238 32.0674 173.811 32.6418 173.811 33.7906C173.811 35.0831 173.095 35.5857 172.45 35.5857C171.806 35.5857 171.089 35.0113 171.089 33.7906ZM169.585 33.7188C169.585 36.3756 171.591 36.8064 172.522 36.8064C174.384 36.8064 175.458 35.3703 175.458 33.7906C175.458 32.3546 174.527 30.8467 172.522 30.8467C170.516 30.8467 169.585 32.4264 169.585 33.7188Z" fill="black"/>
<path d="M177.965 33.9343C177.965 33.1444 178.108 32.7136 178.466 32.3546C178.752 32.0674 179.039 32.0674 179.254 32.0674C179.755 32.0674 180.471 32.4264 180.471 33.8625C180.471 34.5087 180.328 35.7294 179.254 35.7294C178.537 35.6576 177.965 35.0831 177.965 33.9343ZM176.532 30.9903V38.8169H178.036V36.0166C178.251 36.232 178.752 36.8064 179.683 36.8064C180.972 36.8064 182.047 35.873 182.047 33.8625C182.047 31.8519 180.901 30.8467 179.683 30.8467C179.325 30.8467 178.537 30.9903 177.965 31.7801V30.9185H176.532V30.9903Z" fill="black"/>
<path d="M183.049 28.7646H184.553V36.6631H183.049V28.7646Z" fill="black"/>
<path d="M187.06 33.3603C187.06 32.6422 187.489 31.996 188.205 31.996C188.42 31.996 189.28 32.0678 189.351 33.3603H187.06ZM189.208 34.8682C189.136 35.1554 188.922 35.658 188.277 35.658C187.418 35.658 187.06 34.94 187.06 34.2937H190.855C190.855 32.6422 190.282 30.9189 188.134 30.9189C186.343 30.9189 185.556 32.355 185.556 33.9347C185.556 34.4373 185.627 34.94 185.914 35.5144C186.487 36.8069 187.847 36.8787 188.349 36.8787C190.211 36.8787 190.712 35.5144 190.855 35.1554L189.208 34.8682Z" fill="black"/>
<path d="M77.4878 41.6182H81.355L82.7157 48.9422L84.721 41.6182H88.5166L90.5218 48.8704L91.8825 41.6182H95.6781L92.8135 54.7583H88.8746L86.583 46.5008L84.2913 54.7583H80.424L77.4878 41.6182Z" fill="black"/>
<path d="M96.8237 41.6182H100.834V54.7583H96.8237V41.6182Z" fill="black"/>
<path d="M108.211 44.5626C109.213 44.5626 110.001 44.8498 110.431 45.3524C110.86 45.8551 111.075 46.7885 111.075 48.2246C111.075 49.3017 111.004 50.0197 110.789 50.5223C110.574 51.0249 110.288 51.3122 109.929 51.5276C109.571 51.743 108.998 51.8148 108.139 51.8148H107.136V44.6344H108.211V44.5626ZM103.126 54.7588H109.142C109.858 54.7588 110.646 54.6151 111.577 54.3997C112.221 54.2561 112.866 53.8971 113.367 53.3227C113.94 52.82 114.37 52.1738 114.656 51.384C114.942 50.5941 115.157 49.5171 115.157 48.1528C115.157 47.2911 115.014 46.4295 114.871 45.6396C114.656 44.8498 114.298 44.1318 113.868 43.5573C113.367 42.9829 112.794 42.4803 112.078 42.1931C111.362 41.834 110.359 41.6904 109.213 41.6904H103.198V54.7588H103.126Z" fill="black"/>
<path d="M116.733 41.6182H127.547V44.4185H120.743V46.5008H127.045V49.1576H120.743V51.7425H127.69V54.6865H116.661V41.6182H116.733Z" fill="black"/>
<path d="M135.568 41.6182H139.578V51.5271H145.88V54.7583H135.568V41.6182Z" fill="black"/>
<path d="M147.456 41.6182H158.27V44.4185H151.466V46.5008H157.768V49.1576H151.466V51.7425H158.413V54.6865H147.384V41.6182H147.456Z" fill="black"/>
<path d="M160.562 41.6182H164.572V54.7583H160.562V41.6182Z" fill="black"/>
<path d="M166.147 50.3784L170.015 50.1629C170.086 50.8092 170.23 51.24 170.516 51.599C170.946 52.1016 171.519 52.3889 172.306 52.3889C172.879 52.3889 173.309 52.2452 173.667 51.958C173.954 51.6708 174.097 51.3836 174.097 51.0246C174.097 50.6656 173.954 50.3784 173.667 50.0911C173.381 49.8039 172.664 49.5885 171.59 49.3013C169.8 48.8705 168.582 48.3678 167.795 47.7216C167.007 47.0754 166.649 46.2137 166.649 45.2085C166.649 44.5622 166.864 43.916 167.222 43.2698C167.58 42.6953 168.224 42.1927 169.012 41.8337C169.8 41.4747 170.874 41.3311 172.235 41.3311C173.882 41.3311 175.171 41.6183 176.03 42.2645C176.89 42.9107 177.463 43.916 177.606 45.2803L173.81 45.4957C173.739 44.9212 173.524 44.4904 173.166 44.2032C172.808 43.916 172.378 43.7724 171.805 43.7724C171.304 43.7724 170.946 43.8442 170.731 44.0596C170.516 44.275 170.373 44.4904 170.373 44.7776C170.373 44.993 170.444 45.2085 170.659 45.3521C170.874 45.4957 171.304 45.7111 172.02 45.8547C173.81 46.2137 175.028 46.6445 175.816 47.0036C176.603 47.3626 177.105 47.8652 177.463 48.4396C177.821 49.0141 177.964 49.6603 177.964 50.3784C177.964 51.24 177.749 52.0298 177.248 52.6761C176.818 53.3941 176.102 53.8967 175.314 54.3276C174.455 54.6866 173.452 54.902 172.163 54.902C169.943 54.902 168.368 54.4712 167.58 53.6095C166.72 52.8197 166.219 51.7426 166.147 50.3784Z" fill="black"/>
<path d="M187.918 41.6182H191.929V49.4448C191.929 50.2346 191.786 50.9527 191.571 51.6707C191.356 52.3888 190.926 52.9632 190.425 53.4658C189.924 53.9684 189.351 54.3275 188.778 54.5429C187.99 54.8301 187.059 54.9737 185.985 54.9737C185.34 54.9737 184.624 54.9019 183.908 54.8301C183.12 54.7583 182.547 54.5429 182.046 54.3275C181.545 54.0403 181.043 53.6812 180.685 53.1786C180.256 52.676 179.969 52.1733 179.826 51.6707C179.539 50.8091 179.468 50.091 179.468 49.4448V41.6182H183.478V49.6602C183.478 50.3783 183.693 50.9527 184.051 51.3117C184.481 51.7425 184.982 51.8861 185.698 51.8861C186.414 51.8861 186.916 51.6707 187.345 51.3117C187.704 50.8809 187.918 50.3783 187.918 49.6602V41.6182V41.6182Z" fill="black"/>
<path d="M198.088 44.2754H199.878C200.595 44.2754 201.096 44.419 201.382 44.6345C201.669 44.8499 201.812 45.2089 201.812 45.6397C201.812 45.9269 201.74 46.2141 201.526 46.4296C201.382 46.645 201.168 46.7886 200.881 46.8604C200.38 47.004 200.022 47.004 199.807 47.004H198.088V44.2754V44.2754ZM198.088 54.7588V49.4453H198.446C198.804 49.4453 199.162 49.5171 199.449 49.7325C199.664 49.8761 199.878 50.2352 200.165 50.7378L202.313 54.7588H206.897L204.963 50.9532C204.892 50.7378 204.677 50.5224 204.39 50.1633C204.104 49.8043 203.889 49.5889 203.746 49.4453C203.531 49.3017 203.173 49.1581 202.671 48.9427C203.244 48.7991 203.746 48.6555 204.104 48.4401C204.677 48.081 205.035 47.6502 205.393 47.1476C205.679 46.645 205.823 45.9987 205.823 45.2807C205.823 44.419 205.608 43.701 205.25 43.1266C204.82 42.5521 204.319 42.1213 203.674 41.9059C203.03 41.6905 202.027 41.5469 200.809 41.5469H194.078V54.687H198.088V54.7588Z" fill="black"/>
<path d="M208.043 41.6182H218.857V44.4185H212.053V46.5008H218.355V49.1576H212.053V51.7425H219V54.6865H207.971V41.6182H208.043Z" fill="black"/>
<path d="M56.5042 36.1613C54.7854 34.5098 52.8518 33.002 50.8466 31.6377L46.0483 54.7586H63.236L64.4535 49.6605H53.7828L56.5042 36.1613Z" fill="#00695F"/>
<path d="M42.6113 27.4004L35.4498 48.1517H35.3782L35.593 30.9906H28.4315L20.9835 48.1517L21.4848 30.9906H14.9678V54.7577H22.7738L30.7948 37.1657H30.8664L30.6515 54.7577H39.1022L48.5554 30.2007C46.6934 29.1237 44.6882 28.1902 42.6113 27.4004Z" fill="#00695F"/>
<path d="M50.1309 26.0368L52.8523 19H45.5475L44.1152 23.021C46.1921 23.8827 48.1973 24.8879 50.1309 26.0368Z" fill="#D80A30"/>
<path d="M57.4354 31.7806L60.0136 19.0713H53.4966L51.7778 27.1851C53.8547 28.4776 55.7167 30.0573 57.4354 31.7806Z" fill="#D80A30"/>
<path d="M35.1632 20.6514C21.5562 18.6408 8.59385 23.8107 0 33.217C8.88031 25.3904 21.0549 21.3694 33.7309 23.2363C52.9238 26.0366 67.1752 41.5463 69.3237 59.9999C69.2521 40.541 55.0006 23.5953 35.1632 20.6514Z" fill="#F39800"/>
</svg>
