<svg width="236" height="80" viewBox="0 0 236 80" fill="none" xmlns="http://www.w3.org/2000/svg">
<path d="M102.233 30.4374L81.6748 29.6886V25.2979L101.927 26.387L102.233 30.4374Z" fill="#00A73C"/>
<path d="M114.827 26.251C114.521 31.2884 114.487 36.1217 114.725 41.4655L109.517 41.5676C109.143 36.9045 109.109 31.4927 109.551 26.285L114.827 26.251Z" fill="#00A73C"/>
<path d="M135.522 26.1485C136.85 33.7387 136.101 41.6012 130.008 46.911C125.549 51.1316 119.184 51.8463 112.99 51.8123L113.058 47.4556C119.525 47.5577 126.673 45.4134 129.77 38.9464C131.506 35.0662 131.199 30.301 130.451 26.1485C132.289 26.1145 133.888 26.1825 135.522 26.1485Z" fill="#00A73C"/>
<path d="M166.938 30.6421H141.342V26.1152H166.938V30.6421Z" fill="#00A73C"/>
<path d="M208.122 33.5346H228L227.932 38.538H208.122V51.2338H202.71V25.0254H208.122V33.5346Z" fill="#00A73C"/>
<path d="M187.394 30.6421H170.545V26.1152H187.394V30.6421Z" fill="#00A73C"/>
<path d="M219.763 30.1654H214.657V25.6385L219.763 25.6045V30.1654Z" fill="#00A73C"/>
<path d="M227.081 30.1643H222.111V25.5693H227.081V30.1643Z" fill="#00A73C"/>
<path d="M200.123 29.042C200.327 35.3729 198.251 41.6697 192.975 45.8222C187.257 50.8937 179.225 51.4042 171.771 51.4042V47.1836C180.041 46.4348 189.129 45.7541 193.146 37.5512C194.303 34.9644 194.95 32.1734 194.813 29.076L200.123 29.042Z" fill="#00A73C"/>
<path d="M106.216 37.6875C106.931 40.7508 106.182 44.1545 104.105 46.469C98.1831 51.7788 89.1633 52.0851 81.505 51.9149V47.8645C88.1081 47.1498 95.5622 48.2049 100.361 43.0313C101.008 41.7379 101.655 39.8318 100.736 38.5044C98.0469 35.9857 94.6092 36.258 90.8311 36.4281C86.4744 36.8706 82.5601 37.4833 78.2715 38.2321V33.8073C85.5554 31.4247 94.5071 30.9482 101.995 33.2627C103.595 34.2838 105.807 35.6793 106.216 37.6875Z" fill="#00A73C"/>
<path d="M166.155 33.5684C167.04 33.6364 168.129 34.147 168.367 35.1C169.048 40.4438 165.372 45.3792 160.913 48C155.399 51.5058 148.013 51.5398 141.478 51.676V47.3193C148.796 47.3533 157.884 47.047 162.138 40.1034L162.717 38.0612L162.172 37.857L139.333 37.9591V33.6705L166.155 33.5684Z" fill="#00A73C"/>
<path d="M25.6505 25.877V29.0764H38.1421V33.5012H25.6505V38.3344C30.8582 39.5257 35.6233 41.7722 40.2183 44.6993L38.1761 48.7157C34.364 46.6054 30.2795 44.1207 25.7867 43.0656C25.3782 45.4141 26.1951 48.3413 24.255 50.1793C21.9745 53.1745 18.1964 53.5149 14.5885 53.0724C11.8656 52.5959 8.97245 50.6218 8.25768 47.8307C7.47483 45.346 8.56401 42.7933 10.3339 40.9212C12.9207 38.0962 16.903 37.7218 20.7492 37.96V25.877H25.6505V25.877ZM13.0228 45.4141C12.9548 46.5373 13.2271 47.8307 14.4184 48.2392C15.7118 48.8178 17.5157 49.022 18.7751 48.2392C21.3278 47.15 20.2727 44.427 20.6471 42.555C17.6859 42.1125 14.1461 42.555 13.0228 45.4141Z" fill="#00A73C"/>
<path d="M58.9383 27.0002C61.5251 29.1445 60.6401 33.2971 60.6061 35.5435L68.1623 36.8369C68.7069 34.4543 68.4346 31.6292 68.5707 29.1786H73.5401C73.8805 32.1738 73.6422 35.3733 73.2338 38.4026C74.8335 39.2875 76.5694 39.6279 78.1011 40.5809L76.9778 44.9717C75.6164 44.6994 74.0847 43.8825 72.6552 43.4741C72.0765 46.6735 71.2256 49.7709 69.9322 52.0514H65.2011C66.4264 48.954 67.0391 45.3801 67.7539 41.9765C65.4734 41.1255 62.8185 40.615 60.2657 40.2406C59.1425 45.278 59.0744 48.7498 54.4795 50.8941C51.5523 52.2556 46.3787 51.6429 44.1323 49.1923C42.6687 48.001 42.1241 46.129 42.022 44.2569C42.2602 41.2276 44.0982 38.5047 46.9573 37.1772C49.476 35.7137 52.8117 35.6456 55.6027 35.3052C55.5686 33.8757 56.0111 32.4461 55.8069 30.8464L45.3576 30.6762V26.2854C49.8504 26.4556 54.8539 25.6388 58.9383 27.0002ZM48.8634 40.9553C47.8082 41.6361 46.7191 42.5551 46.8892 43.9166C46.9233 45.0398 47.4679 46.0268 48.3528 46.6735C49.3399 47.1841 50.7694 47.2181 51.8927 46.9118C54.6497 45.5844 54.6156 42.2828 54.9219 39.7641C52.7776 39.8321 50.7354 40.1725 48.8634 40.9553Z" fill="#00A73C"/>
</svg>
