<svg xmlns="http://www.w3.org/2000/svg" width="42.8" height="42.54" viewBox="0 0 42.8 42.54">
  <g id="icon-q" transform="translate(-1.5 -3)">
    <path id="パス_61" data-name="パス 61" d="M22.9,6.413a19.485,19.485,0,0,1,7.381,1.421,18.633,18.633,0,0,1,5.91,3.792A16.2,16.2,0,0,1,41.374,23.4,15.6,15.6,0,0,1,39.3,31.2a17.822,17.822,0,0,1-5.8,6.087l-1.782,1.152.311,2.362c.034.269.084.53.143.79a7.713,7.713,0,0,1-2.606-1.211l-1-.79-1.185.277a20.009,20.009,0,0,1-4.481.5,19.485,19.485,0,0,1-7.381-1.421A18.633,18.633,0,0,1,9.6,35.157a15.937,15.937,0,0,1,0-23.531,18.78,18.78,0,0,1,5.91-3.792A19.648,19.648,0,0,1,22.9,6.413M22.9,3C11.076,3,1.5,12.13,1.5,23.4s9.584,20.4,21.4,20.4a22.09,22.09,0,0,0,5.044-.572c1.034.807,3.623,2.32,8.516,2.32.631,0,1.295-.034,2.009-.076a.5.5,0,0,0,.168-.958,5.078,5.078,0,0,1-3.716-4.237A20.123,20.123,0,0,0,44.3,23.387C44.292,12.13,34.716,3,22.9,3Z" fill="#e9446a"/>
    <g id="グループ_14" data-name="グループ 14" transform="translate(14.22 12.029)">
      <path id="パス_62" data-name="パス 62" d="M169.639,133.04a7.421,7.421,0,0,1-3.01.538,7.841,7.841,0,0,1-7.449-4.683c-3.834-.731-6.381-4.128-6.381-9.248,0-5.851,3.279-9.248,8.037-9.248s8.037,3.422,8.037,9.248c0,4.9-2.329,8.205-5.9,9.13a4.6,4.6,0,0,0,4.077,1.917,6.18,6.18,0,0,0,1.967-.294Zm-8.811-6.944c2.673,0,4.372-2.43,4.372-6.457,0-3.859-1.7-6.162-4.372-6.162s-4.372,2.3-4.372,6.162C156.457,123.666,158.155,126.1,160.829,126.1Z" transform="translate(-152.8 -110.4)" fill="#e9446a"/>
    </g>
  </g>
</svg>
