<svg width="224" height="40" viewBox="0 0 224 40" fill="none" xmlns="http://www.w3.org/2000/svg">
<path d="M69.1999 21.4483C69.2332 21.6814 69.2332 21.8812 69.1999 22.1144C69.1332 22.3808 68.9999 22.6473 68.7999 22.8471C68.6332 23.0802 68.4332 23.2801 68.1999 23.4466C67.9332 23.6131 67.6332 23.6797 67.3332 23.6797C66.6332 23.7463 65.8999 23.5798 65.2999 23.2135C64.7999 22.8471 64.4666 22.3142 64.3332 21.6814C64.1332 21.1152 63.9666 20.5157 63.7999 19.8496C63.6332 19.2168 63.3999 18.6173 63.1332 18.0511C62.9332 17.5515 62.5999 17.0852 62.2332 16.6856C61.8666 16.3192 61.3666 16.1194 60.8666 16.1194H60.1666C59.7666 16.1194 59.5332 16.1194 59.4666 16.3525V21.2484C59.4666 22.2143 60.1666 22.7139 61.5332 22.7139V23.4133H55.0332V22.7139C56.3666 22.7139 57.0332 22.2143 57.0332 21.2484V10.5573C57.0332 9.59148 56.3332 9.1252 54.8999 9.1252V8.42578H58.9999H59.9999H62.4332C63.0666 8.42578 63.6666 8.5257 64.2666 8.69223C64.7999 8.85875 65.2999 9.1252 65.7332 9.49156C66.1332 9.82462 66.4666 10.2243 66.7332 10.6573C66.9666 11.1235 67.0666 11.6231 67.0666 12.1227C67.0666 12.6223 66.9666 13.0886 66.7666 13.5548C66.5666 13.9545 66.2999 14.3209 65.9666 14.6206C65.5666 14.9537 65.1666 15.2201 64.6999 15.42C64.1999 15.6198 63.6666 15.7863 63.0999 15.9195C63.7666 16.2193 64.3666 16.6856 64.8999 17.2185C65.3332 17.6514 65.6666 18.151 65.8666 18.7172L66.1999 19.8163C66.3332 20.216 66.4666 20.6489 66.5999 21.0153C66.7332 21.3483 66.9332 21.6814 67.1666 21.9811C67.3332 22.2143 67.6332 22.3808 67.9666 22.3808C68.2999 22.3808 68.5666 22.0478 68.7666 21.3816L69.1999 21.4483ZM61.0666 15.2201C61.4999 15.2534 61.9332 15.2534 62.3999 15.2201C62.7999 15.1868 63.1999 15.0203 63.5332 14.8205C63.8999 14.6206 64.1666 14.2876 64.3332 13.9212C64.5666 13.4216 64.6666 12.8887 64.6332 12.3225C64.6666 11.8229 64.5666 11.3234 64.3332 10.8904C64.1332 10.524 63.8666 10.2243 63.5332 10.0244C63.1999 9.82461 62.8332 9.65809 62.4666 9.55817C62.0999 9.42495 61.6999 9.35834 61.2999 9.32503H60.2332C59.6666 9.32503 59.3666 9.758 59.3666 10.5906V14.9204C59.3666 15.1535 59.5999 15.2534 59.8999 15.2534H61.0666V15.2201Z" fill="#A37B51"/>
<path d="M70.133 23.4134V22.714C71.533 22.714 72.1996 22.2144 72.1996 21.2485V10.9904C72.1996 9.7248 71.4663 9.09199 69.9663 9.09199V8.39258H81.8663L82.0663 12.6224H81.3663C81.2997 11.9896 81.133 11.3901 80.8663 10.8239C80.633 10.4242 80.2997 10.0579 79.8997 9.82472C79.433 9.59158 78.933 9.45836 78.433 9.42505H76.7996H76.1663C74.9996 9.42505 74.4663 9.75811 74.4663 10.4575V14.4542C74.4663 14.9205 74.633 15.1536 74.9996 15.1536H75.7996H76.8663C77.1663 15.1203 77.4663 15.0204 77.733 14.8539C77.9997 14.654 78.1996 14.4209 78.333 14.1211C78.4996 13.6882 78.633 13.2552 78.6663 12.7889H79.4996V18.6507H78.6663C78.633 18.1844 78.533 17.7514 78.3997 17.3185C78.2997 17.0187 78.133 16.7523 77.8997 16.5524C77.633 16.3859 77.3663 16.2527 77.033 16.2194C76.633 16.1861 76.233 16.1861 75.833 16.2194H75.5663C74.8663 16.2194 74.533 16.4525 74.533 16.9521V21.2485C74.533 22.1145 75.133 22.5474 76.333 22.5474H77.033C77.7996 22.5807 78.5663 22.4808 79.2996 22.3143C79.833 22.2144 80.2997 21.9812 80.733 21.6149C81.0997 21.3151 81.3996 20.9155 81.5996 20.4492C81.833 19.9163 82.0663 19.3501 82.2663 18.7839L82.8663 18.9837L82.2663 23.4467L70.133 23.4134Z" fill="#A37B51"/>
<path d="M97.3666 23.6799L95.7666 22.4809C95.2 22.8805 94.5666 23.2136 93.9 23.4134C93.2 23.6466 92.4333 23.7798 91.7 23.7798C90.7 23.7798 89.7333 23.58 88.8333 23.1803C88 22.7806 87.2333 22.2477 86.6 21.5816C85.9666 20.8489 85.4666 20.0496 85.1666 19.1503C84.8 18.2178 84.6333 17.1853 84.6333 16.1861C84.6333 15.1537 84.8333 14.1212 85.1666 13.1553C85.5 12.1895 86.0333 11.3235 86.7 10.5575C87.3333 9.82477 88.1333 9.19196 89 8.75899C89.9333 8.29271 90.9333 8.05957 91.9666 8.05957C92.6 8.05957 93.2333 8.19279 93.8666 8.39263C94.4666 8.62577 95.0333 8.89221 95.6 9.19196C96.0333 8.72568 96.6 8.39263 97.2333 8.2261C97.8333 9.89138 98.1333 11.6566 98.1 13.4218H97.3333C97.0333 12.1895 96.4333 11.0904 95.5666 10.1911C94.6666 9.35849 93.4666 8.92551 92.2333 9.02543C91.3666 8.95882 90.5333 9.15865 89.8 9.59163C89.1666 9.99129 88.6333 10.4909 88.2666 11.1237C87.8333 11.7898 87.5333 12.5558 87.4 13.3219C87.2333 14.1212 87.1666 14.9538 87.1666 15.7532C87.1666 16.6524 87.2666 17.5517 87.4666 18.4509C87.6666 19.2502 87.9666 19.983 88.4333 20.6824C88.8333 21.2819 89.3666 21.8148 90 22.1811C90.6666 22.5808 91.4 22.7806 92.1666 22.7806C92.6333 22.7806 93.1 22.714 93.5666 22.5808C94 22.4809 94.3666 22.281 94.7333 22.0146C95.0666 21.7482 95.3333 21.4151 95.5333 21.0487C95.7333 20.5825 95.8 20.0829 95.8 19.5833C96.0333 18.4842 95.3 17.3851 94.2 17.152C93.9666 17.1187 93.7333 17.0854 93.5 17.1187V16.6191H100V17.3185C98.6666 17.3185 97.9666 17.8847 97.9666 19.0171V23.7132H97.3666V23.6799Z" fill="#A37B51"/>
<path d="M101.166 23.4134V22.714C102.6 22.714 103.333 22.2144 103.333 21.1486V11.0903C103.333 9.75811 102.566 9.09199 101.066 9.09199V8.39258H107.633V8.99208C106.633 8.82555 105.7 9.52497 105.566 10.4908C105.533 10.6574 105.533 10.8239 105.566 10.9904V21.2152C105.566 22.281 106.3 22.7806 107.733 22.7806V23.48L101.166 23.4134Z" fill="#A37B51"/>
<path d="M122.667 23.6799L112.733 10.8906V20.0163C112.733 21.8148 113.5 22.7141 115.167 22.7141V23.4135H109.533V22.7141C110.8 22.7141 111.433 21.8148 111.433 20.0163V10.0247C111.433 9.39185 110.667 9.05879 109.167 9.05879V8.35938H113.333L122.2 19.65V11.59C122.2 9.92474 121.433 9.15871 119.9 9.15871V8.42599H125.333V8.99218C123.933 8.99218 123.267 9.82482 123.267 11.4235V23.3469L122.667 23.6799Z" fill="#A37B51"/>
<path d="M134.5 23.4134V22.714H135.167H135.8L136.267 22.5475C136.267 22.5475 136.467 22.4143 136.467 22.3144C136.467 22.2144 136.467 22.1478 136.467 22.0479C136.433 21.9147 136.4 21.7815 136.333 21.6482L135.3 18.8506C135.133 18.4509 134.667 18.2511 133.9 18.2511H130.533C129.933 18.2511 129.6 18.4509 129.467 18.8506L128.7 21.2819C128.667 21.4817 128.667 21.6816 128.7 21.8814C128.7 22.5808 129.367 22.9139 130.7 22.9139V23.7132H125.5V22.9139C125.9 22.9139 126.3 22.7473 126.633 22.4809C127.033 22.0812 127.3 21.5816 127.433 21.0154L132.867 8.05957L133.567 8.35932L138.933 21.7815C139.067 22.0146 139.233 22.2144 139.433 22.381H139.833L140.733 22.6141V23.3135L134.5 23.4134ZM132.5 11.1903L130.5 15.953C130.367 16.1861 130.267 16.4526 130.233 16.7523C130.233 16.9855 130.533 17.0854 131.1 17.0854H133.933C134.4 17.0854 134.633 17.0854 134.633 16.7856C134.567 16.5192 134.5 16.286 134.4 16.0529L132.5 11.1903Z" fill="#A37B51"/>
<path d="M161.433 19.0834C161.2 20.4822 160.433 21.7479 159.267 22.5805C158.733 22.9802 158.1 23.2799 157.467 23.4464C156.767 23.6463 156.067 23.7462 155.367 23.7462C154.367 23.7462 153.367 23.5464 152.467 23.1467C151.633 22.747 150.867 22.2141 150.233 21.548C149.6 20.8486 149.133 20.016 148.8 19.1167C148.467 18.1509 148.3 17.1517 148.3 16.1192C148.267 15.0201 148.467 13.8877 148.867 12.8553C149.233 11.956 149.733 11.1234 150.4 10.424C151.033 9.72454 151.8 9.15835 152.667 8.75868C153.533 8.35901 154.433 8.15918 155.4 8.15918C156.567 8.15918 157.733 8.52554 158.667 9.22496C159.1 8.75868 159.667 8.42562 160.3 8.2591C160.4 8.42562 160.467 8.59215 160.5 8.75868C160.633 9.12504 160.7 9.4914 160.767 9.89107C160.767 10.3907 160.9 10.8902 161 11.4897C161.067 12.0892 161 12.722 161 13.3882H160.233C160 12.1225 159.367 10.9902 158.433 10.1242C157.633 9.39149 156.6 8.99182 155.533 8.95851C154.8 8.92521 154.033 9.12504 153.4 9.4914C152.8 9.85776 152.333 10.324 151.967 10.9235C151.567 11.523 151.3 12.1892 151.133 12.9219C150.967 13.6546 150.867 14.4206 150.867 15.1867C150.867 16.1858 150.967 17.185 151.167 18.1509C151.333 19.0168 151.633 19.8494 152.033 20.5822C152.433 21.215 152.967 21.7479 153.633 22.1475C154.367 22.5805 155.233 22.7803 156.067 22.747C156.6 22.747 157.1 22.6804 157.6 22.5805C158.067 22.4473 158.5 22.2474 158.867 21.9477C159.3 21.6146 159.633 21.215 159.933 20.7487C160.3 20.1492 160.633 19.5164 160.9 18.8503L161.433 19.0834Z" fill="#A37B51"/>
<path d="M163.4 23.4134V22.714C164.733 22.714 165.4 22.3143 165.4 21.4817V10.8239C165.4 9.65819 164.667 9.09199 163.167 9.09199V8.39258H169.733V8.99208C168.333 8.99208 167.667 9.59158 167.667 10.724V21.4151C167.667 22.0479 168.167 22.3809 169.133 22.3809H170.2C170.8 22.3809 171.4 22.3476 172 22.2477C172.433 22.1478 172.867 22.0146 173.3 21.848C174.267 21.0154 174.9 19.8497 175.1 18.5841H175.7L175 23.2469L163.4 23.4134Z" fill="#A37B51"/>
<path d="M176.6 23.4133V22.7139C178.034 22.7139 178.767 22.2143 178.767 21.1485V11.0902C178.9 9.758 178.034 9.02528 176.434 9.02528V8.42578H183V8.99198C181.6 8.99198 180.934 9.65809 180.934 10.9903V21.2151C180.934 22.2809 181.634 22.7805 183.1 22.7805V23.4799L176.6 23.4133Z" fill="#A37B51"/>
<path d="M198.1 23.6799L188.067 10.8906V20.0163C188.067 21.8148 188.867 22.7141 190.5 22.7141V23.4135H185V22.7141C186.267 22.7141 186.9 21.8148 186.9 20.0163V10.0247C186.9 9.39185 186.167 9.05879 184.667 9.05879V8.35938H188.8L197.667 19.6833V11.59C197.667 9.92474 196.867 9.15871 195.233 9.15871V8.42599H200.9V8.99218C199.5 8.99218 198.833 9.82482 198.833 11.4235V23.3469L198.1 23.6799Z" fill="#A37B51"/>
<path d="M202.2 23.4134V22.714C203.633 22.714 204.367 22.2144 204.367 21.1486V11.0903C204.367 9.75811 203.633 9.09199 202.133 9.09199V8.39258H208.7V8.99208C207.3 8.99208 206.633 9.65819 206.633 10.9904V21.2152C206.633 22.281 207.367 22.7806 208.8 22.7806V23.48L202.2 23.4134Z" fill="#A37B51"/>
<path d="M224 19.0835C223.9 19.8162 223.633 20.5157 223.233 21.1485C222.867 21.7147 222.433 22.2142 221.9 22.5806C221.367 22.9803 220.733 23.28 220.1 23.4465C219.433 23.6131 218.767 23.6797 218.067 23.6797C217.067 23.6797 216.067 23.4798 215.167 23.0802C214.333 22.6805 213.567 22.1476 212.933 21.4815C212.3 20.7821 211.833 19.9495 211.5 19.0502C211.167 18.0843 211 17.0852 211 16.0527C210.967 14.9536 211.167 13.8212 211.567 12.7888C211.934 11.8895 212.433 11.0569 213.1 10.3574C213.733 9.65803 214.5 9.09184 215.367 8.69217C216.233 8.32581 217.133 8.12598 218.1 8.12598C219.3 8.12598 220.433 8.49234 221.4 9.19175C221.8 8.72548 222.367 8.39242 223 8.22589C223.1 8.39242 223.167 8.55895 223.2 8.72548C223.333 9.09184 223.4 9.4582 223.467 9.85787C223.467 10.3574 223.6 10.857 223.7 11.4565C223.767 12.056 223.7 12.6888 223.7 13.355H223C222.767 12.0893 222.133 10.9569 221.2 10.091C220.367 9.32498 219.233 8.92531 218.1 8.95862C217.367 8.92531 216.6 9.12514 215.967 9.4915C215.4 9.82456 214.9 10.3241 214.533 10.8903C214.133 11.4898 213.867 12.156 213.7 12.8887C213.533 13.6214 213.433 14.3874 213.433 15.1535C213.433 16.1526 213.534 17.1518 213.734 18.1177C213.9 18.9836 214.2 19.8162 214.634 20.549C215 21.1818 215.567 21.748 216.2 22.1143C216.933 22.5473 217.8 22.7471 218.634 22.7138C219.167 22.7138 219.667 22.6472 220.167 22.5473C220.633 22.4141 221.067 22.2142 221.433 21.9145C221.867 21.5814 222.2 21.1818 222.5 20.7155C222.867 20.116 223.2 19.4832 223.467 18.8171L224 19.0835Z" fill="#A37B51"/>
<path d="M20.1668 15.5542L17.4668 16.62L20.1668 17.6524L21.2001 21.6158L22.2668 17.6524L24.9668 16.62L22.2668 15.5542L21.2001 11.5908L20.1668 15.5542Z" fill="#A37B51"/>
<path d="M7.8334 10.1578L5.7334 10.9571L7.8334 11.7897L8.6334 14.8205L9.4334 11.7897L11.5001 10.9571L9.4334 10.1578L8.6334 7.12695L7.8334 10.1578Z" fill="#A37B51"/>
<path d="M34.7331 10.1578L36.8331 10.9571L34.7331 11.7897L33.9331 14.8205L33.1331 11.7897L31.0664 10.9571L33.1331 10.1578L33.9331 7.12695L34.7331 10.1578Z" fill="#A37B51"/>
<path d="M21.3 5.59534C22.8464 5.59534 24.1 4.34278 24.1 2.79767C24.1 1.25256 22.8464 0 21.3 0C19.7536 0 18.5 1.25256 18.5 2.79767C18.5 4.34278 19.7536 5.59534 21.3 5.59534Z" fill="#A37B51"/>
<path d="M2.13333 18.685C3.31154 18.685 4.26667 17.7307 4.26667 16.5534C4.26667 15.3762 3.31154 14.4219 2.13333 14.4219C0.955126 14.4219 0 15.3762 0 16.5534C0 17.7307 0.955126 18.685 2.13333 18.685Z" fill="#A37B51"/>
<path d="M40.4668 18.685C41.645 18.685 42.6002 17.7307 42.6002 16.5534C42.6002 15.3762 41.645 14.4219 40.4668 14.4219C39.2886 14.4219 38.3335 15.3762 38.3335 16.5534C38.3335 17.7307 39.2886 18.685 40.4668 18.685Z" fill="#A37B51"/>
<path d="M41.6336 39.8996H41.5336C35.0336 37.5683 28.167 36.4692 21.267 36.669C14.367 36.4692 7.53363 37.5683 1.03363 39.8996H0.900293C0.76696 39.8996 0.633626 39.7997 0.600293 39.6665C0.533626 39.5666 0.533626 39.4334 0.600293 39.3001C2.30029 38.0678 4.20029 37.1353 6.20029 36.4692C3.36696 34.0712 -1.99971 27.5766 2.00029 16.4858V16.3526H2.13363C5.16696 16.4858 8.16696 17.1519 10.967 18.3509C12.8003 8.99207 21.1003 3.06368 21.167 2.99707H21.3003C21.3003 2.99707 29.667 8.99207 31.5003 18.3509C34.3003 17.1519 37.3003 16.4858 40.3336 16.3526H40.467V16.4858C44.467 27.5766 39.0336 34.0046 36.2003 36.5358C38.167 37.2019 40.0003 38.1678 41.7003 39.4001C41.8003 39.5 41.8336 39.6332 41.8003 39.7664C41.767 39.8996 41.6336 39.9996 41.5003 39.9996L41.6336 39.8996ZM27.9003 34.5041C30.2336 34.8039 32.5336 35.2702 34.767 35.9363C42.3336 29.4084 39.1336 20.3493 38.667 19.2169C36.3336 19.3168 34.067 19.8164 31.9003 20.649C32.1336 25.5782 30.7336 30.4409 27.9003 34.5041ZM3.83363 19.2169C3.40029 20.3493 0.200293 29.4084 7.83363 35.9363C10.067 35.2702 12.367 34.7706 14.7003 34.5041C11.867 30.4742 10.467 25.5782 10.7003 20.649C8.53363 19.8164 6.23363 19.3168 3.86696 19.2169H3.83363ZM12.5336 21.6149C12.5336 26.1111 13.8336 30.5408 16.3003 34.3043C17.2336 34.3043 18.3003 34.1711 19.2003 34.1378C19.3336 29.1086 16.8336 24.3459 12.6003 21.6149H12.5336ZM23.3003 34.0712C24.267 34.0712 25.3003 34.1711 26.2003 34.2377C28.667 30.4742 29.967 26.0445 29.9336 21.5483C25.7003 24.246 23.167 29.0087 23.3003 34.0712ZM21.3003 34.0712H21.867C21.667 27.2435 24.3336 22.2477 29.7336 19.1836C28.6336 14.0545 25.6003 9.55827 21.3003 6.59407C16.967 9.55827 13.967 14.0878 12.867 19.2169C18.267 22.2477 20.9003 27.2435 20.7336 34.0712H21.267H21.3003Z" fill="#A37B51"/>
<path d="M103.933 33.9713C102.867 35.4035 101.167 36.5359 99.3332 37.202C99.2332 37.2353 99.1332 37.3352 99.0666 37.3685L98.3999 36.9689C98.4332 36.9355 98.4332 36.8689 98.4332 36.8356V32.2728C98.4332 32.0396 98.4332 31.8065 98.3999 31.54L99.2332 31.6067C99.2332 31.6733 99.1999 31.9064 99.1999 32.2395V36.4693C101 35.7698 102.6 34.6708 103.6 33.2386C103.667 33.4385 103.8 33.7382 103.933 33.9713Z" fill="#A37B51"/>
<path d="M107.6 33.5718L107.9 32.9723C108.3 33.1055 109.267 33.5385 109.7 33.8382L109.367 34.471C108.9 34.138 108.033 33.705 107.6 33.5718ZM114.2 33.0056C113.133 34.9373 111.167 36.4027 109.033 37.2687C108.933 37.3353 108.833 37.3686 108.767 37.4019L108.3 36.7025C110.7 35.9698 112.8 34.2379 113.767 32.2729L114.2 33.0056ZM108.467 31.8732L108.733 31.2737C109.2 31.4402 110.1 31.8399 110.533 32.1396L110.2 32.7391C109.867 32.4394 108.9 32.0064 108.467 31.8732ZM114.033 31.64L113.633 31.9398C113.433 31.64 113.067 31.2071 112.8 30.9739L113.167 30.7408C113.433 30.9073 113.833 31.3403 114.033 31.64ZM114.8 31.1738L114.433 31.4402C114.233 31.1405 113.9 30.7408 113.6 30.4743L113.933 30.2412C114.233 30.4744 114.6 30.874 114.8 31.1738Z" fill="#A37B51"/>
<path d="M123.833 34.7044C123.733 34.7044 123.433 34.7044 123.233 34.7044H118.4C118.2 34.7044 117.9 34.7044 117.767 34.7044V33.9717C117.867 33.9717 118.167 33.9717 118.4 33.9717H123.233C123.467 33.9717 123.733 33.9717 123.833 33.9717V34.7044Z" fill="#A37B51"/>
<path d="M134.033 32.8053V33.5714C133.9 33.5714 133.633 33.5381 133.467 33.5381H131.4C131.3 35.4698 130.833 36.469 129.133 37.568C128.967 37.4015 128.667 37.2017 128.5 37.0685C130.133 36.1359 130.567 35.2033 130.7 33.5381H128.333C128.167 33.5381 127.9 33.5381 127.733 33.5714V32.8053C127.867 32.8053 128.133 32.8053 128.333 32.8053H130.733V32.5056C130.733 31.9061 130.733 31.1734 130.7 31.0068L131.5 31.0734C131.467 31.1734 131.467 31.4065 131.467 32.4723V32.8386H133.5C133.667 32.8053 133.9 32.8053 134.033 32.8053Z" fill="#A37B51"/>
<path d="M143.4 32.5393L143.3 32.6392C142.5 34.6376 141.1 36.5693 138.833 37.7017C138.7 37.5684 138.433 37.3353 138.233 37.2021C140.2 36.2695 141.8 34.5043 142.433 32.7391H140.133C139.567 33.5718 138.967 34.2712 138.267 34.8041C138.067 34.6376 137.833 34.471 137.633 34.3711C138.733 33.5718 140.033 31.9065 140.333 30.874L141.1 31.1072C141.033 31.1738 140.967 31.3403 140.9 31.4402C140.767 31.6734 140.633 31.9065 140.5 32.1396H142.633L142.7 32.1063L143.4 32.5393Z" fill="#A37B51"/>
<path d="M148.133 34.4381V31.8402C148.133 31.5738 148.133 31.374 148.133 31.1741L148.9 31.2407C148.867 31.4073 148.867 31.6071 148.867 31.9402V34.4381C148.867 34.6379 148.867 34.8711 148.867 35.0043H148.1C148.1 34.9044 148.133 34.6379 148.133 34.4381ZM148.667 37.2691C150.367 36.6362 151.233 35.5372 151.233 33.5388V31.7736C151.233 31.5405 151.233 31.374 151.2 31.0742L152 31.1408C151.967 31.2407 151.967 31.5072 151.967 31.8069V33.6054C151.967 35.5705 151.2 36.9693 149.3 37.8019C149.167 37.702 148.867 37.4023 148.667 37.2691Z" fill="#A37B51"/>
<path d="M162.7 36.8023C162.633 36.8023 162.367 36.8023 162.133 36.8023H156.733C156.5 36.8023 156.267 36.8023 156.167 36.8023V36.0363C156.267 36.0363 156.5 36.0363 156.733 36.0363H162.133C162.367 36.0363 162.6 36.0363 162.7 36.0363V36.8023ZM161.8 32.9389C161.667 32.9389 161.433 32.9056 161.233 32.9056H157.5C157.333 32.9056 157.033 32.9056 156.867 32.9389V32.1729C157.033 32.1729 157.3 32.2062 157.5 32.2062H161.233C161.4 32.2062 161.667 32.2062 161.8 32.1729V32.9389Z" fill="#A37B51"/>
<path d="M166.233 33.3051L166.867 33.0053C167.1 33.3051 167.467 34.0378 167.633 34.6706L166.967 34.9704C166.833 34.4708 166.433 33.6048 166.233 33.3051ZM167.4 37.3351C169.467 36.3359 170.333 34.5707 170.667 33.0053C170.7 32.9054 170.7 32.7722 170.7 32.7056L171.467 32.972C171.433 33.0386 171.367 33.2052 171.367 33.3051C170.933 35.037 169.933 36.8688 168.067 37.868C167.867 37.6681 167.633 37.4683 167.4 37.3351ZM167.767 32.8055L168.4 32.5391C168.633 32.8721 168.967 33.5715 169.167 34.2043L168.533 34.4708C168.367 33.9379 167.967 33.1053 167.767 32.8055Z" fill="#A37B51"/>
<path d="M181.233 32.5393L181.133 32.6392C180.333 34.6376 178.933 36.5693 176.666 37.7017C176.533 37.5684 176.266 37.3353 176.066 37.2021C178.033 36.2695 179.633 34.5043 180.266 32.7391H177.966C177.4 33.5718 176.8 34.2712 176.1 34.8041C175.9 34.6376 175.666 34.471 175.466 34.3711C176.566 33.5718 177.866 31.9065 178.166 30.874L178.933 31.1072C178.866 31.1738 178.8 31.3403 178.733 31.4402C178.6 31.6734 178.466 31.9065 178.333 32.1396H180.466L180.533 32.1063L181.233 32.5393Z" fill="#A37B51"/>
</svg>
