<svg width="120" height="30" viewBox="0 0 120 30" fill="none" xmlns="http://www.w3.org/2000/svg">
<g clip-path="url(#clip0)">
<path d="M72.7542 2.65226L84.192 4.53832V1.88606L72.7542 0V2.65226Z" fill="#354341"/>
<path d="M72.7542 9.25345L84.192 11.1395V8.48726L72.7542 6.60119V9.25345Z" fill="#354341"/>
<path d="M72.7542 15.8546L84.192 17.7407V15.0884L72.7542 13.2024V15.8546Z" fill="#354341"/>
<path d="M63.213 0.707275H56.0284V3.35954H63.443C64.3051 3.35954 64.8799 4.06681 64.8799 4.83301V14.3222H56.0284V16.9745H67.4663V5.12771C67.4663 2.71122 65.5696 0.707275 63.213 0.707275Z" fill="#354341"/>
<path d="M96.7219 0.707275H89.5373V3.35954H96.9519C97.814 3.35954 98.3888 4.06681 98.3888 4.83301V14.3222H89.5373V16.9745H100.975V5.12771C100.975 2.71122 99.0785 0.707275 96.7219 0.707275Z" fill="#354341"/>
<path d="M118.793 10.668H116.264L116.839 14.3222H109.022L111.436 0.707275H108.85L105.976 16.9745H120L118.793 10.668Z" fill="#354341"/>
<path fill-rule="evenodd" clip-rule="evenodd" d="M47.0621 0.707275H36.084V16.9745H48.7863V18.7426L51.3728 17.2692V5.12771C51.3728 2.71122 49.4186 0.707275 47.0621 0.707275ZM48.7863 14.3222H38.6704V3.35954H47.3494C48.1541 3.35954 48.7863 4.00785 48.7863 4.83301V14.3222Z" fill="#354341"/>
<path d="M39.3602 26.4637L40.6246 24.8723V24.8134C40.6246 24.8134 40.5672 24.7544 40.5097 24.7544H39.5901C39.5326 24.7544 39.4751 24.7544 39.4176 24.8134L37.8658 26.7584H37.8083V22.9273C37.8083 22.8684 37.7508 22.8094 37.6933 22.8094H36.8312C36.7737 22.8094 36.7162 22.8684 36.7162 22.9273V29.6464C36.7162 29.7053 36.7737 29.7642 36.8312 29.7642H37.7508C37.8083 29.7642 37.8658 29.7053 37.8658 29.6464V28.114L38.613 27.2299C38.6704 27.1709 38.6704 27.2299 38.6704 27.2299L39.6476 29.7053C39.6476 29.7642 39.705 29.7642 39.82 29.7642H40.7971C40.8546 29.7642 40.912 29.7642 40.912 29.7053V29.6464L39.3602 26.4637Z" fill="#354341"/>
<path d="M47.9817 24.8134H47.0621C47.0046 24.8134 46.9471 24.8723 46.9471 24.9312V28.1729C46.9471 28.4676 46.8896 28.7034 46.7172 28.8212C46.5448 28.998 46.3723 29.057 46.0849 29.057C45.5102 29.057 45.2803 28.7623 45.2803 28.2318V24.8723C45.2803 24.8133 45.2228 24.7544 45.1653 24.7544H44.2457C44.1882 24.7544 44.1307 24.8133 44.1307 24.8723V28.4087C44.1307 28.8802 44.3032 29.2927 44.5905 29.5285C44.8779 29.7642 45.2803 29.8821 45.7401 29.8821C46.2574 29.8821 46.6598 29.7053 46.8897 29.4106H46.9471V29.7053C46.9471 29.7642 47.0046 29.8232 47.0621 29.8232H47.9817C48.0391 29.8232 48.0967 29.7642 48.0967 29.7053V24.8723C48.154 24.8134 48.0963 24.8134 47.9817 24.8134Z" fill="#354341"/>
<path d="M54.0743 24.8134H53.2121C53.1833 24.8134 53.169 24.8134 53.1618 24.806C53.1546 24.7987 53.1546 24.7839 53.1546 24.7544V23.6346C53.1546 23.5756 53.0971 23.5167 53.0396 23.5167H52.1776C52.1201 23.5167 52.0626 23.5756 52.0626 23.6346V24.7544C52.0626 24.7544 52.0626 24.8134 52.005 24.8134H51.5453C51.4878 24.8134 51.4303 24.8723 51.4303 24.9313V25.4028C51.4303 25.4617 51.4878 25.5207 51.5453 25.5207H52.005C52.0338 25.5207 52.0482 25.5207 52.0554 25.528C52.0626 25.5354 52.0626 25.5501 52.0626 25.5796V28.7034C52.0626 29.1749 52.1776 29.4696 52.4649 29.6464C52.7523 29.8232 53.0971 29.8821 53.6145 29.8821H54.0168C54.0743 29.8821 54.1317 29.8232 54.1317 29.7643V29.1159C54.1317 29.057 54.0743 28.998 54.0168 28.998H53.9018C53.6719 28.998 53.4995 28.9391 53.3845 28.8802C53.2695 28.7623 53.2121 28.5855 53.2121 28.3497V25.5796C53.2121 25.5796 53.2121 25.5207 53.2695 25.5207H54.0743C54.1317 25.5207 54.1892 25.4617 54.1892 25.4028V24.9313C54.1892 24.8723 54.1892 24.8428 54.1749 24.8281C54.1604 24.8134 54.1317 24.8134 54.0743 24.8134Z" fill="#354341"/>
<path d="M58.7873 24.9312C58.7873 24.8133 58.7298 24.8133 58.6723 24.8133H57.7528C57.6952 24.8133 57.6377 24.8723 57.6377 24.9312V29.7642C57.6377 29.8232 57.6952 29.8821 57.7528 29.8821H58.6723C58.7298 29.8821 58.7873 29.8232 58.7873 29.7642V24.9312Z" fill="#354341"/>
<path fill-rule="evenodd" clip-rule="evenodd" d="M73.329 25.167C72.9841 24.8723 72.4668 24.7544 71.8346 24.7544C71.2023 24.7544 70.7425 24.8723 70.3402 25.167C69.9953 25.4617 69.7654 25.8153 69.7654 26.2869V28.3497C69.7654 28.8212 69.9378 29.2338 70.3402 29.4696C70.6851 29.7642 71.2023 29.8821 71.8346 29.8821C72.4668 29.8821 72.9841 29.7642 73.329 29.4696C73.6738 29.1749 73.9037 28.8212 73.9037 28.3497V26.2869C73.9037 25.8153 73.7313 25.4617 73.329 25.167ZM72.7542 28.2908C72.7542 28.5265 72.6967 28.7034 72.5243 28.8802C72.3519 29.057 72.122 29.1159 71.8921 29.1159C71.6621 29.1159 71.4322 29.057 71.2598 28.8802C71.0874 28.7034 71.0299 28.5265 71.0299 28.2908V26.3458C71.0299 26.11 71.0874 25.9332 71.2598 25.7564C71.4322 25.5796 71.6621 25.5206 71.8921 25.5206C72.122 25.5206 72.3519 25.5796 72.5243 25.7564C72.6967 25.9332 72.7542 26.11 72.7542 26.3458V28.2908Z" fill="#354341"/>
<path d="M82.5827 24.7544C82.2953 24.7544 82.0654 24.8133 81.8355 24.9312C81.6055 25.0491 81.3757 25.167 81.2032 25.4028C81.2032 25.4028 81.2032 25.4617 81.1458 25.4617H81.0883C80.8009 24.9902 80.3986 24.8134 79.7663 24.8134C79.5758 24.8134 79.4249 24.8538 79.2479 24.9012C79.2113 24.911 79.1735 24.9211 79.1341 24.9312C78.9042 24.9902 78.7317 25.108 78.5593 25.2849H78.5018V24.9902C78.5018 24.9312 78.4443 24.8723 78.3869 24.8723H77.4673C77.4098 24.8723 77.3523 24.9312 77.3523 24.9902V29.8232C77.3523 29.8821 77.4098 29.9411 77.4673 29.9411H78.3869C78.4443 29.9411 78.5018 29.8821 78.5018 29.8232V26.5226C78.5018 26.2279 78.5593 25.9921 78.7317 25.8743C78.9042 25.6974 79.0766 25.6385 79.364 25.6385C79.5939 25.6385 79.8238 25.6974 79.9387 25.8743C80.1112 26.0511 80.1686 26.2869 80.1686 26.5816V29.8232C80.1686 29.8821 80.2262 29.9411 80.2837 29.9411H81.2032C81.2607 29.9411 81.3182 29.8821 81.3182 29.8232V26.5226C81.3182 26.2279 81.3757 25.9921 81.5481 25.8743C81.7206 25.6974 81.893 25.6385 82.1804 25.6385C82.4103 25.6385 82.6402 25.6974 82.7551 25.8743C82.9276 26.0511 82.985 26.2869 82.985 26.5816V29.8232C82.985 29.8821 83.0425 29.9411 83.1 29.9411H84.0196C84.0771 29.9411 84.1345 29.8821 84.1345 29.8232V26.4047C84.1345 25.8743 84.0196 25.4617 83.7322 25.167C83.5023 24.8723 83.1 24.7544 82.5827 24.7544Z" fill="#354341"/>
<path d="M88.9052 24.8133H87.9855C87.9281 24.8133 87.8706 24.8723 87.8706 24.9312V29.7642C87.8706 29.8232 87.9281 29.8821 87.9855 29.8821H88.9052C88.9627 29.8821 89.0202 29.8232 89.0202 29.7642V24.9312C89.0202 24.8133 88.9627 24.8133 88.9052 24.8133Z" fill="#354341"/>
<path d="M100.573 24.9312C100.286 24.8133 99.8833 24.7544 99.4809 24.7544C98.8487 24.7544 98.3889 24.8723 97.9865 25.167C97.6416 25.4617 97.4117 25.8153 97.4117 26.2869V28.3497C97.4117 28.8212 97.5842 29.2338 97.9865 29.4696C98.3314 29.7642 98.8487 29.8821 99.4809 29.8821C100.113 29.8821 100.573 29.7642 100.975 29.4696C101.32 29.1749 101.55 28.8212 101.55 28.4087V28.2318C101.55 28.1729 101.493 28.114 101.435 28.114H100.515C100.458 28.114 100.401 28.1729 100.401 28.2318V28.3497C100.401 28.5265 100.343 28.7034 100.171 28.8212C99.9982 28.9391 99.7683 29.057 99.5384 29.057C99.3084 29.057 99.0786 28.998 98.9061 28.8212C98.7337 28.6444 98.6762 28.4676 98.6762 28.2318V26.2869C98.6762 26.0511 98.7337 25.8743 98.9061 25.6975C99.0786 25.5206 99.251 25.4617 99.5384 25.4617C99.7683 25.4617 99.9982 25.5206 100.171 25.6975C100.343 25.8153 100.401 25.9921 100.401 26.169V26.2869C100.401 26.3458 100.458 26.4047 100.515 26.4047H101.435C101.493 26.4047 101.55 26.3458 101.55 26.2869V26.169C101.55 25.8743 101.493 25.6385 101.32 25.4028C101.148 25.2259 100.918 25.0491 100.573 24.9312Z" fill="#354341"/>
<path fill-rule="evenodd" clip-rule="evenodd" d="M108.447 25.167C108.102 24.8723 107.585 24.7544 106.953 24.7544C106.321 24.7544 105.861 24.8723 105.458 25.167C105.114 25.4617 104.884 25.8153 104.884 26.2869V28.3497C104.884 28.8212 105.056 29.2338 105.458 29.4696C105.803 29.7642 106.321 29.8821 106.953 29.8821C107.585 29.8821 108.102 29.7642 108.447 29.4696C108.792 29.1749 109.022 28.8212 109.022 28.3497V26.2869C108.965 25.8153 108.792 25.4617 108.447 25.167ZM107.815 28.2908C107.815 28.5265 107.757 28.7034 107.585 28.8802C107.413 29.057 107.183 29.1159 106.953 29.1159C106.723 29.1159 106.493 29.057 106.321 28.8802C106.148 28.7034 106.091 28.5265 106.091 28.2908V26.3458C106.091 26.11 106.148 25.9332 106.321 25.7564C106.493 25.5796 106.723 25.5206 106.953 25.5206C107.183 25.5206 107.413 25.5796 107.585 25.7564C107.757 25.9332 107.815 26.11 107.815 26.3458V28.2908Z" fill="#354341"/>
<path d="M117.701 24.7544C117.414 24.7544 117.184 24.8133 116.954 24.9312C116.724 25.0491 116.494 25.167 116.322 25.4028C116.322 25.4028 116.322 25.4617 116.264 25.4617H116.207C115.919 24.9902 115.517 24.8134 114.885 24.8134C114.694 24.8134 114.543 24.8538 114.366 24.9012C114.33 24.911 114.292 24.9211 114.252 24.9312C114.023 24.9902 113.85 25.108 113.678 25.2849H113.62V24.9902C113.62 24.9312 113.563 24.8723 113.505 24.8723H112.586C112.528 24.8723 112.471 24.9312 112.471 24.9902V29.8232C112.471 29.8821 112.528 29.9411 112.586 29.9411H113.505C113.563 29.9411 113.62 29.8821 113.62 29.8232V26.5226C113.62 26.2279 113.678 25.9921 113.85 25.8743C114.023 25.6974 114.195 25.6385 114.482 25.6385C114.712 25.6385 114.942 25.6974 115.057 25.8743C115.23 26.0511 115.287 26.2869 115.287 26.5816V29.8232C115.287 29.8821 115.344 29.9411 115.402 29.9411H116.322C116.379 29.9411 116.437 29.8821 116.437 29.8232V26.5226C116.437 26.2279 116.494 25.9921 116.666 25.8743C116.839 25.6974 117.011 25.6385 117.299 25.6385C117.529 25.6385 117.758 25.6974 117.873 25.8743C118.046 26.0511 118.103 26.2869 118.103 26.5816V29.8232C118.103 29.8821 118.161 29.9411 118.218 29.9411H119.138C119.195 29.9411 119.253 29.8821 119.253 29.8232V26.4047C119.253 25.8743 119.138 25.4617 118.851 25.167C118.563 24.8723 118.218 24.7544 117.701 24.7544Z" fill="#354341"/>
<path d="M58.2126 24.0471C58.5617 24.0471 58.8448 23.7569 58.8448 23.3988C58.8448 23.0408 58.5617 22.7505 58.2126 22.7505C57.8634 22.7505 57.5803 23.0408 57.5803 23.3988C57.5803 23.7569 57.8634 24.0471 58.2126 24.0471Z" fill="#354341"/>
<path d="M88.4453 22.7505C88.1004 22.7505 87.8131 23.0452 87.8131 23.3988C87.8131 23.7525 88.1004 24.0471 88.4453 24.0471C88.7902 24.0471 89.0776 23.7525 89.0776 23.3988C89.0201 23.0452 88.7902 22.7505 88.4453 22.7505Z" fill="#354341"/>
<path d="M62.5234 29.7642V22.9863C62.5234 22.9273 62.5808 22.8684 62.6383 22.8684H63.558C63.6154 22.8684 63.6729 22.9273 63.6729 22.9863V26.8173H63.7304L65.2823 24.8723C65.3397 24.8133 65.3972 24.8133 65.4547 24.8133H66.3743C66.3987 24.8133 66.4128 24.8133 66.4253 24.8179C66.4422 24.824 66.4562 24.8384 66.4893 24.8723V24.9312L65.2248 26.4047V26.4636L66.6617 29.7642V29.8232C66.6617 29.8821 66.6042 29.8821 66.5468 29.8821H65.5696C65.5121 29.8821 65.4547 29.8821 65.3972 29.8232L64.4201 27.3477C64.4201 27.2888 64.3626 27.2888 64.3626 27.3477L63.6154 28.2318V29.8821C63.6154 29.9411 63.558 30 63.5005 30H62.5808C62.5808 29.9309 62.5611 29.8821 62.5448 29.8417C62.5332 29.8131 62.5234 29.7886 62.5234 29.7642Z" fill="#354341"/>
<path d="M19.3359 0C18.4589 0 5.01147 0 5.01147 0H0V5.07042V22.8169V26.875H4.88239H13.4266H21.9708V30L26.8531 27.4648V22.8169C26.8531 22.8169 26.8531 12.6761 26.8531 7.60563C26.8531 3.38028 23.4704 0 19.3359 0Z" fill="#E9446A"/>
</g>
<defs>
<clipPath id="clip0">
<rect width="120" height="30" fill="white"/>
</clipPath>
</defs>
</svg>
